<?xml version="1.0" encoding="UTF-8" standalone="no"?>
<svg
   viewBox="0 0 500 500"
   version="1.1"
   id="svg110"
   sodipodi:docname="404.svg"
   inkscape:version="1.4.2 (ebf0e940d0, 2025-05-08)"
   xmlns:inkscape="http://www.inkscape.org/namespaces/inkscape"
   xmlns:sodipodi="http://sodipodi.sourceforge.net/DTD/sodipodi-0.dtd"
   xmlns="http://www.w3.org/2000/svg"
   xmlns:svg="http://www.w3.org/2000/svg">
  <defs
     id="defs110" />
  <sodipodi:namedview
     id="namedview110"
     pagecolor="#505050"
     bordercolor="#eeeeee"
     borderopacity="1"
     inkscape:showpageshadow="0"
     inkscape:pageopacity="0"
     inkscape:pagecheckerboard="0"
     inkscape:deskcolor="#505050"
     inkscape:zoom="1.4142136"
     inkscape:cx="335.16861"
     inkscape:cy="196.22213"
     inkscape:window-width="1920"
     inkscape:window-height="1052"
     inkscape:window-x="3840"
     inkscape:window-y="175"
     inkscape:window-maximized="1"
     inkscape:current-layer="layer2" />
  <g
     inkscape:groupmode="layer"
     id="layer1"
     inkscape:label="Layer 1">
    <rect
       style="fill:#ffffff;stroke-width:1.51181;stroke-linejoin:round;stroke-dasharray:5.29134, 2.64567, 2.64567, 2.64567, 5.29134, 5.29134, 5.29134, 2.64567, 5.29134, 2.64567, 2.64567, 2.64567, 2.64567, 2.64567, 2.64567, 5.29134, 2.64567, 2.64567, 2.64567, 2.64567, 2.64567, 5.29134, 2.64567, 2.64567, 5.29134, 2.64567, 5.29134, 5.29134, 2.64567, 2.64567, 2.64567, 15.874;fill-opacity:1"
       id="rect110"
       width="512.45551"
       height="512.45551"
       x="-1.1862396"
       y="0.5931198" />
  </g>
  <g
     id="freepik--background-simple--inject-106"
     style="display:inline">
    <path
       d="m 467.33,299.94 c -13.18,39.94 -41.57,83.71 -83.34,98 -63.12,21.53 -68.76,73.3 -183.32,73 a 230.62,230.62 0 0 1 -49.74,-5.34 192,192 0 0 1 -23.55,-6.84 C 59.52,434.19 22.36,376 17.06,313.76 c -7,-81.82 48.69,-123.1 85,-147.41 C 138.37,142.04 179.7,51.66 292.32,51.12 a 224.21,224.21 0 0 1 51.12,5.46 c 38.24,8.78 77.59,30 101.23,62.21 q 2.65,3.63 5.11,7.44 c 31.88,49.6 35.51,119.27 17.55,173.71 z"
       style="fill:#45b5aa;fill-opacity:1"
       id="path1" />
    <path
       d="m 467.33,299.94 c -13.18,39.94 -41.57,83.71 -83.34,98 -63.12,21.53 -68.76,73.3 -183.32,73 a 230.62,230.62 0 0 1 -49.74,-5.34 192,192 0 0 1 -23.55,-6.84 C 59.52,434.19 22.36,376 17.06,313.76 c -7,-81.82 48.69,-123.1 85,-147.41 C 138.37,142.04 179.7,51.66 292.32,51.12 a 224.21,224.21 0 0 1 51.12,5.46 c 38.24,8.78 77.59,30 101.23,62.21 q 2.65,3.63 5.11,7.44 c 31.88,49.6 35.51,119.27 17.55,173.71 z"
       style="opacity:0.7;fill:#ffffff"
       id="path2"
       inkscape:label="path2" />
  </g>
  <g
     id="freepik--Floor--inject-106"
     style="display:inline">
    <path
       d="M 482.69,453.63 H 20.94 a 0.51,0.51 0 0 1 -0.5,-0.5 0.5,0.5 0 0 1 0.5,-0.5 h 461.75 a 0.5,0.5 0 0 1 0.5,0.5 0.51,0.51 0 0 1 -0.5,0.5 z"
       style="fill:#263238"
       id="path3" />
  </g>
  <g
     id="freepik--Plants--inject-106"
     style="display:inline">
    <path
       d="m 38.16,389.86 c 2.16,0.94 7.42,0.82 7.43,0.82 0.01,0 -1.14,-3.44 -1.24,-3.65 -1.15,-2.42 -4.81,-6.41 -7.78,-6 a 3.55,3.55 0 0 0 -2.85,4.45 c 0.5,2.05 2.61,3.58 4.44,4.38 z"
       style="fill:#263238"
       id="path4" />
    <path
       d="m 40,405.12 c 2.23,0.32 6.93,-1 7.31,-1.15 a 61.86,61.86 0 0 0 2.85,7.89 c 0.64,1.49 1.34,3 2.06,4.46 l -0.88,-1.26 c -1.75,-2 -6.33,-4.91 -9.09,-3.73 a 3.55,3.55 0 0 0 -1.58,5 c 1,1.86 3.47,2.78 5.45,3.06 1.98,0.28 6,-0.79 7.1,-1.09 L 54,420 c 1.36,2.71 2.73,5.41 4,8.1 0.45,0.95 0.85,1.9 1.26,2.84 l -0.76,-1.09 c -1.76,-2 -6.33,-4.91 -9.1,-3.73 a 3.54,3.54 0 0 0 -1.57,5 c 1,1.86 3.46,2.77 5.44,3.06 1.98,0.29 5.65,-0.68 6.91,-1 0.39,1 0.78,2 1.11,2.93 0.22,0.67 0.47,1.3 0.64,2 0.17,0.7 0.37,1.34 0.56,2 0.31,1.28 0.63,2.6 0.9,3.86 0.19,0.87 0.36,1.71 0.53,2.55 -0.43,-0.95 -1.32,-2.78 -1.41,-2.93 -1.42,-2.27 -5.51,-5.81 -8.42,-5.07 a 3.56,3.56 0 0 0 -2.32,4.75 c 0.73,2 3,3.26 4.92,3.85 2.11,0.64 6.77,0.05 7.35,0 0.28,1.39 0.54,2.75 0.76,4 0.12,0.68 0.23,1.31 0.33,2 H 67 c -0.14,-0.74 -0.28,-1.5 -0.44,-2.29 -0.28,-1.42 -0.6,-2.93 -1,-4.47 a 39.82,39.82 0 0 0 4.1,-1.93 c 1.54,1.66 5.47,3.61 6,3.86 -0.53,1.31 -1.07,2.59 -1.59,3.78 l -0.46,1.05 h 2 l 0.15,-0.35 c 0.55,-1.34 1.11,-2.78 1.67,-4.26 0.56,0.12 5.18,1.06 7.33,0.57 2,-0.44 4.32,-1.54 5.19,-3.47 a 3.55,3.55 0 0 0 -2,-4.91 c -2.84,-1 -7.18,2.27 -8.77,4.43 -0.1,0.13 -1,1.62 -1.49,2.57 0.23,-0.6 0.45,-1.19 0.68,-1.82 0.45,-1.23 0.87,-2.48 1.32,-3.82 l 0.6,-2 c 0.21,-0.66 0.35,-1.38 0.53,-2.08 0.39,-1.62 0.7,-3.29 1,-5 1.08,0.39 5,1.74 7,1.6 2,-0.14 4.5,-0.87 5.66,-2.65 a 3.56,3.56 0 0 0 -1.2,-5.15 c -2.66,-1.37 -7.45,1.16 -9.34,3.05 -0.12,0.12 -1.33,1.63 -2,2.47 0.16,-1 0.32,-2 0.45,-3.05 0.37,-3 0.65,-6 0.94,-9 0.09,-0.93 0.19,-1.85 0.29,-2.77 0.38,0.15 4.95,1.85 7.2,1.69 2,-0.14 4.5,-0.87 5.65,-2.65 a 3.55,3.55 0 0 0 -1.19,-5.15 c -2.67,-1.37 -7.45,1.16 -9.35,3 -0.14,0.15 -1.88,2.32 -2.29,2.89 0.21,-2 0.44,-4 0.75,-6 a 63.45,63.45 0 0 1 1.73,-7.92 c 0.18,0.06 4.94,1.86 7.24,1.7 2,-0.14 4.5,-0.87 5.66,-2.65 a 3.56,3.56 0 0 0 -1.2,-5.15 c -2.66,-1.37 -7.44,1.16 -9.34,3.05 -0.15,0.15 -2,2.49 -2.33,2.94 0,-0.15 0.07,-0.31 0.12,-0.46 a 45.36,45.36 0 0 1 3.14,-7.5 c 0.68,-1.33 1.41,-2.57 2.14,-3.76 0.86,0.42 4.77,2.32 6.86,2.41 2.09,0.09 4.57,-0.38 5.91,-2 a 3.56,3.56 0 0 0 -0.62,-5.25 c -2.5,-1.66 -7.53,0.33 -9.63,2 -0.11,0.1 -1.17,1.15 -1.92,1.92 l 1,-1.59 c 1.26,-1.89 2.52,-3.54 3.66,-5 0.65,-0.83 1.25,-1.56 1.82,-2.24 1.06,0 5.3,-0.14 7.16,-1 1.86,-0.86 3.88,-2.44 4.32,-4.51 a 3.56,3.56 0 0 0 -3,-4.38 c -3,-0.32 -6.53,3.77 -7.62,6.22 -0.09,0.21 -1.18,3.69 -1.13,3.69 h 0.06 c -0.56,0.64 -1.16,1.33 -1.8,2.1 -1.16,1.44 -2.47,3.07 -3.77,4.94 a 63.32,63.32 0 0 0 -3.85,6.29 46.48,46.48 0 0 0 -3.34,7.52 v 0.1 c 0,-0.88 0,-3.34 0,-3.53 -0.34,-2.65 -2.57,-7.59 -5.52,-8.13 a 3.55,3.55 0 0 0 -4.1,3.34 c -0.17,2.11 1.36,4.22 2.85,5.56 1.69,1.5 6.36,2.95 6.73,3.07 a 63.38,63.38 0 0 0 -2,8.15 c -0.29,1.61 -0.53,3.23 -0.75,4.86 0,-0.76 0,-1.44 0,-1.53 -0.34,-2.66 -2.57,-7.59 -5.52,-8.13 a 3.54,3.54 0 0 0 -4.09,3.33 c -0.26,2.12 1.25,4.28 2.74,5.56 1.49,1.28 5.47,2.68 6.52,3 -0.07,0.63 -0.16,1.25 -0.23,1.88 -0.36,3 -0.71,6 -1.14,9 -0.15,1 -0.34,2.05 -0.52,3.06 0,-0.67 0,-1.24 0,-1.33 -0.34,-2.65 -2.57,-7.59 -5.52,-8.13 A 3.55,3.55 0 0 0 71,426.07 c -0.18,2.11 1.35,4.22 2.85,5.56 1.5,1.34 5.08,2.54 6.33,2.94 -0.22,1 -0.43,2.07 -0.69,3.07 -0.19,0.67 -0.33,1.33 -0.56,2 -0.23,0.67 -0.43,1.32 -0.64,2 -0.45,1.24 -0.91,2.52 -1.38,3.72 -0.32,0.83 -0.64,1.62 -1,2.42 0.16,-1 0.44,-3.05 0.44,-3.22 a 13.81,13.81 0 0 0 -1.85,-6.71 3.41,3.41 0 0 0 0,-0.78 3.56,3.56 0 0 0 -4.34,-3 c -2.9,0.78 -4.74,5.87 -4.87,8.54 0,0.16 0.09,1.88 0.17,3 -0.14,-0.63 -0.28,-1.25 -0.43,-1.9 -0.31,-1.28 -0.65,-2.55 -1,-3.92 l -0.6,-2 c -0.19,-0.67 -0.47,-1.35 -0.7,-2 -0.58,-1.57 -1.23,-3.13 -1.93,-4.69 1.12,-0.26 5.09,-1.28 6.69,-2.5 1.6,-1.22 3.27,-3.21 3.25,-5.33 a 3.55,3.55 0 0 0 -3.83,-3.64 c -3,0.33 -5.57,5.08 -6.11,7.7 0,0.17 -0.21,2.09 -0.29,3.15 -0.43,-0.93 -0.85,-1.86 -1.31,-2.79 -1.33,-2.69 -2.77,-5.36 -4.18,-8 -0.44,-0.82 -0.86,-1.64 -1.29,-2.46 0.4,-0.09 5.15,-1.19 6.94,-2.57 1.58,-1.21 3.27,-3.21 3.25,-5.32 a 3.55,3.55 0 0 0 -3.83,-3.64 c -3,0.32 -5.57,5.08 -6.12,7.7 0,0.2 -0.29,3 -0.32,3.68 -0.94,-1.81 -1.86,-3.62 -2.69,-5.44 A 63.71,63.71 0 0 1 48,403.94 c 0.19,0 5.15,-1.17 7,-2.57 1.59,-1.22 3.27,-3.21 3.25,-5.33 a 3.54,3.54 0 0 0 -3.83,-3.63 c -3,0.32 -5.57,5.07 -6.11,7.7 -0.05,0.2 -0.31,3.18 -0.32,3.73 l -0.16,-0.45 a 46.32,46.32 0 0 1 -1.52,-8 c -0.16,-1.49 -0.24,-2.92 -0.28,-4.32 0.94,-0.11 5.26,-0.69 7,-1.77 1.74,-1.08 3.61,-2.83 3.82,-4.94 a 3.54,3.54 0 0 0 -3.41,-4 c -3,0 -6.09,4.43 -6.92,7 -0.05,0.14 -0.35,1.6 -0.55,2.66 0,-0.63 0,-1.28 0,-1.88 0,-2.27 0.15,-4.35 0.29,-6.19 0.09,-1 0.19,-2 0.29,-2.87 0.87,-0.59 4.34,-3 5.41,-4.79 1.07,-1.79 1.89,-4.18 1.12,-6.15 a 3.56,3.56 0 0 0 -4.89,-2 c -2.67,1.38 -3.37,6.75 -2.93,9.39 0,0.23 1,3.73 1.09,3.7 h 0.06 c -0.12,0.85 -0.24,1.76 -0.34,2.75 -0.19,1.84 -0.38,3.92 -0.43,6.2 a 61.89,61.89 0 0 0 0.18,7.36 46.52,46.52 0 0 0 1.36,8.12 v 0.09 c -0.47,-0.74 -1.86,-2.77 -2,-2.91 -1.75,-2 -6.33,-4.91 -9.09,-3.74 a 3.54,3.54 0 0 0 -1.57,5 c 1.04,1.81 3.48,2.73 5.48,3.02 z"
       style="fill:#263238"
       id="path5" />
    <path
       d="m 91.43,391 c 0,0 1,-3.5 1,-3.73 0.37,-2.65 -0.47,-8 -3.18,-9.3 a 3.55,3.55 0 0 0 -4.83,2.14 c -0.72,2 0.2,4.43 1.28,6.11 1.3,1.99 5.73,4.78 5.73,4.78 z"
       style="fill:#263238"
       id="path6" />
    <path
       d="m 180.19,423.92 a 11.58,11.58 0 0 0 3.43,0.38 c 0,0 -0.52,-1.59 -0.57,-1.68 -0.53,-1.12 -2.22,-3 -3.59,-2.78 a 1.64,1.64 0 0 0 -1.31,2.06 3.4,3.4 0 0 0 2.04,2.02 z"
       style="fill:#263238"
       id="path7" />
    <path
       d="m 181,431 a 11.54,11.54 0 0 0 3.38,-0.53 29.48,29.48 0 0 0 1.31,3.64 c 0.3,0.69 0.62,1.37 0.95,2.06 -0.19,-0.29 -0.37,-0.55 -0.4,-0.58 -0.81,-0.94 -2.92,-2.27 -4.2,-1.73 a 1.63,1.63 0 0 0 -0.72,2.33 3.38,3.38 0 0 0 2.51,1.41 10.68,10.68 0 0 0 3.28,-0.5 c 0.13,0.26 0.25,0.53 0.38,0.79 0.63,1.25 1.26,2.49 1.85,3.73 0.2,0.44 0.39,0.88 0.58,1.32 -0.18,-0.26 -0.33,-0.48 -0.36,-0.51 -0.8,-0.93 -2.92,-2.26 -4.19,-1.72 a 1.64,1.64 0 0 0 -0.73,2.33 3.43,3.43 0 0 0 2.51,1.41 10.44,10.44 0 0 0 3.19,-0.48 c 0.18,0.46 0.36,0.91 0.52,1.36 0.16,0.45 0.21,0.6 0.29,0.91 0.08,0.31 0.17,0.62 0.26,0.92 0.14,0.59 0.29,1.2 0.41,1.78 0.09,0.41 0.17,0.79 0.25,1.18 -0.2,-0.44 -0.61,-1.28 -0.65,-1.35 -0.66,-1.05 -2.55,-2.68 -3.89,-2.34 a 1.63,1.63 0 0 0 -1.07,2.19 3.44,3.44 0 0 0 2.27,1.78 11.32,11.32 0 0 0 3.39,0 c 0.13,0.64 0.25,1.27 0.36,1.86 0.05,0.32 0.1,0.61 0.15,0.91 h 0.85 c -0.06,-0.34 -0.12,-0.69 -0.2,-1.06 -0.13,-0.65 -0.28,-1.35 -0.44,-2.06 a 19.93,19.93 0 0 0 1.9,-0.89 12.39,12.39 0 0 0 2.76,1.78 c -0.25,0.61 -0.5,1.19 -0.74,1.75 l -0.21,0.48 h 0.9 c 0,-0.06 0.05,-0.11 0.07,-0.16 0.25,-0.62 0.51,-1.28 0.77,-2 a 10.94,10.94 0 0 0 3.39,0.26 3.4,3.4 0 0 0 2.39,-1.6 1.63,1.63 0 0 0 -0.9,-2.26 c -1.32,-0.45 -3.32,1.05 -4,2 -0.05,0.06 -0.45,0.75 -0.69,1.19 0.1,-0.28 0.21,-0.55 0.31,-0.84 0.21,-0.57 0.4,-1.15 0.61,-1.77 0.09,-0.3 0.19,-0.61 0.28,-0.92 0.09,-0.31 0.16,-0.63 0.24,-1 0.18,-0.75 0.33,-1.52 0.46,-2.3 a 10.93,10.93 0 0 0 3.21,0.74 3.43,3.43 0 0 0 2.61,-1.22 1.64,1.64 0 0 0 -0.55,-2.38 c -1.23,-0.63 -3.44,0.54 -4.32,1.41 -0.05,0.05 -0.61,0.75 -0.91,1.14 q 0.12,-0.71 0.21,-1.41 c 0.17,-1.38 0.3,-2.77 0.44,-4.16 0,-0.43 0.08,-0.85 0.13,-1.28 a 11.34,11.34 0 0 0 3.32,0.78 3.4,3.4 0 0 0 2.61,-1.22 1.64,1.64 0 0 0 -0.55,-2.38 c -1.23,-0.63 -3.44,0.54 -4.31,1.41 -0.07,0.07 -0.87,1.07 -1.06,1.34 0.09,-0.94 0.2,-1.87 0.34,-2.79 a 29.86,29.86 0 0 1 0.8,-3.65 11.55,11.55 0 0 0 3.34,0.78 3.39,3.39 0 0 0 2.61,-1.22 1.64,1.64 0 0 0 -0.55,-2.38 c -1.23,-0.63 -3.43,0.54 -4.31,1.41 -0.07,0.07 -0.93,1.15 -1.07,1.36 0,-0.07 0,-0.15 0.05,-0.22 a 21.64,21.64 0 0 1 1.45,-3.46 c 0.32,-0.61 0.65,-1.18 1,-1.73 a 11.24,11.24 0 0 0 3.16,1.11 3.39,3.39 0 0 0 2.73,-0.93 1.63,1.63 0 0 0 -0.28,-2.42 c -1.16,-0.77 -3.48,0.15 -4.45,0.92 l -0.89,0.89 0.47,-0.73 c 0.58,-0.88 1.17,-1.64 1.69,-2.31 0.3,-0.38 0.58,-0.72 0.84,-1 a 11.12,11.12 0 0 0 3.31,-0.47 3.44,3.44 0 0 0 2,-2.08 1.64,1.64 0 0 0 -1.37,-2 c -1.38,-0.15 -3,1.74 -3.52,2.87 0,0.1 -0.55,1.7 -0.52,1.7 v 0 c -0.26,0.3 -0.54,0.62 -0.83,1 -0.54,0.66 -1.14,1.42 -1.74,2.28 a 26.48,26.48 0 0 0 -1.81,2.88 20.35,20.35 0 0 0 -1.54,3.47 c 0,-0.4 0,-1.54 0,-1.62 -0.16,-1.23 -1.18,-3.51 -2.55,-3.76 a 1.64,1.64 0 0 0 -1.89,1.54 3.43,3.43 0 0 0 1.32,2.57 11.72,11.72 0 0 0 3.11,1.42 27.9,27.9 0 0 0 -0.92,3.76 c -0.13,0.74 -0.24,1.49 -0.34,2.24 0,-0.35 0,-0.66 0,-0.7 -0.16,-1.23 -1.18,-3.51 -2.55,-3.76 a 1.64,1.64 0 0 0 -1.89,1.54 3.43,3.43 0 0 0 1.32,2.57 11.23,11.23 0 0 0 3,1.39 c 0,0.29 -0.07,0.58 -0.11,0.87 -0.16,1.39 -0.32,2.77 -0.52,4.13 -0.07,0.48 -0.16,0.95 -0.24,1.41 0,-0.31 0,-0.57 0,-0.61 -0.16,-1.23 -1.19,-3.5 -2.55,-3.75 a 1.63,1.63 0 0 0 -1.89,1.54 3.41,3.41 0 0 0 1.32,2.56 10.12,10.12 0 0 0 2.92,1.36 c -0.1,0.48 -0.2,1 -0.32,1.42 -0.09,0.31 -0.15,0.61 -0.26,0.92 -0.11,0.31 -0.19,0.61 -0.29,0.91 -0.21,0.57 -0.42,1.16 -0.64,1.72 -0.15,0.38 -0.29,0.75 -0.44,1.12 0.07,-0.48 0.2,-1.41 0.2,-1.49 a 6.38,6.38 0 0 0 -0.85,-3.1 c 0,-0.12 0,-0.24 0,-0.36 a 1.64,1.64 0 0 0 -2,-1.39 c -1.34,0.36 -2.19,2.71 -2.25,3.94 0,0.07 0.05,0.87 0.08,1.37 -0.06,-0.29 -0.13,-0.58 -0.2,-0.87 -0.14,-0.6 -0.3,-1.18 -0.46,-1.81 -0.1,-0.31 -0.19,-0.61 -0.28,-0.92 -0.09,-0.31 -0.22,-0.62 -0.32,-0.94 -0.27,-0.72 -0.57,-1.44 -0.89,-2.16 a 10.5,10.5 0 0 0 3.08,-1.16 3.43,3.43 0 0 0 1.51,-2.46 1.64,1.64 0 0 0 -1.77,-1.67 c -1.38,0.15 -2.58,2.34 -2.83,3.55 0,0.08 -0.09,1 -0.13,1.45 -0.2,-0.43 -0.39,-0.86 -0.6,-1.29 -0.62,-1.24 -1.28,-2.47 -1.93,-3.71 l -0.6,-1.13 a 11.36,11.36 0 0 0 3.2,-1.19 3.43,3.43 0 0 0 1.51,-2.46 1.64,1.64 0 0 0 -1.77,-1.67 c -1.38,0.15 -2.58,2.34 -2.83,3.55 0,0.09 -0.13,1.37 -0.14,1.7 -0.44,-0.84 -0.86,-1.67 -1.25,-2.51 a 29,29 0 0 1 -1.35,-3.5 11.35,11.35 0 0 0 3.22,-1.18 3.5,3.5 0 0 0 1.51,-2.46 1.64,1.64 0 0 0 -1.78,-1.68 c -1.37,0.15 -2.57,2.34 -2.82,3.55 0,0.1 -0.14,1.48 -0.14,1.73 a 1.8,1.8 0 0 1 -0.08,-0.21 21.92,21.92 0 0 1 -0.7,-3.69 c -0.07,-0.69 -0.11,-1.35 -0.13,-2 a 11.16,11.16 0 0 0 3.25,-0.82 3.44,3.44 0 0 0 1.77,-2.28 1.64,1.64 0 0 0 -1.58,-1.86 c -1.38,0 -2.81,2 -3.19,3.22 0,0.07 -0.16,0.74 -0.26,1.23 0,-0.29 0,-0.59 0,-0.87 0,-1.05 0.07,-2 0.13,-2.85 0,-0.49 0.09,-0.92 0.14,-1.33 a 10.94,10.94 0 0 0 2.49,-2.21 3.4,3.4 0 0 0 0.52,-2.84 1.65,1.65 0 0 0 -2.26,-0.93 c -1.23,0.64 -1.55,3.12 -1.35,4.34 0,0.1 0.49,1.72 0.51,1.7 v 0 c -0.05,0.39 -0.11,0.81 -0.16,1.27 -0.08,0.85 -0.17,1.81 -0.19,2.86 a 28.09,28.09 0 0 0 0.08,3.39 21.45,21.45 0 0 0 0.63,3.75 c 0,0 0,0 0,0 -0.22,-0.34 -0.86,-1.27 -0.91,-1.34 -0.81,-0.94 -2.93,-2.27 -4.2,-1.73 a 1.64,1.64 0 0 0 -0.73,2.33 3.45,3.45 0 0 0 2.39,1.53 z"
       style="fill:#263238"
       id="path8" />
    <path
       d="m 204.78,424.46 c 0,0 0.45,-1.62 0.46,-1.72 0.17,-1.23 -0.22,-3.69 -1.47,-4.3 a 1.65,1.65 0 0 0 -2.23,1 3.44,3.44 0 0 0 0.59,2.82 11.8,11.8 0 0 0 2.65,2.2 z"
       style="fill:#263238"
       id="path9" />
  </g>
  <g
     id="freepik--Clouds--inject-106"
     style="display:inline">
    <path
       d="m 317.62,95.93 h -152 a 0.49,0.49 0 0 1 -0.49,-0.41 0.5,0.5 0 0 1 0.3,-0.56 c 5.21,-2.08 15.51,-6.48 17.25,-8.22 a 12.92,12.92 0 0 0 1.7,-2.68 c 1.92,-3.56 4.83,-9 12.87,-11.82 5.91,-2.11 10.25,-0.77 13.13,0.11 2.61,0.81 3.47,1 4,-0.55 1.12,-3.35 3.44,-10.32 9.66,-14 a 0.49,0.49 0 0 1 0.68,0.18 0.51,0.51 0 0 1 -0.18,0.69 c -5.89,3.44 -8.13,10.17 -9.21,13.4 -0.85,2.54 -2.78,2 -5.22,1.2 -2.92,-0.9 -6.91,-2.12 -12.5,-0.13 -7.68,2.74 -10.48,7.93 -12.33,11.36 a 13.22,13.22 0 0 1 -1.87,2.91 c -1.78,1.78 -10.84,5.66 -15.22,7.48 h 149.4 a 0.5,0.5 0 0 1 0.5,0.5 0.5,0.5 0 0 1 -0.47,0.54 z"
       style="fill:#263238"
       id="path10" />
    <path
       d="m 343.6,95.93 h -18.41 a 0.51,0.51 0 0 1 -0.5,-0.5 0.5,0.5 0 0 1 0.5,-0.5 h 18 c 0.4,-2.6 2.25,-16.84 -3.75,-24.17 -3,-3.61 -7.52,-3.17 -12.36,-2.69 -5.7,0.56 -11.59,1.14 -14.2,-5.72 -0.77,-1.09 -14.06,-19.5 -29.89,-20.94 -14.3,-1.3 -21.21,8.23 -26.26,15.18 -0.72,1 -1.41,1.95 -2.07,2.8 -3.13,4 -5.66,2.65 -9.16,0.76 -3,-1.6 -6.65,-3.6 -12.43,-3.6 a 0.5,0.5 0 0 1 -0.5,-0.5 0.5,0.5 0 0 1 0.5,-0.5 25.23,25.23 0 0 1 12.93,3.72 c 3.42,1.84 5.29,2.86 7.9,-0.49 0.66,-0.85 1.34,-1.78 2.06,-2.77 5.18,-7.16 12.28,-16.94 27.15,-15.6 16.7,1.52 30.52,21.22 30.66,21.42 a 0.37,0.37 0 0 1 0,0.11 c 2.33,6.2 7.61,5.68 13.19,5.13 4.89,-0.48 9.94,-1 13.23,3.05 6.89,8.41 4,24.71 3.89,25.4 a 0.5,0.5 0 0 1 -0.48,0.41 z"
       style="fill:#263238"
       id="path11" />
    <path
       d="m 249,89.11 h -0.06 a 0.5,0.5 0 0 1 -0.44,-0.55 12.24,12.24 0 0 1 3.67,-7 0.5,0.5 0 0 1 0.71,0 0.51,0.51 0 0 1 0,0.71 11.51,11.51 0 0 0 -3.36,6.4 0.5,0.5 0 0 1 -0.52,0.44 z"
       style="fill:#263238"
       id="path12" />
    <path
       d="m 269.94,81 a 22.27,22.27 0 0 1 -4.8,-0.73 c -2.72,-0.62 -5.53,-1.25 -8.45,-0.28 a 0.5,0.5 0 0 1 -0.64,-0.32 0.51,0.51 0 0 1 0.32,-0.63 c 3.19,-1.06 6.14,-0.39 9,0.25 3.37,0.77 6.29,1.43 9,-0.91 1.87,-1.61 2.44,-4.63 3.05,-7.83 1,-5.38 2.19,-11.48 10.11,-12 12.19,-0.76 22.66,9.55 23.1,10 a 0.5,0.5 0 0 1 0,0.71 0.51,0.51 0 0 1 -0.71,0 c -0.1,-0.1 -10.59,-10.43 -22.33,-9.7 -7.14,0.45 -8.18,5.9 -9.18,11.17 -0.65,3.38 -1.26,6.57 -3.39,8.4 A 7.44,7.44 0 0 1 269.94,81 Z"
       style="fill:#263238"
       id="path13" />
    <path
       d="M 133.4,130.34 H 34.12 a 0.49,0.49 0 0 1 -0.49,-0.41 0.5,0.5 0 0 1 0.3,-0.56 C 36.66,128.28 44,125.2 45.14,124 a 8,8 0 0 0 1.08,-1.71 c 1.27,-2.35 3.2,-5.91 8.51,-7.8 a 12.58,12.58 0 0 1 8.69,0.07 c 1.83,0.56 2.12,0.53 2.38,-0.26 0.74,-2.2 2.27,-6.8 6.39,-9.21 a 0.51,0.51 0 0 1 0.68,0.18 0.51,0.51 0 0 1 -0.18,0.69 c -3.79,2.21 -5.24,6.57 -5.94,8.66 -0.61,1.82 -2.07,1.37 -3.63,0.89 a 11.56,11.56 0 0 0 -8.06,-0.08 13.78,13.78 0 0 0 -8,7.34 8.46,8.46 0 0 1 -1.25,1.94 c -1.09,1.09 -6.12,3.3 -9.19,4.59 h 96.78 a 0.5,0.5 0 0 1 0.5,0.5 0.51,0.51 0 0 1 -0.5,0.54 z"
       style="fill:#263238"
       id="path14" />
    <path
       d="m 150.37,130.34 h -12 a 0.51,0.51 0 0 1 -0.5,-0.5 0.5,0.5 0 0 1 0.5,-0.5 h 11.6 c 0.3,-2 1.34,-10.9 -2.43,-15.51 -1.87,-2.29 -4.81,-2 -7.93,-1.69 -3.78,0.37 -7.69,0.75 -9.44,-3.83 -0.61,-0.86 -9.2,-12.67 -19.39,-13.59 -9.24,-0.84 -13.73,5.34 -17,9.85 -0.47,0.65 -0.92,1.27 -1.36,1.83 -2.13,2.74 -3.93,1.77 -6.2,0.54 a 15.67,15.67 0 0 0 -8,-2.33 0.5,0.5 0 0 1 -0.5,-0.5 0.5,0.5 0 0 1 0.5,-0.5 16.69,16.69 0 0 1 8.51,2.45 c 2.29,1.24 3.33,1.8 4.94,-0.27 0.43,-0.55 0.87,-1.16 1.34,-1.81 3.41,-4.7 8.08,-11.15 17.9,-10.26 11,1 19.79,13.53 20.15,14.07 a 0.24,0.24 0 0 1 0.06,0.11 c 1.47,3.92 4.7,3.61 8.44,3.24 3.24,-0.32 6.58,-0.65 8.79,2.06 4.55,5.55 2.66,16.27 2.58,16.73 a 0.5,0.5 0 0 1 -0.56,0.41 z"
       style="fill:#263238"
       id="path15" />
    <path
       d="m 88.54,125.88 h -0.06 a 0.5,0.5 0 0 1 -0.44,-0.55 8.17,8.17 0 0 1 2.45,-4.69 0.5,0.5 0 0 1 0.71,0 0.51,0.51 0 0 1 0,0.71 7.3,7.3 0 0 0 -2.2,4.09 0.49,0.49 0 0 1 -0.46,0.44 z"
       style="fill:#263238"
       id="path16" />
    <path
       d="m 102.23,120.59 a 14.4,14.4 0 0 1 -3.16,-0.48 9.8,9.8 0 0 0 -5.43,-0.19 0.5,0.5 0 1 1 -0.32,-0.94 10.73,10.73 0 0 1 6,0.15 c 2.16,0.49 4,0.92 5.74,-0.56 1.18,-1 1.55,-2.95 1.94,-5 0.68,-3.58 1.45,-7.63 6.76,-8 8.06,-0.51 14.94,6.29 15.23,6.58 a 0.50204581,0.50204581 0 1 1 -0.71,0.71 c -0.07,-0.07 -6.87,-6.76 -14.45,-6.29 -4.54,0.29 -5.17,3.62 -5.85,7.16 -0.42,2.23 -0.83,4.35 -2.27,5.58 a 5.07,5.07 0 0 1 -3.48,1.28 z"
       style="fill:#263238"
       id="path17" />
    <path
       d="m 317.09,162.85 h -69.23 a 0.50894499,0.50894499 0 0 1 -0.19,-1 c 2.63,-1 7.07,-3 7.77,-3.68 a 6.25,6.25 0 0 0 0.73,-1.16 10.31,10.31 0 0 1 6,-5.51 8.89,8.89 0 0 1 6.15,0 c 1.32,0.41 1.34,0.32 1.48,-0.08 0.52,-1.55 1.6,-4.8 4.52,-6.5 a 0.5,0.5 0 1 1 0.5,0.86 c -2.59,1.52 -3.59,4.52 -4.07,6 -0.48,1.48 -1.67,1 -2.72,0.72 a 7.92,7.92 0 0 0 -5.52,-0.06 9.45,9.45 0 0 0 -5.47,5 6.31,6.31 0 0 1 -0.9,1.39 c -0.7,0.7 -3.63,2 -5.78,2.95 h 66.72 a 0.5,0.5 0 0 1 0.5,0.5 0.5,0.5 0 0 1 -0.49,0.57 z"
       style="fill:#263238"
       id="path18" />
    <path
       d="m 328.93,162.85 h -8.39 a 0.5,0.5 0 0 1 -0.5,-0.5 0.5,0.5 0 0 1 0.5,-0.5 h 8 c 0.22,-1.61 0.84,-7.49 -1.69,-10.57 -1.25,-1.53 -3.26,-1.34 -5.39,-1.13 -2.56,0.25 -5.47,0.54 -6.74,-2.75 -0.5,-0.69 -6.41,-8.76 -13.4,-9.39 -6.37,-0.59 -9.45,3.69 -11.71,6.8 -0.34,0.46 -0.65,0.89 -1,1.28 -1.56,2 -2.93,1.28 -4.51,0.42 a 10.82,10.82 0 0 0 -5.54,-1.6 0.5,0.5 0 0 1 -0.5,-0.5 0.5,0.5 0 0 1 0.5,-0.5 11.74,11.74 0 0 1 6,1.72 c 1.56,0.85 2.21,1.19 3.26,-0.15 0.29,-0.38 0.6,-0.81 0.93,-1.26 2.4,-3.31 5.69,-7.84 12.61,-7.21 7.74,0.7 13.91,9.5 14.17,9.87 a 0.54,0.54 0 0 1 0,0.11 c 1,2.63 3.19,2.42 5.73,2.17 2.19,-0.22 4.67,-0.46 6.27,1.48 3.21,3.93 1.89,11.48 1.83,11.79 a 0.51,0.51 0 0 1 -0.43,0.42 z"
       style="fill:#263238"
       id="path19" />
    <path
       d="m 285.81,159.74 h -0.06 a 0.5,0.5 0 0 1 -0.44,-0.55 5.88,5.88 0 0 1 1.76,-3.37 0.49,0.49 0 0 1 0.7,0 0.5,0.5 0 0 1 0,0.71 4.88,4.88 0 0 0 -1.45,2.75 0.5,0.5 0 0 1 -0.51,0.46 z"
       style="fill:#263238"
       id="path20" />
    <path
       d="m 295.36,156.05 a 10.12,10.12 0 0 1 -2.24,-0.34 6.86,6.86 0 0 0 -3.71,-0.14 0.49489898,0.49489898 0 1 1 -0.31,-0.94 7.58,7.58 0 0 1 4.24,0.1 c 1.52,0.35 2.73,0.62 3.87,-0.35 0.78,-0.67 1,-2 1.3,-3.41 0.46,-2.43 1,-5.44 4.86,-5.68 5.68,-0.37 10.53,4.42 10.73,4.63 a 0.48,0.48 0 0 1 0,0.7 0.5,0.5 0 0 1 -0.71,0 c 0,0 -4.74,-4.67 -10,-4.34 -3,0.19 -3.48,2.46 -3.94,4.86 -0.3,1.59 -0.58,3.09 -1.63,4 a 3.68,3.68 0 0 1 -2.46,0.91 z"
       style="fill:#263238"
       id="path21" />
  </g>
  <g
     id="freepik--Number--inject-106"
     style="display:inline">
    <path
       d="M 103.59,362.9 V 321.2 H 52.88 V 296.47 L 97.1,193.15 h 33.74 v 105 h 17.39 v 23.05 h -17.39 v 41.7 z m -26.4,-64.76 h 26.4 v -73.77 z"
       style="fill:#263238"
       id="path22" />
    <path
       d="m 130.84,363.4 h -27.25 a 0.5,0.5 0 0 1 -0.5,-0.5 V 321.7 H 52.88 a 0.5,0.5 0 0 1 -0.5,-0.5 v -24.73 a 0.45,0.45 0 0 1 0,-0.2 L 96.64,193 a 0.51,0.51 0 0 1 0.46,-0.3 h 33.74 a 0.5,0.5 0 0 1 0.5,0.5 v 104.44 h 16.89 a 0.5,0.5 0 0 1 0.5,0.5 v 23.06 a 0.5,0.5 0 0 1 -0.5,0.5 h -16.89 v 41.2 a 0.5,0.5 0 0 1 -0.5,0.5 z m -26.75,-1 h 26.25 v -41.2 a 0.5,0.5 0 0 1 0.5,-0.5 h 16.89 v -22.06 h -16.89 a 0.5,0.5 0 0 1 -0.5,-0.5 V 193.65 H 97.43 L 53.38,296.57 v 24.13 h 50.21 a 0.5,0.5 0 0 1 0.5,0.5 z m -0.5,-63.76 h -26.4 a 0.47,0.47 0 0 1 -0.41,-0.21 0.46,0.46 0 0 1 -0.06,-0.45 l 26.4,-73.77 a 0.51,0.51 0 0 1 0.56,-0.33 0.49,0.49 0 0 1 0.41,0.49 v 73.77 a 0.5,0.5 0 0 1 -0.5,0.5 z m -25.69,-1 h 25.19 v -70.39 z"
       style="fill:#263238"
       id="path23" />
    <path
       d="m 207.75,365.42 q -14.88,0 -24.62,-6.29 a 38.92,38.92 0 0 1 -14.67,-17.39 q -4.94,-11.12 -4.93,-25.57 v -75.24 q 0,-14.88 4.72,-26.09 a 37.58,37.58 0 0 1 14.46,-17.5 q 9.75,-6.28 25,-6.29 15.25,-0.01 25.05,6.29 a 37.58,37.58 0 0 1 14.46,17.5 Q 252,226 252,240.93 v 75.24 q 0,14.46 -4.92,25.57 a 39,39 0 0 1 -14.67,17.39 q -9.78,6.29 -24.66,6.29 z m 0,-24.94 q 6.5,0 9.64,-4 a 21.76,21.76 0 0 0 4.2,-9.64 61.78,61.78 0 0 0 1,-11.11 v -74.4 A 71.74,71.74 0 0 0 221.65,229.7 20.88,20.88 0 0 0 217.6,220 q -3.14,-4 -9.85,-4 -6.71,0 -9.85,4 a 21,21 0 0 0 -4.08,9.75 71.75,71.75 0 0 0 -0.95,11.63 v 74.4 a 55.57,55.57 0 0 0 1.13,11.08 22.56,22.56 0 0 0 4.29,9.64 q 3.18,3.98 9.46,3.98 z"
       style="fill:#263238"
       id="path24" />
    <path
       d="m 207.75,365.92 c -10,0 -18.34,-2.14 -24.89,-6.37 A 39.54,39.54 0 0 1 168,341.94 c -3.3,-7.43 -5,-16.1 -5,-25.77 v -75.24 c 0,-9.94 1.6,-18.78 4.76,-26.29 a 38.31,38.31 0 0 1 14.65,-17.72 c 6.55,-4.23 15.06,-6.37 25.31,-6.37 10.25,0 18.77,2.14 25.32,6.37 a 38.26,38.26 0 0 1 14.65,17.72 c 3.16,7.51 4.75,16.35 4.75,26.29 v 75.24 a 63.45,63.45 0 0 1 -5,25.77 39.61,39.61 0 0 1 -14.86,17.61 c -6.48,4.23 -14.86,6.37 -24.83,6.37 z m 0,-174.37 c -10.05,0 -18.39,2.09 -24.77,6.21 A 37.27,37.27 0 0 0 168.71,215 c -3.1,7.38 -4.68,16.1 -4.68,25.9 v 75.24 a 62.25,62.25 0 0 0 4.89,25.36 38.56,38.56 0 0 0 14.48,17.18 c 6.39,4.12 14.58,6.21 24.35,6.21 9.77,0 18,-2.09 24.36,-6.21 a 38.68,38.68 0 0 0 14.48,-17.18 62.32,62.32 0 0 0 4.88,-25.36 v -75.21 c 0,-9.81 -1.57,-18.52 -4.67,-25.9 a 37.27,37.27 0 0 0 -14.27,-17.27 c -6.39,-4.12 -14.72,-6.21 -24.78,-6.21 z m 0,149.43 c -4.33,0 -7.63,-1.4 -9.82,-4.17 a 23,23 0 0 1 -4.39,-9.85 55.76,55.76 0 0 1 -1.17,-11.21 v -74.4 a 72.73,72.73 0 0 1 0.95,-11.71 21.46,21.46 0 0 1 4.19,-10 c 2.19,-2.77 5.63,-4.17 10.24,-4.17 4.61,0 8.06,1.4 10.25,4.17 a 21.45,21.45 0 0 1 4.18,10 72.73,72.73 0 0 1 0.95,11.71 v 74.4 a 61.88,61.88 0 0 1 -1,11.2 22.36,22.36 0 0 1 -4.29,9.86 c -2.24,2.77 -5.61,4.19 -10.09,4.19 z m 0,-124.49 c -4.28,0 -7.47,1.28 -9.45,3.79 a 20.4,20.4 0 0 0 -4,9.52 71.89,71.89 0 0 0 -0.94,11.55 v 74.4 a 55.15,55.15 0 0 0 1.15,11 22.17,22.17 0 0 0 4.19,9.43 c 2,2.51 5,3.79 9,3.79 4,0 7.27,-1.28 9.25,-3.79 a 21.21,21.21 0 0 0 4.09,-9.42 60.81,60.81 0 0 0 1,-11 v -74.4 a 72,72 0 0 0 -0.93,-11.55 20.5,20.5 0 0 0 -4,-9.52 c -1.89,-2.52 -5.11,-3.8 -9.36,-3.8 z"
       style="fill:#263238"
       id="path25" />
    <path
       d="m 321.13,362.9 v -41.7 h -50.71 v -24.73 l 44.22,-103.32 h 33.74 v 105 h 17.39 v 23.05 h -17.39 v 41.7 z m -26.4,-64.76 h 26.4 v -73.77 z"
       style="fill:#263238"
       id="path26" />
    <path
       d="m 348.38,363.4 h -27.25 a 0.5,0.5 0 0 1 -0.5,-0.5 v -41.2 h -50.21 a 0.5,0.5 0 0 1 -0.5,-0.5 v -24.73 a 0.45,0.45 0 0 1 0,-0.2 L 314.18,193 a 0.51,0.51 0 0 1 0.46,-0.3 h 33.74 a 0.5,0.5 0 0 1 0.5,0.5 v 104.44 h 16.89 a 0.5,0.5 0 0 1 0.5,0.5 v 23.06 a 0.5,0.5 0 0 1 -0.5,0.5 h -16.89 v 41.2 a 0.5,0.5 0 0 1 -0.5,0.5 z m -26.75,-1 h 26.25 v -41.2 a 0.5,0.5 0 0 1 0.5,-0.5 h 16.89 v -22.06 h -16.89 a 0.5,0.5 0 0 1 -0.5,-0.5 V 193.65 H 315 l -44.08,102.92 v 24.13 h 50.21 a 0.5,0.5 0 0 1 0.5,0.5 z m -0.5,-63.76 h -26.4 a 0.47,0.47 0 0 1 -0.41,-0.21 0.46,0.46 0 0 1 -0.06,-0.45 l 26.4,-73.77 a 0.51,0.51 0 0 1 0.56,-0.33 0.49,0.49 0 0 1 0.41,0.49 v 73.77 a 0.5,0.5 0 0 1 -0.5,0.5 z m -25.69,-1 h 25.19 v -70.39 z"
       style="fill:#263238"
       id="path27" />
    <path
       d="M 116.23,362.9 V 321.2 H 65.51 v -24.73 l 44.22,-103.32 h 33.75 v 105 h 17.39 v 23.05 h -17.39 v 41.7 z M 89.82,298.14 h 26.41 v -73.77 z"
       style="fill:#ffffff"
       id="path28" />
    <path
       d="m 143.48,363.4 h -27.25 a 0.5,0.5 0 0 1 -0.5,-0.5 V 321.7 H 65.51 a 0.51,0.51 0 0 1 -0.5,-0.5 v -24.73 a 0.65,0.65 0 0 1 0,-0.2 L 109.27,193 a 0.51,0.51 0 0 1 0.46,-0.3 h 33.75 a 0.5,0.5 0 0 1 0.5,0.5 v 104.44 h 16.89 a 0.5,0.5 0 0 1 0.5,0.5 v 23.06 a 0.5,0.5 0 0 1 -0.5,0.5 H 144 v 41.2 a 0.5,0.5 0 0 1 -0.52,0.5 z m -26.75,-1 H 143 v -41.2 a 0.5,0.5 0 0 1 0.5,-0.5 h 16.89 v -22.06 h -16.91 a 0.5,0.5 0 0 1 -0.5,-0.5 V 193.65 H 110.06 L 66,296.57 v 24.13 h 50.22 a 0.5,0.5 0 0 1 0.5,0.5 z m -0.5,-63.76 H 89.82 a 0.46,0.46 0 0 1 -0.4,-0.21 0.49,0.49 0 0 1 -0.07,-0.45 l 26.41,-73.77 a 0.51,0.51 0 0 1 0.56,-0.33 0.49,0.49 0 0 1 0.41,0.49 v 73.77 a 0.5,0.5 0 0 1 -0.5,0.5 z m -25.7,-1 h 25.2 v -70.39 z"
       style="fill:#263238"
       id="path29" />
    <path
       d="m 220.39,365.42 q -14.88,0 -24.63,-6.29 a 39,39 0 0 1 -14.67,-17.39 q -4.92,-11.12 -4.92,-25.57 v -75.24 q 0,-14.88 4.71,-26.09 a 37.66,37.66 0 0 1 14.47,-17.5 q 9.74,-6.28 25,-6.29 15.26,-0.01 25,6.29 a 37.66,37.66 0 0 1 14.47,17.5 q 4.71,11.21 4.71,26.09 v 75.24 q 0,14.46 -4.92,25.57 A 39,39 0 0 1 245,359.13 q -9.73,6.29 -24.61,6.29 z m 0,-24.94 q 6.5,0 9.64,-4 a 21.63,21.63 0 0 0 4.19,-9.64 60.91,60.91 0 0 0 1.05,-11.11 v -74.4 a 71.74,71.74 0 0 0 -0.94,-11.63 20.88,20.88 0 0 0 -4.09,-9.75 q -3.15,-4 -9.85,-4 -6.7,0 -9.85,4 a 20.88,20.88 0 0 0 -4.09,9.75 71.74,71.74 0 0 0 -0.94,11.63 v 74.4 a 55.54,55.54 0 0 0 1.15,11.11 22.57,22.57 0 0 0 4.3,9.64 q 3.15,4 9.43,4 z"
       style="fill:#ffffff"
       id="path30" />
    <path
       d="m 220.39,365.92 c -10,0 -18.35,-2.14 -24.9,-6.37 a 39.58,39.58 0 0 1 -14.85,-17.61 c -3.3,-7.43 -5,-16.1 -5,-25.77 v -75.24 c 0,-9.94 1.6,-18.78 4.75,-26.29 a 38.31,38.31 0 0 1 14.65,-17.72 c 6.55,-4.23 15.07,-6.37 25.32,-6.37 10.25,0 18.77,2.14 25.32,6.37 a 38.31,38.31 0 0 1 14.65,17.72 c 3.15,7.51 4.75,16.35 4.75,26.29 v 75.24 a 63.29,63.29 0 0 1 -5,25.77 39.53,39.53 0 0 1 -14.85,17.61 c -6.49,4.23 -14.87,6.37 -24.84,6.37 z m 0,-174.37 c -10,0 -18.39,2.09 -24.77,6.21 A 37.27,37.27 0 0 0 181.35,215 c -3.11,7.38 -4.68,16.09 -4.68,25.9 v 75.24 c 0,9.53 1.64,18.06 4.88,25.36 A 38.58,38.58 0 0 0 196,358.71 c 6.38,4.12 14.58,6.21 24.35,6.21 9.77,0 18,-2.09 24.35,-6.21 a 38.64,38.64 0 0 0 14.49,-17.18 62.32,62.32 0 0 0 4.88,-25.36 v -75.24 c 0,-9.81 -1.57,-18.52 -4.67,-25.9 a 37.35,37.35 0 0 0 -14.28,-17.27 c -6.34,-4.12 -14.68,-6.21 -24.73,-6.21 z m 0,149.43 c -4.33,0 -7.64,-1.4 -9.82,-4.17 a 23.13,23.13 0 0 1 -4.4,-9.85 56.47,56.47 0 0 1 -1.17,-11.21 v -74.4 a 72.73,72.73 0 0 1 1,-11.71 21.46,21.46 0 0 1 4.19,-10 c 2.19,-2.77 5.63,-4.17 10.24,-4.17 4.61,0 8.06,1.4 10.24,4.17 a 21.46,21.46 0 0 1 4.19,10 72.73,72.73 0 0 1 1,11.71 v 74.4 a 61.91,61.91 0 0 1 -1.06,11.2 22.13,22.13 0 0 1 -4.29,9.86 c -2.27,2.77 -5.65,4.19 -10.12,4.19 z m 0,-124.49 c -4.29,0 -7.47,1.28 -9.46,3.79 a 20.49,20.49 0 0 0 -4,9.52 71.89,71.89 0 0 0 -0.94,11.55 v 74.4 a 55.2,55.2 0 0 0 1.14,11 22.18,22.18 0 0 0 4.2,9.43 c 2,2.51 5,3.79 9,3.79 4,0 7.26,-1.28 9.25,-3.79 a 21.21,21.21 0 0 0 4.09,-9.42 60.81,60.81 0 0 0 1,-11 v -74.4 a 70.77,70.77 0 0 0 -0.94,-11.55 20.49,20.49 0 0 0 -4,-9.52 c -1.87,-2.52 -5.05,-3.8 -9.34,-3.8 z"
       style="fill:#263238"
       id="path31" />
    <path
       d="M 333.77,362.9 V 321.2 H 283.05 V 296.47 L 327.27,193.15 H 361 v 105 h 17.39 V 321.2 H 361 v 41.7 z m -26.41,-64.76 h 26.41 v -73.77 z"
       style="fill:#ffffff"
       id="path32" />
    <path
       d="m 361,363.4 h -27.23 a 0.5,0.5 0 0 1 -0.5,-0.5 v -41.2 h -50.22 a 0.51,0.51 0 0 1 -0.5,-0.5 v -24.73 a 0.65,0.65 0 0 1 0,-0.2 L 326.81,193 a 0.51,0.51 0 0 1 0.46,-0.3 H 361 a 0.5,0.5 0 0 1 0.5,0.5 v 104.44 h 16.89 a 0.5,0.5 0 0 1 0.5,0.5 v 23.06 a 0.5,0.5 0 0 1 -0.5,0.5 h -16.87 v 41.2 a 0.5,0.5 0 0 1 -0.52,0.5 z m -26.75,-1 h 26.25 v -41.2 a 0.5,0.5 0 0 1 0.5,-0.5 h 16.89 V 298.64 H 361 a 0.5,0.5 0 0 1 -0.5,-0.5 V 193.65 h -32.9 l -44.05,102.92 v 24.13 h 50.22 a 0.5,0.5 0 0 1 0.5,0.5 z m -0.5,-63.76 h -26.39 a 0.49,0.49 0 0 1 -0.41,-0.21 0.51,0.51 0 0 1 -0.06,-0.45 l 26.41,-73.77 a 0.5,0.5 0 0 1 0.56,-0.33 0.49,0.49 0 0 1 0.41,0.49 v 73.77 a 0.5,0.5 0 0 1 -0.5,0.5 z m -25.7,-1 h 25.2 v -70.39 z"
       style="fill:#263238"
       id="path33" />
  </g>
  <g
     id="freepik--Text--inject-106"
     style="display:inline">
    <path
       d="m 108.52,184.94 a 10.57,10.57 0 0 1 -5.63,-1.31 7.37,7.37 0 0 1 -3,-3.78 A 17,17 0 0 1 99,174 v -12.43 a 16.49,16.49 0 0 1 0.9,-5.77 7.14,7.14 0 0 1 3,-3.67 13.15,13.15 0 0 1 11.32,0 7.24,7.24 0 0 1 3,3.67 16.24,16.24 0 0 1 0.92,5.77 v 12.49 a 16.43,16.43 0 0 1 -0.92,5.77 7.55,7.55 0 0 1 -3,3.78 10.46,10.46 0 0 1 -5.7,1.33 z m 0,-4.47 a 3.24,3.24 0 0 0 2.24,-0.66 3.27,3.27 0 0 0 1,-1.81 11.58,11.58 0 0 0 0.25,-2.5 v -15.32 a 11.29,11.29 0 0 0 -0.25,-2.51 3.1,3.1 0 0 0 -1,-1.74 3.29,3.29 0 0 0 -2.24,-0.64 3.24,3.24 0 0 0 -2.18,0.64 3.07,3.07 0 0 0 -1,1.74 11.29,11.29 0 0 0 -0.25,2.51 v 15.32 a 13,13 0 0 0 0.23,2.5 3.15,3.15 0 0 0 1,1.81 3.24,3.24 0 0 0 2.2,0.66 z"
       style="fill:#263238"
       id="path34" />
    <path
       d="m 131.64,184.94 a 10.53,10.53 0 0 1 -5.62,-1.31 7.27,7.27 0 0 1 -3,-3.78 16.76,16.76 0 0 1 -0.91,-5.83 v -12.45 a 16.25,16.25 0 0 1 0.91,-5.77 7,7 0 0 1 3,-3.67 13.13,13.13 0 0 1 11.31,0 7.24,7.24 0 0 1 3,3.67 16.24,16.24 0 0 1 0.92,5.77 v 12.49 a 16.43,16.43 0 0 1 -0.92,5.77 7.55,7.55 0 0 1 -3,3.78 10.44,10.44 0 0 1 -5.69,1.33 z m 0,-4.47 a 3.24,3.24 0 0 0 2.24,-0.66 3.35,3.35 0 0 0 1,-1.81 12.26,12.26 0 0 0 0.24,-2.5 v -15.32 a 12,12 0 0 0 -0.24,-2.51 3.17,3.17 0 0 0 -1,-1.74 3.29,3.29 0 0 0 -2.24,-0.64 3.2,3.2 0 0 0 -2.17,0.64 3,3 0 0 0 -1,1.74 11.91,11.91 0 0 0 -0.25,2.51 v 15.32 a 13,13 0 0 0 0.23,2.5 3.15,3.15 0 0 0 1,1.81 3.27,3.27 0 0 0 2.19,0.66 z"
       style="fill:#263238"
       id="path35" />
    <path
       d="m 145.73,184.49 v -33.27 h 9.77 a 9.46,9.46 0 0 1 4.87,1.11 6.58,6.58 0 0 1 2.75,3.23 13.21,13.21 0 0 1 0.88,5.11 10.76,10.76 0 0 1 -1.1,5.24 6.66,6.66 0 0 1 -3.1,2.89 11.37,11.37 0 0 1 -4.71,0.9 h -3.28 v 14.79 z m 6.08,-19.06 h 2.3 a 5.62,5.62 0 0 0 2.56,-0.47 2.53,2.53 0 0 0 1.28,-1.52 9.22,9.22 0 0 0 0.35,-2.81 13,13 0 0 0 -0.27,-2.94 2.51,2.51 0 0 0 -1.15,-1.66 5.47,5.47 0 0 0 -2.77,-0.54 h -2.3 z"
       style="fill:#263238"
       id="path36" />
    <path
       d="m 175.59,184.94 a 9.83,9.83 0 0 1 -5,-1.17 7.29,7.29 0 0 1 -3,-3.43 14.53,14.53 0 0 1 -1.15,-5.54 l 5.21,-1 a 15.82,15.82 0 0 0 0.48,3.41 4.84,4.84 0 0 0 1.19,2.28 2.85,2.85 0 0 0 2.11,0.8 2.37,2.37 0 0 0 2.1,-0.88 3.84,3.84 0 0 0 0.61,-2.24 6.09,6.09 0 0 0 -1,-3.57 15.37,15.37 0 0 0 -2.63,-2.8 l -4.19,-3.69 a 12.57,12.57 0 0 1 -2.81,-3.39 9.34,9.34 0 0 1 -1,-4.62 7.86,7.86 0 0 1 2.3,-6.08 8.89,8.89 0 0 1 6.28,-2.14 9.3,9.3 0 0 1 3.9,0.72 6.33,6.33 0 0 1 2.49,2 9.13,9.13 0 0 1 1.37,2.9 16.94,16.94 0 0 1 0.58,3.43 l -5.18,0.9 a 18,18 0 0 0 -0.34,-2.79 3.94,3.94 0 0 0 -1,-1.93 2.64,2.64 0 0 0 -2,-0.7 2.56,2.56 0 0 0 -2.08,0.88 3.44,3.44 0 0 0 -0.71,2.2 5.08,5.08 0 0 0 0.69,2.77 10.66,10.66 0 0 0 2,2.24 l 4.14,3.66 a 17.5,17.5 0 0 1 3.52,4 10.36,10.36 0 0 1 1.45,5.61 8.5,8.5 0 0 1 -1,4.23 7.44,7.44 0 0 1 -2.92,2.89 8.78,8.78 0 0 1 -4.41,1.05 z"
       style="fill:#263238"
       id="path37" />
    <path
       d="m 186.63,184.49 v -5.42 h 5.43 v 5.42 z m 1.73,-7.8 -1.68,-25.43 h 5.58 l -2,25.43 z"
       style="fill:#263238"
       id="path38" />
  </g>
  <g
     id="freepik--Suitcase--inject-106"
     style="display:none">
    <path
       d="m 336.19,383.5 v 7.15 h 3.73 v -4.19 a 3.33,3.33 0 0 1 3.33,-3.33 h 12.22 a 3.33,3.33 0 0 1 3.33,3.33 v 4.19 h 3.73 v -7.15 a 3.34,3.34 0 0 0 -3.34,-3.33 h -19.67 a 3.33,3.33 0 0 0 -3.33,3.33 z"
       style="fill:#263238"
       id="path39" />
    <path
       d="m 362.53,391.15 h -3.73 a 0.5,0.5 0 0 1 -0.5,-0.5 v -4.19 a 2.83,2.83 0 0 0 -2.83,-2.83 h -12.22 a 2.83,2.83 0 0 0 -2.83,2.83 v 4.19 a 0.5,0.5 0 0 1 -0.5,0.5 h -3.73 a 0.5,0.5 0 0 1 -0.5,-0.5 v -7.15 a 3.84,3.84 0 0 1 3.83,-3.83 h 19.68 a 3.84,3.84 0 0 1 3.8,3.83 v 7.15 a 0.5,0.5 0 0 1 -0.47,0.5 z m -3.23,-1 h 2.7 v -6.65 a 2.83,2.83 0 0 0 -2.83,-2.83 h -19.65 a 2.83,2.83 0 0 0 -2.83,2.83 v 6.65 h 2.73 v -3.69 a 3.82,3.82 0 0 1 3.83,-3.83 h 12.22 a 3.83,3.83 0 0 1 3.83,3.83 z"
       style="fill:#263238"
       id="path40" />
    <path
       d="m 304.92,388.7 h 70.54 a 4.7,4.7 0 0 1 4.7,4.7 v 56.7 a 3,3 0 0 1 -3,3 h -73.92 a 3,3 0 0 1 -3,-3 v -56.7 a 4.7,4.7 0 0 1 4.68,-4.7 z"
       style="fill:#263238"
       id="path41" />
    <path
       d="m 377.13,453.63 h -73.89 a 3.53,3.53 0 0 1 -3.52,-3.53 v -56.7 a 5.21,5.21 0 0 1 5.2,-5.2 h 70.54 a 5.21,5.21 0 0 1 5.2,5.2 v 56.7 a 3.53,3.53 0 0 1 -3.53,3.53 z M 304.92,389.2 a 4.21,4.21 0 0 0 -4.2,4.2 v 56.7 a 2.53,2.53 0 0 0 2.52,2.53 h 73.89 a 2.54,2.54 0 0 0 2.53,-2.53 v -56.7 a 4.21,4.21 0 0 0 -4.2,-4.2 z"
       style="fill:#263238"
       id="path42" />
    <path
       d="m 314.69,388.7 h 70.54 a 4.7,4.7 0 0 1 4.7,4.7 v 56.7 a 3,3 0 0 1 -3,3 H 313 a 3,3 0 0 1 -3,-3 v -56.7 a 4.7,4.7 0 0 1 4.69,-4.7 z"
       style="fill:#8a8a8a"
       id="path43" />
    <path
       d="M 386.91,453.63 H 313 a 3.53,3.53 0 0 1 -3.53,-3.53 v -56.7 a 5.22,5.22 0 0 1 5.2,-5.2 h 70.54 a 5.22,5.22 0 0 1 5.21,5.2 v 56.7 a 3.54,3.54 0 0 1 -3.51,3.53 z M 314.69,389.2 a 4.21,4.21 0 0 0 -4.2,4.2 v 56.7 a 2.54,2.54 0 0 0 2.53,2.53 h 73.89 a 2.54,2.54 0 0 0 2.53,-2.53 v -56.7 a 4.21,4.21 0 0 0 -4.21,-4.2 z"
       style="fill:#263238"
       id="path44" />
  </g>
  <g
     id="freepik--Character--inject-106"
     style="display:none">
    <path
       d="m 410,262.16 c 0,0 -20.1,60.4 -21.84,71.33 -1.74,10.93 -0.62,24.51 0.42,31.38 1.04,6.87 11.75,66.18 11.75,66.18 0,0 -2.65,-0.9 -2.84,1 -0.19,1.9 0.47,10 0.47,10 0,0 -2.77,3.89 -10.08,8.12 -7.31,4.23 -10.87,5.51 -8.69,6.9 2.18,1.39 11.52,1.88 15.33,1.31 3.81,-0.57 14.06,-1.76 15.73,-2 1.67,-0.24 6.71,0.8 8.32,-2.11 1.61,-2.91 0.44,-11.72 0.84,-14.84 0.4,-3.12 -1.86,-8.08 -1.87,-8.8 -0.01,-0.72 -2,-67.75 -2,-67.75 l 1.26,-16.65 c 0,0 -0.37,15.86 1.45,17.62 1.82,1.76 20.85,67.95 20.85,67.95 l -1.85,2.91 2.3,6.4 -1.81,4.11 c 0,0 -8.66,8.09 -12.2,10.09 -3.54,2 -7.11,2.55 -5.16,4.18 1.95,1.63 21.05,0.7 21.05,0.7 l 20,-4.05 c 0,0 3,-3.42 2.48,-6.28 -0.52,-2.86 -3.17,-13.07 -3.17,-13.07 0,0 0.64,-13.4 -0.09,-13.86 -0.73,-0.46 -4.43,-5.39 -4.71,-7.3 -0.28,-1.91 -2.36,-39.34 -4.56,-45.63 -2.2,-6.29 -4.93,-16.14 -4.93,-16.14 a 6.08,6.08 0 0 0 1.65,-3.25 30,30 0 0 0 -0.39,-4.77 c 0,0 20.87,-54.3 21.82,-57.4 0.95,-3.1 5.26,-19.84 5.26,-26.53 0,-6.69 -0.48,-11.71 -0.48,-11.71 0,0 -16.25,7.41 -32.74,8.13 -16.49,0.72 -31.06,-0.24 -31.06,-0.24 z"
       style="fill:#263238"
       id="path45" />
    <path
       d="m 430.74,461 c -4.86,0 -9.67,-0.24 -10.7,-1.1 a 1.64,1.64 0 0 1 -0.72,-1.38 c 0.13,-0.91 1.28,-1.42 3,-2.2 0.9,-0.4 1.92,-0.85 2.93,-1.42 3.27,-1.85 11.17,-9.15 12,-9.95 l 1.75,-3.85 -2.23,-6.21 a 0.5,0.5 0 0 1 0.05,-0.43 l 1.72,-2.73 c -7.56,-26.32 -19.26,-65.87 -20.65,-67.52 -0.8,-0.77 -1.22,-3.67 -1.44,-6.94 l -0.43,5.66 c 0.09,2.68 2,67 2,67.7 a 11.85,11.85 0 0 0 0.41,1.34 c 0.66,1.94 1.77,5.19 1.46,7.54 a 38.75,38.75 0 0 0 0,4.81 c 0.11,3.84 0.23,8.2 -0.87,10.2 -1.36,2.46 -4.77,2.38 -7,2.33 a 11.89,11.89 0 0 0 -1.66,0 c -0.78,0.13 -3.4,0.46 -6.43,0.84 -3.41,0.42 -7.28,0.9 -9.31,1.21 -3.91,0.58 -13.31,0.1 -15.66,-1.39 a 1.58,1.58 0 0 1 -0.87,-1.28 c 0,-1.15 1.74,-2.09 5.47,-4.17 1.19,-0.65 2.56,-1.41 4.1,-2.3 6.34,-3.68 9.25,-7.12 9.82,-7.84 -0.1,-1.27 -0.64,-8.14 -0.46,-9.93 a 1.73,1.73 0 0 1 0.78,-1.35 2.85,2.85 0 0 1 1.94,-0.28 c -1.25,-6.9 -10.65,-59.07 -11.62,-65.45 -1.23,-8.06 -2.07,-21.15 -0.43,-31.53 1.72,-10.78 20.82,-68.27 21.85,-71.36 l 0.47,-4 a 0.49,0.49 0 0 1 0.53,-0.44 c 0.15,0 14.74,0.95 31,0.24 16.26,-0.71 32.39,-8 32.56,-8.08 a 0.5,0.5 0 0 1 0.7,0.4 c 0,0.05 0.48,5.12 0.48,11.76 0,6.64 -4.2,23.16 -5.28,26.67 -0.93,3.05 -20.41,53.75 -21.78,57.32 a 28.33,28.33 0 0 1 0.37,4.74 A 6.2,6.2 0 0 1 447,354 c 0.45,1.62 2.88,10.21 4.84,15.84 1.72,4.93 3.35,28.45 4.13,39.75 0.23,3.23 0.39,5.56 0.45,6 0.26,1.76 3.93,6.6 4.49,6.95 0.26,0.17 1,0.61 0.32,14.23 0.25,1 2.64,10.29 3.16,13 0.59,3.06 -2.47,6.55 -2.6,6.7 a 0.5,0.5 0 0 1 -0.27,0.16 l -20,4.05 c -1.6,0.09 -6.22,0.32 -10.78,0.32 z m 7.05,-26.2 2.21,6.2 a 0.5,0.5 0 0 1 0,0.38 l -1.82,4.1 a 0.36,0.36 0 0 1 -0.11,0.16 c -0.36,0.34 -8.74,8.16 -12.29,10.16 a 32.62,32.62 0 0 1 -3,1.46 c -1.07,0.48 -2.4,1.07 -2.45,1.43 0,0.05 0.06,0.22 0.37,0.48 1.31,1.09 13.4,0.94 20.71,0.58 l 19.74,-4 c 0.51,-0.62 2.7,-3.43 2.26,-5.72 -0.54,-2.81 -3.14,-12.94 -3.17,-13 a 0.38,0.38 0 0 1 0,-0.15 c 0.28,-6 0.38,-12.57 0.05,-13.49 -1,-0.8 -4.55,-5.57 -4.85,-7.58 -0.06,-0.45 -0.22,-2.68 -0.45,-6 -0.78,-11.26 -2.41,-34.69 -4.08,-39.49 -2.18,-6.23 -4.91,-16.07 -4.94,-16.17 a 0.48,0.48 0 0 1 0.13,-0.48 5.68,5.68 0 0 0 1.51,-2.93 30.74,30.74 0 0 0 -0.39,-4.66 0.47,0.47 0 0 1 0,-0.26 c 0.21,-0.54 20.88,-54.32 21.82,-57.37 1.07,-3.49 5.23,-19.92 5.23,-26.38 0,-5.17 -0.29,-9.38 -0.42,-11 -3.19,1.37 -17.72,7.25 -32.27,7.89 -14.55,0.64 -28,-0.06 -30.65,-0.21 l -0.42,3.59 c 0,0 0,0.07 0,0.1 -0.21,0.6 -20.12,60.48 -21.83,71.25 -1.63,10.26 -0.79,23.23 0.43,31.22 1,6.78 11.64,65.57 11.75,66.17 a 0.5,0.5 0 0 1 -0.17,0.46 0.49,0.49 0 0 1 -0.49,0.1 2.69,2.69 0 0 0 -1.86,0 0.72,0.72 0 0 0 -0.32,0.61 c -0.19,1.85 0.47,9.85 0.47,9.94 a 0.5,0.5 0 0 1 -0.09,0.33 c -0.11,0.16 -2.92,4 -10.24,8.26 -1.55,0.9 -2.92,1.66 -4.11,2.32 -2.66,1.47 -4.95,2.74 -5,3.32 0,0.07 0.1,0.21 0.4,0.4 2,1.25 11,1.84 15,1.25 2,-0.31 5.91,-0.79 9.33,-1.21 3,-0.38 5.62,-0.71 6.39,-0.83 a 10.39,10.39 0 0 1 1.84,0 c 2.14,0 5.06,0.12 6.12,-1.81 1,-1.76 0.85,-6.16 0.75,-9.7 a 37,37 0 0 1 0,-5 c 0.27,-2.12 -0.78,-5.23 -1.42,-7.09 A 6.85,6.85 0 0 1 417,430.79 c 0,-0.7 -2,-67.08 -2,-67.75 l 1.26,-16.7 a 0.5,0.5 0 0 1 0.53,-0.46 0.49,0.49 0 0 1 0.47,0.51 c -0.14,6.05 0.09,16.08 1.3,17.25 1.87,1.81 19,61.39 21,68.17 a 0.58,0.58 0 0 1 -0.06,0.41 z m 22.56,-11.42 z M 410,262.16 Z"
       style="fill:#263238"
       id="path46" />
    <path
       d="m 468.07,284.17 a 0.39,0.39 0 0 1 -0.18,0 c -8.35,-3.19 -8.44,-19.14 -8.44,-19.82 a 0.5,0.5 0 0 1 0.5,-0.5 0.5,0.5 0 0 1 0.5,0.5 c 0,0.16 0.09,15.94 7.8,18.89 a 0.5,0.5 0 0 1 0.29,0.65 0.52,0.52 0 0 1 -0.47,0.28 z"
       style="fill:#ffffff"
       id="path47" />
    <path
       d="m 470,280.82 h -0.11 a 0.5,0.5 0 0 1 -0.38,-0.6 92.65,92.65 0 0 0 1.66,-20.66 0.51,0.51 0 0 1 0.48,-0.52 0.5,0.5 0 0 1 0.52,0.48 94.31,94.31 0 0 1 -1.68,20.92 0.5,0.5 0 0 1 -0.49,0.38 z"
       style="fill:#ffffff"
       id="path48" />
    <path
       d="m 452.06,318.57 h -0.13 a 0.5,0.5 0 0 1 -0.36,-0.59 c 0,-0.14 0.12,-0.48 4.05,-8.83 a 0.5,0.5 0 1 1 0.9,0.42 c -3.32,7.09 -3.92,8.47 -4,8.66 a 0.5,0.5 0 0 1 -0.46,0.34 z"
       style="fill:#ffffff"
       id="path49" />
    <path
       d="m 457.42,307 a 0.41,0.41 0 0 1 -0.21,-0.05 0.49,0.49 0 0 1 -0.24,-0.66 c 4.24,-9 9.45,-19.94 9.45,-19.94 l 0.91,0.43 c 0,0 -5.22,10.94 -9.46,19.93 a 0.48,0.48 0 0 1 -0.45,0.29 z"
       style="fill:#ffffff"
       id="path50" />
    <path
       d="m 418.86,331.79 h -0.11 a 0.49,0.49 0 0 1 -0.37,-0.6 l 8.75,-37.54 -9.13,-7.93 a 0.51,0.51 0 0 1 0,-0.72 0.49,0.49 0 0 1 0.7,-0.05 l 9.32,8.13 a 0.5,0.5 0 0 1 0.16,0.49 l -8.82,37.83 a 0.49,0.49 0 0 1 -0.5,0.39 z"
       style="fill:#ffffff"
       id="path51" />
    <path
       d="m 417,340 h -0.11 a 0.5,0.5 0 0 1 -0.38,-0.6 l 0.92,-3.93 a 0.49,0.49 0 0 1 0.6,-0.37 0.5,0.5 0 0 1 0.37,0.6 l -0.91,3.93 A 0.5,0.5 0 0 1 417,340 Z"
       style="fill:#ffffff"
       id="path52" />
    <path
       d="M 371.07,175.6 347.14,186 c 0,0 14.28,-29.7 14.86,-31.44 0.58,-1.74 -7.91,-16.4 -7.72,-17 0.19,-0.6 7.53,-9.46 7.72,-11.39 0.19,-1.93 4.25,-8.68 1.16,-9.07 -3.09,-0.39 -19.49,14.9 -19.88,18.74 -0.39,3.84 7.33,17 8.11,18.14 0.78,1.14 -39.76,44.58 -40.53,51.53 -0.77,6.95 2.51,11.39 8.3,12.16 5.79,0.77 51.33,-14.86 58.28,-16.79 6.95,-1.93 9.26,1.12 9.26,1.12 0,0 21.81,26.44 23.36,29.72 1.55,3.28 0.77,15.44 -1,19.1 -1.77,3.66 -3.67,10 -2.7,11 a 8,8 0 0 0 4.57,2.93 c 2.89,0.77 23,3.25 34.41,1.51 11.41,-1.74 24.9,-7.72 28,-10 3.1,-2.28 3.47,-5 3.47,-8.5 0,-3.5 -2.32,-6.56 -3.86,-10 -1.54,-3.44 -11.77,-35.32 -16,-45.55 -4.23,-10.23 -2.89,-17.94 -18.91,-27 C 422.02,156.15 403.23,158 403.23,158 Z"
       style="fill:#b9ff66"
       id="path53" />
    <path
       d="m 435.58,267.4 c -10.52,0 -22.33,-1.48 -24.75,-2.13 a 7.93,7.93 0 0 1 -4.38,-2.61 c -0.14,-0.15 -0.27,-0.3 -0.41,-0.44 -1.39,-1.39 1.26,-8.74 2.6,-11.57 1.74,-3.67 2.36,-15.72 1,-18.68 -1.5,-3.19 -23.06,-29.35 -23.28,-29.62 0,0 -2.27,-2.79 -8.75,-1 -1.77,0.49 -6.12,1.9 -11.64,3.68 -21.46,6.94 -42.76,13.66 -46.84,13.12 -6.16,-0.82 -9.51,-5.69 -8.73,-12.71 0.47,-4.2 13.3,-19.36 28.76,-37.27 5.71,-6.61 11.1,-12.86 11.73,-14.1 -1.21,-1.94 -8.46,-14.36 -8.07,-18.29 0.3,-2.94 8.31,-11 13.93,-15.48 3.23,-2.58 5.42,-3.82 6.51,-3.68 a 1.66,1.66 0 0 1 1.31,0.8 c 0.79,1.34 -0.25,3.95 -1.16,6.25 a 13.89,13.89 0 0 0 -0.87,2.56 c -0.14,1.37 -2.94,5.14 -6.05,9.22 -0.7,0.92 -1.42,1.86 -1.64,2.2 0.2,0.59 1.28,2.65 2.32,4.66 3.92,7.52 5.71,11.29 5.35,12.4 -0.53,1.56 -11.59,24.63 -14.31,30.3 l 22.68,-9.87 32.11,-17.57 a 0.7,0.7 0 0 1 0.19,-0.06 c 0.19,0 19.13,-1.81 35.11,7.23 12.64,7.16 14.61,13.5 16.89,20.84 0.64,2.06 1.3,4.18 2.23,6.42 2.53,6.09 7.13,19.7 10.83,30.64 2.45,7.25 4.57,13.51 5.19,14.9 0.42,1 0.91,1.89 1.39,2.8 1.29,2.47 2.51,4.81 2.51,7.43 0,3.24 -0.28,6.35 -3.67,8.9 -3.39,2.55 -16.94,8.41 -28.21,10.13 a 68.82,68.82 0 0 1 -9.88,0.6 z m -53.92,-67.66 c 3.89,0 5.37,1.89 5.44,2 0.88,1.06 21.86,26.5 23.41,29.8 1.66,3.53 0.79,15.83 -1,19.54 -2,4.21 -3.37,9.81 -2.8,10.43 l 0.45,0.47 a 7,7 0 0 0 3.9,2.33 c 2.51,0.67 22.58,3.27 34.21,1.5 11.33,-1.73 24.84,-7.76 27.76,-9.94 2.76,-2.08 3.27,-4.36 3.27,-8.1 0,-2.38 -1.16,-4.61 -2.4,-7 -0.48,-0.92 -1,-1.87 -1.42,-2.86 -0.63,-1.43 -2.66,-7.41 -5.22,-15 -3.69,-10.92 -8.29,-24.52 -10.8,-30.57 -0.95,-2.29 -1.62,-4.44 -2.26,-6.51 -2.22,-7.14 -4.14,-13.3 -16.44,-20.27 -15.09,-8.55 -32.92,-7.24 -34.41,-7.11 L 371.31,176 v 0 l -23.93,10.42 a 0.5,0.5 0 0 1 -0.56,-0.12 0.5,0.5 0 0 1 -0.09,-0.56 c 4.94,-10.27 14.39,-30.05 14.84,-31.4 0.24,-1 -3.36,-7.91 -5.29,-11.62 -2.41,-4.64 -2.55,-5 -2.43,-5.36 a 18.14,18.14 0 0 1 1.84,-2.57 c 1.86,-2.44 5.73,-7.51 5.85,-8.71 a 13.83,13.83 0 0 1 0.94,-2.83 c 0.71,-1.77 1.77,-4.46 1.23,-5.37 a 0.66,0.66 0 0 0 -0.57,-0.32 c -0.58,-0.08 -2.41,0.8 -5.77,3.48 -5.91,4.71 -13.32,12.46 -13.55,14.79 -0.35,3.51 6.85,16.06 8,17.81 0.42,0.63 0.12,1.19 -11.92,15.13 -11.17,12.94 -28.05,32.5 -28.52,36.73 -0.73,6.52 2.21,10.86 7.86,11.61 4.19,0.58 30.62,-8 46.41,-13.08 5.52,-1.79 9.88,-3.19 11.68,-3.69 a 16,16 0 0 1 4.33,-0.6 z M 371.07,175.6 Z"
       style="fill:#263238"
       id="path54" />
    <path
       d="m 346,204.08 v 0 a 0.51,0.51 0 0 1 -0.47,-0.53 l 0.2,-3 a 0.49,0.49 0 0 1 0.53,-0.47 0.5,0.5 0 0 1 0.47,0.54 l -0.2,3 a 0.5,0.5 0 0 1 -0.53,0.46 z"
       style="fill:#263238"
       id="path55" />
    <path
       d="m 341,205.82 a 0.45,0.45 0 0 1 -0.16,0 0.5,0.5 0 0 1 -0.32,-0.63 l 6.17,-19.29 a 0.5,0.5 0 0 1 0.57,-0.34 0.49,0.49 0 0 1 0.41,0.52 l -0.81,12.29 a 0.51,0.51 0 0 1 -0.53,0.46 0.5,0.5 0 0 1 -0.47,-0.53 l 0.54,-8.21 -4.93,15.41 a 0.5,0.5 0 0 1 -0.47,0.32 z"
       style="fill:#263238"
       id="path56" />
    <path
       d="m 350.81,177.06 v 0 c -9.77,-0.4 -10.89,-8.08 -10.9,-8.15 a 0.5042073,0.5042073 0 0 1 1,-0.13 c 0,0.28 1.05,6.92 9.95,7.28 a 0.51,0.51 0 0 1 0.48,0.52 0.5,0.5 0 0 1 -0.53,0.48 z"
       style="fill:#263238"
       id="path57" />
    <path
       d="m 384.58,200.3 a 67,67 0 0 0 -14.09,-7"
       style="fill:#ffffff"
       id="path58" />
    <path
       d="m 384.58,200.8 a 0.6,0.6 0 0 1 -0.28,-0.08 66,66 0 0 0 -14,-6.89 0.5,0.5 0 0 1 -0.32,-0.63 0.49,0.49 0 0 1 0.63,-0.32 68.44,68.44 0 0 1 14.21,7 0.51,0.51 0 0 1 0.14,0.7 0.52,0.52 0 0 1 -0.38,0.22 z"
       style="fill:#263238"
       id="path59" />
    <path
       d="m 368.39,196.34 h -0.09 c -0.76,-0.13 -1.54,-0.25 -2.32,-0.36 a 0.50487622,0.50487622 0 0 1 0.14,-1 c 0.79,0.11 1.57,0.23 2.35,0.37 a 0.50159745,0.50159745 0 0 1 -0.08,1 z"
       style="fill:#263238"
       id="path60" />
    <path
       d="m 382.07,199.45 h -0.14 c -0.05,0 -5,-1.45 -10.93,-2.61 a 0.48,0.48 0 0 1 -0.39,-0.58 0.5,0.5 0 0 1 0.58,-0.4 c 6,1.17 11,2.61 11,2.63 a 0.50487622,0.50487622 0 0 1 -0.14,1 z"
       style="fill:#263238"
       id="path61" />
    <path
       d="m 418.74,239.78 c -0.22,0 -0.44,-0.07 -1.61,-1 a 0.49,0.49 0 0 1 -0.06,-0.7 0.5,0.5 0 0 1 0.7,-0.07 6.58,6.58 0 0 0 1.08,0.81 0.5,0.5 0 0 1 0.39,0.49 0.5,0.5 0 0 1 -0.5,0.47 z"
       style="fill:#263238"
       id="path62" />
    <path
       d="m 416,237.64 a 0.54,0.54 0 0 1 -0.33,-0.12 c -2.53,-2.21 -5.93,-5.37 -6,-5.4 a 0.48,0.48 0 0 1 0,-0.7 0.5,0.5 0 0 1 0.71,0 c 0,0 3.42,3.18 5.94,5.38 a 0.49,0.49 0 0 1 0.05,0.7 0.52,0.52 0 0 1 -0.37,0.14 z"
       style="fill:#263238"
       id="path63" />
    <path
       d="m 451.74,265.64 a 0.49,0.49 0 0 1 -0.42,-0.23 0.5,0.5 0 0 1 0.15,-0.69 l 17.18,-10.81 a 0.51,0.51 0 0 1 0.69,0.16 0.49,0.49 0 0 1 -0.16,0.69 L 452,265.57 a 0.54,0.54 0 0 1 -0.26,0.07 z"
       style="fill:#263238"
       id="path64" />
    <path
       d="m 451.36,251.17 a 0.52,0.52 0 0 1 -0.29,-0.09 0.51,0.51 0 0 1 -0.13,-0.7 c 4.47,-6.43 8.25,-20 10.1,-27.49 a 0.51419841,0.51419841 0 0 1 1,0.24 c -1.87,7.57 -5.68,21.25 -10.24,27.82 a 0.52,0.52 0 0 1 -0.44,0.22 z"
       style="fill:#263238"
       id="path65" />
    <path
       d="m 462.24,220.53 h -0.11 a 0.5,0.5 0 0 1 -0.38,-0.6 c 0.45,-1.93 0.69,-3.11 0.7,-3.11 a 0.50990195,0.50990195 0 1 1 1,0.2 c 0,0 -0.24,1.19 -0.69,3.14 a 0.51,0.51 0 0 1 -0.52,0.37 z"
       style="fill:#263238"
       id="path66" />
    <path
       d="m 456.37,248.08 a 0.45,0.45 0 0 1 -0.27,-0.08 0.5,0.5 0 0 1 -0.15,-0.69 c 2.82,-4.31 6.46,-20.14 6.5,-20.3 a 0.51305458,0.51305458 0 1 1 1,0.23 c -0.15,0.65 -3.72,16.15 -6.63,20.61 a 0.48,0.48 0 0 1 -0.45,0.23 z"
       style="fill:#263238"
       id="path67" />
    <path
       d="m 357.2,165 c 2.52,-5.34 4.59,-9.76 4.8,-10.4 0.58,-1.74 -7.91,-16.4 -7.72,-17 0.19,-0.6 7.53,-9.46 7.72,-11.39 0.19,-1.93 4.25,-8.68 1.16,-9.07 -3.09,-0.39 -19.49,14.86 -19.88,18.7 -0.39,3.84 7.33,17 8.11,18.14 0.16,0.25 -1.53,2.38 -4.28,5.66 1.07,2.62 3.69,5.94 10.09,5.36 z"
       style="fill:#ffffff"
       id="path68" />
    <path
       d="m 355.71,165.53 c -5.81,0 -8.16,-3.5 -9.07,-5.7 a 0.5,0.5 0 0 1 0.08,-0.51 47.6,47.6 0 0 0 4.13,-5.24 c -1.22,-2 -8.46,-14.36 -8.07,-18.29 0.3,-2.94 8.31,-11 13.93,-15.48 3.23,-2.58 5.42,-3.82 6.51,-3.68 a 1.66,1.66 0 0 1 1.31,0.8 c 0.79,1.34 -0.25,3.95 -1.16,6.25 a 13.89,13.89 0 0 0 -0.87,2.56 c -0.14,1.37 -2.94,5.14 -6.05,9.22 -0.7,0.92 -1.42,1.86 -1.64,2.2 0.2,0.59 1.28,2.65 2.32,4.66 3.92,7.52 5.71,11.29 5.35,12.4 -0.08,0.21 -0.29,0.87 -4.83,10.45 a 0.52,0.52 0 0 1 -0.41,0.29 c -0.53,0.05 -1.05,0.07 -1.53,0.07 z m 1.49,-0.57 z m -9.51,-5.24 c 1.11,2.5 3.59,5.21 9.18,4.77 3.62,-7.67 4.54,-9.72 4.66,-10.09 0.24,-1 -3.36,-7.91 -5.29,-11.62 -2.41,-4.64 -2.55,-5 -2.43,-5.36 a 18.14,18.14 0 0 1 1.84,-2.57 c 1.86,-2.44 5.73,-7.51 5.85,-8.71 a 13.83,13.83 0 0 1 0.94,-2.83 c 0.71,-1.77 1.77,-4.46 1.23,-5.37 a 0.66,0.66 0 0 0 -0.57,-0.32 c -0.58,-0.08 -2.41,0.8 -5.77,3.48 -5.91,4.71 -13.32,12.46 -13.55,14.79 -0.35,3.51 6.85,16.06 8,17.81 0.3,0.42 0.44,0.63 -4.09,6.02 z"
       style="fill:#263238"
       id="path69" />
    <path
       d="m 349.2,137.86 a 0.54,0.54 0 0 1 -0.51,-0.42 c -0.15,-0.59 1.43,-4.1 4.7,-10.43 a 0.50092415,0.50092415 0 1 1 0.89,0.46 c -2.23,4.31 -4.56,9.16 -4.61,9.81 a 0.46,0.46 0 0 1 -0.37,0.57 z"
       style="fill:#263238"
       id="path70" />
    <path
       d="m 345.09,136.94 a 0.51,0.51 0 0 1 -0.49,-0.37 c -0.38,-1.33 3.53,-7.09 5.23,-9.5 a 0.51,0.51 0 0 1 0.7,-0.13 0.5,0.5 0 0 1 0.12,0.7 c -2.52,3.57 -5.18,7.9 -5.08,8.67 a 0.5,0.5 0 0 1 -0.35,0.61 z"
       style="fill:#263238"
       id="path71" />
    <polygon
       points="399.44,213.04 403.11,213.23 406.2,195.67 403.69,191.62 401.95,202.62 397.32,202.42 391.92,194.32 391.72,197.4 "
       style="fill:#8a8a8a"
       id="polygon71" />
    <path
       d="m 403.11,213.73 v 0 l -3.66,-0.19 a 0.51,0.51 0 0 1 -0.43,-0.28 l -7.72,-15.63 a 0.58,0.58 0 0 1 0,-0.26 l 0.2,-3.08 a 0.49,0.49 0 0 1 0.91,-0.25 l 5.26,7.89 3.94,0.17 1.66,-10.56 a 0.52,0.52 0 0 1 0.4,-0.42 0.49,0.49 0 0 1 0.52,0.23 l 2.51,4.05 a 0.49,0.49 0 0 1 0.07,0.35 l -3.09,17.57 a 0.49,0.49 0 0 1 -0.57,0.41 z m -3.35,-1.18 2.93,0.16 3,-16.94 -1.69,-2.77 -1.53,9.67 a 0.47,0.47 0 0 1 -0.51,0.42 l -4.63,-0.19 a 0.5,0.5 0 0 1 -0.4,-0.22 l -4.58,-6.87 -0.09,1.47 z"
       style="fill:#263238"
       id="path72" />
    <polygon
       points="393.04,259.63 400.44,275.19 408.37,259.02 403.11,213.23 399.44,213.04 "
       style="fill:#8a8a8a"
       id="polygon72" />
    <path
       d="m 400.44,275.69 v 0 a 0.49,0.49 0 0 1 -0.45,-0.29 l -7.4,-15.56 a 0.55,0.55 0 0 1 0,-0.28 L 399,213 a 0.5,0.5 0 0 1 0.52,-0.43 l 3.66,0.19 a 0.5,0.5 0 0 1 0.48,0.44 l 5.2,45.8 a 0.46,0.46 0 0 1 0,0.28 l -7.93,16.17 a 0.5,0.5 0 0 1 -0.49,0.24 z m -6.88,-16.14 6.89,14.45 7.4,-15.11 -5.19,-45.22 -2.79,-0.15 z"
       style="fill:#263238"
       id="path73" />
    <polygon
       points="404.21,206.94 406.05,196.52 402.56,198.73 401.95,202.62 397.32,202.42 397.15,202.18 394.81,203.67 398.29,210.71 "
       style="fill:#263238"
       id="polygon73" />
    <polygon
       points="403.12,213.18 403.04,213.23 403.11,213.23 "
       style="fill:#263238"
       id="polygon74" />
    <polygon
       points="396.84,231.97 395.45,242.12 405.68,235.6 404.69,226.97 "
       style="fill:#263238"
       id="polygon75" />
    <polygon
       points="403.11,213.23 403.04,213.23 399.07,215.75 397.68,225.9 404.09,221.82 "
       style="fill:#263238"
       id="polygon76" />
    <polygon
       points="394.62,248.18 393.22,258.33 407.26,249.39 406.27,240.76 "
       style="fill:#263238"
       id="polygon77" />
    <polygon
       points="408.37,259.02 407.86,254.55 394.63,262.97 398.01,270.08 405.19,265.51 "
       style="fill:#263238"
       id="polygon78" />
    <path
       d="m 386.32,179.46 c 0,0 -1.55,9.45 -1.35,13.7 0.2,4.25 2.31,11.77 2.31,11.77 l 9.46,-10.81 15.82,9.88 c 0,0 -0.56,-20.1 -0.56,-20.68 0,-0.58 -3.67,-22.2 -4.83,-24.32 a 6.33,6.33 0 0 0 -6,-2.9 c -1.73,0.39 -14.85,23.36 -14.85,23.36 z"
       style="fill:#b9ff66"
       id="path78" />
    <path
       d="m 387.28,205.43 h -0.11 a 0.5,0.5 0 0 1 -0.37,-0.35 c -0.09,-0.31 -2.14,-7.63 -2.33,-11.89 -0.19,-4.26 1.29,-13.42 1.36,-13.8 a 0.48,0.48 0 0 1 0.05,-0.17 c 4,-7 13.43,-23.2 15.19,-23.59 a 6.78,6.78 0 0 1 6.53,3.14 c 1.28,2.36 4.89,24.4 4.89,24.56 0,0.56 0.57,20.43 0.57,20.63 a 0.48,0.48 0 0 1 -0.25,0.45 0.49,0.49 0 0 1 -0.51,0 l -15.46,-9.62 -9.18,10.49 a 0.5,0.5 0 0 1 -0.38,0.15 z m -0.48,-25.8 c -0.16,1 -1.51,9.58 -1.33,13.51 a 64.1,64.1 0 0 0 2,10.76 l 8.84,-10.11 a 0.51,0.51 0 0 1 0.64,-0.09 l 15,9.35 c -0.12,-4 -0.55,-19.22 -0.55,-19.73 -0.07,-1.09 -3.72,-22.17 -4.77,-24.08 a 5.85,5.85 0 0 0 -5.43,-2.65 c -1.2,0.63 -9.48,14.41 -14.4,23.04 z"
       style="fill:#263238"
       id="path79" />
    <path
       d="m 359.66,126.74 c 0,0 -0.5,14.14 -0.17,19.79 0.33,5.65 -0.5,10.15 1,14.8 1.5,4.65 3.16,13.67 4.65,16.67 a 10.3,10.3 0 0 0 9.32,5.82 c 4.66,0 9.81,-3.83 12.31,-6.32 2.5,-2.49 6.82,-6 9.14,-10.48 2.32,-4.48 0.34,-15.8 0.67,-19 0.33,-3.2 1,-8.65 1,-8.65 0,0 3.32,-8.15 0.66,-12 -2.66,-3.85 -14.47,-8.15 -23.45,-7.31 a 27.82,27.82 0 0 0 -15.13,6.68 z"
       style="fill:#ffffff"
       id="path80" />
    <path
       d="m 374.46,184.29 a 10.75,10.75 0 0 1 -9.76,-6.1 c -0.92,-1.83 -1.88,-5.78 -2.81,-9.6 -0.63,-2.57 -1.27,-5.22 -1.88,-7.1 -1,-3.17 -1,-6.3 -0.95,-9.61 0,-1.69 0,-3.44 -0.07,-5.32 -0.33,-5.61 0.16,-19.7 0.17,-19.84 a 0.49,0.49 0 0 1 0.15,-0.34 28.07,28.07 0 0 1 15.44,-6.79 c 9,-0.84 21.12,3.53 23.9,7.53 2.78,4 -0.25,11.55 -0.58,12.38 -0.08,0.63 -0.68,5.65 -1,8.58 a 36.12,36.12 0 0 0 0.17,4.84 c 0.32,4.68 0.77,11.09 -0.89,14.3 -1.9,3.66 -5,6.61 -7.56,9 -0.61,0.57 -1.18,1.11 -1.68,1.61 -2.97,2.97 -8.11,6.46 -12.65,6.46 z M 360.15,127 c -0.06,1.78 -0.47,14.34 -0.16,19.53 0.11,1.92 0.09,3.68 0.07,5.39 0,3.37 -0.07,6.27 0.9,9.29 0.62,1.91 1.27,4.59 1.9,7.18 0.92,3.76 1.87,7.66 2.73,9.38 a 9.87,9.87 0 0 0 8.87,5.55 c 4.56,0 9.66,-3.88 12,-6.18 0.51,-0.5 1.09,-1.05 1.71,-1.63 2.46,-2.32 5.53,-5.21 7.35,-8.72 1.53,-3 1.1,-9.21 0.78,-13.78 a 36.84,36.84 0 0 1 -0.17,-5 c 0.33,-3.13 1,-8.61 1,-8.66 a 0.5,0.5 0 0 1 0,-0.13 c 0,-0.08 3.19,-7.94 0.71,-11.5 -2.63,-3.79 -14.25,-7.92 -23,-7.11 A 27.59,27.59 0 0 0 360.15,127 Z"
       style="fill:#263238"
       id="path81" />
    <path
       d="m 368.24,160.76 a 6.59,6.59 0 0 1 -2.71,-0.34 c -0.32,-0.22 -1.31,-0.88 2.75,-12.74 L 367,142.83 a 0.5153882,0.5153882 0 1 1 1,-0.25 l 1.33,5 a 0.57,0.57 0 0 1 0,0.29 c -1.74,5.06 -3.35,10.75 -3.12,11.76 0.8,0.3 5.08,0.09 8.75,-0.28 a 0.51,0.51 0 0 1 0.55,0.45 0.5,0.5 0 0 1 -0.45,0.54 c -1.31,0.12 -4.46,0.42 -6.82,0.42 z"
       style="fill:#263238"
       id="path82" />
    <path
       d="m 374,137.55 c 0,0 -0.17,1.83 0.5,2.16 0.67,0.33 7.15,2.83 8.15,2.5 1,-0.33 -0.33,-1.67 -1.17,-2 -0.84,-0.33 -7.85,-4.16 -7.48,-2.66 z"
       style="fill:#263238"
       id="path83" />
    <path
       d="m 382.4,142.73 c -1.9,0 -7.88,-2.43 -8.16,-2.57 -0.87,-0.43 -0.83,-2 -0.78,-2.59 a 0.71,0.71 0 0 1 0.26,-0.69 c 0.64,-0.5 2.24,0 6.82,2.33 l 1.09,0.54 c 0.65,0.26 1.86,1.2 1.83,2.07 a 0.92,0.92 0 0 1 -0.69,0.86 1.27,1.27 0 0 1 -0.37,0.05 z m -7.95,-5 a 2.64,2.64 0 0 0 0.23,1.56 c 1,0.5 7,2.68 7.78,2.47 a 2.74,2.74 0 0 0 -1.2,-1.06 c -0.17,-0.06 -0.6,-0.28 -1.17,-0.56 -1.18,-0.62 -4.61,-2.34 -5.64,-2.44 z"
       style="fill:#263238"
       id="path84" />
    <path
       d="m 367.47,140.21 c 0,0 -5.32,3 -6.32,3.16 -1,0.16 0.67,-2 0.67,-2 0,0 4,-4.49 5,-3.82 1,0.67 0.65,2.66 0.65,2.66 z"
       style="fill:#263238"
       id="path85" />
    <path
       d="m 361.05,143.88 a 0.7,0.7 0 0 1 -0.62,-0.33 c -0.11,-0.18 -0.4,-0.67 1,-2.48 2,-2.22 4.54,-4.69 5.67,-3.94 1.13,0.75 0.92,2.93 0.88,3.16 a 0.55,0.55 0 0 1 -0.25,0.36 c -0.9,0.5 -5.45,3 -6.49,3.21 z m 5.46,-5.92 c -0.51,0 -2.52,1.72 -4.32,3.75 a 9.24,9.24 0 0 0 -0.67,1 c 1.16,-0.46 3.75,-1.85 5.49,-2.82 0.05,-0.56 0,-1.6 -0.48,-1.93 z m 1,2.25 z"
       style="fill:#263238"
       id="path86" />
    <path
       d="m 379.69,148.91 a 6.16,6.16 0 0 1 -4.1,-1.7 0.50224496,0.50224496 0 0 1 0.73,-0.69 4.78,4.78 0 0 0 6,0.58 0.51,0.51 0 0 1 0.69,0.17 0.52,0.52 0 0 1 -0.17,0.69 6.05,6.05 0 0 1 -3.15,0.95 z"
       style="fill:#263238"
       id="path87" />
    <path
       d="m 364.17,149.2 a 4.68,4.68 0 0 1 -2.28,-0.58 0.49,0.49 0 0 1 -0.16,-0.69 0.49,0.49 0 0 1 0.68,-0.16 3.82,3.82 0 0 0 4.71,-0.93 0.50204581,0.50204581 0 1 1 0.71,0.71 5.08,5.08 0 0 1 -3.66,1.65 z"
       style="fill:#263238"
       id="path88" />
    <path
       d="m 396.58,148 c 0.3,-2.87 0.87,-7.63 1,-8.5 l -3.31,-1.81 c 0,0 1,12.3 -0.33,19.12 -1.33,6.82 -3.66,9 -6.32,10 -2.66,1 -4,-0.33 -4,-0.33 0,0 -6.32,-6 -12,-6.15 -4.94,-0.15 -8.73,5.28 -9.61,6.66 1.05,4.28 2.12,9 3.12,11 a 10.3,10.3 0 0 0 9.32,5.82 c 4.66,0 9.81,-3.83 12.31,-6.32 2.5,-2.49 6.82,-6 9.14,-10.48 2.32,-4.48 0.35,-15.82 0.68,-19.01 z"
       style="fill:#263238"
       id="path89" />
    <path
       d="m 374.46,184.29 a 10.75,10.75 0 0 1 -9.76,-6.1 c -0.92,-1.83 -1.88,-5.78 -2.81,-9.61 l -0.36,-1.46 a 0.54,0.54 0 0 1 0.06,-0.39 c 1.06,-1.65 5,-7 10.06,-6.89 5.77,0.17 12,6 12.3,6.29 0.05,0.05 1.17,1.09 3.47,0.22 2.3,-0.87 4.64,-2.61 6,-9.6 1.3,-6.68 0.33,-18.87 0.32,-19 a 0.5,0.5 0 0 1 0.74,-0.48 l 3.31,1.81 a 0.52,0.52 0 0 1 0.26,0.5 c -0.11,0.87 -0.68,5.63 -1,8.49 v 0 a 36.12,36.12 0 0 0 0.17,4.84 c 0.32,4.68 0.77,11.09 -0.89,14.3 -1.9,3.66 -5,6.61 -7.56,9 -0.61,0.57 -1.18,1.11 -1.68,1.61 -2.95,2.98 -8.09,6.47 -12.63,6.47 z m -11.91,-17.2 0.31,1.26 c 0.92,3.77 1.87,7.67 2.73,9.39 a 9.87,9.87 0 0 0 8.87,5.55 c 4.56,0 9.66,-3.88 12,-6.18 0.51,-0.5 1.09,-1.05 1.71,-1.63 2.46,-2.32 5.53,-5.21 7.35,-8.72 1.53,-3 1.1,-9.21 0.78,-13.78 a 36.84,36.84 0 0 1 -0.17,-5 v 0 c 0.28,-2.61 0.77,-6.78 0.94,-8.17 l -2.2,-1.21 c 0.2,3 0.72,12.54 -0.41,18.34 -1.46,7.48 -4.17,9.43 -6.64,10.35 -2.92,1.1 -4.45,-0.38 -4.52,-0.45 -0.07,-0.07 -6.24,-5.85 -11.63,-6 -4.56,-0.16 -8.18,4.84 -9.12,6.25 z m 34,-19.06 z"
       style="fill:#263238"
       id="path90" />
    <path
       d="m 379.61,171.48 c 0,0 -3.49,-5 -6.81,-5.82 -3.32,-0.82 -6.82,5.65 -5.66,6.82 1.16,1.17 2.83,-3.16 6,-1.83 3.17,1.33 4.98,3.49 6.47,0.83 z"
       style="fill:#ffffff"
       id="path91" />
    <path
       d="m 377.92,173.24 a 6.71,6.71 0 0 1 -2.89,-1.08 21.61,21.61 0 0 0 -2.1,-1 c -1.53,-0.65 -2.66,0.29 -3.65,1.12 -0.78,0.67 -1.68,1.42 -2.49,0.6 -0.81,-0.82 -0.21,-2.59 0.59,-4 1.15,-2 3.29,-4.21 5.54,-3.65 3.46,0.87 7,5.81 7.1,6 a 0.51,0.51 0 0 1 0,0.53 2.41,2.41 0 0 1 -2.1,1.48 z m -6,-3.35 a 3.53,3.53 0 0 1 1.39,0.3 22.34,22.34 0 0 1 2.19,1.09 c 1.94,1.05 2.73,1.4 3.5,0.23 -0.76,-1 -3.65,-4.7 -6.34,-5.37 -1.59,-0.39 -3.36,1.31 -4.42,3.18 -0.86,1.51 -0.95,2.61 -0.76,2.8 0.19,0.19 0.46,-0.07 1.15,-0.65 a 5.24,5.24 0 0 1 3.3,-1.58 z"
       style="fill:#263238"
       id="path92" />
    <path
       d="m 359.16,117.92 c 0,0 -5,-1.49 -8.15,0.17 a 11.68,11.68 0 0 0 -4.66,5.32 l 6.49,0.5 3,1.5 c 0,0 -1.33,0 -2,1.83 a 41.11,41.11 0 0 0 -1.16,4 18.06,18.06 0 0 1 6,-1.83 99.77,99.77 0 0 0 10.81,-2.66 l 0.83,5.49 a 37.32,37.32 0 0 1 7.49,-3.66 13,13 0 0 0 5.32,-3.16 c 0,0 8.65,3.32 8.48,4.82 -0.17,1.5 -3.16,5.16 -2.16,6.32 1,1.16 3.66,3.66 3.66,3.66 l 10,5.66 a 46.33,46.33 0 0 0 5.49,-14.64 c 1.82,-9 -6.49,-18.63 -13.48,-21.29 -6.99,-2.66 -12.14,-1.66 -16.46,-1.5 a 50,50 0 0 1 -10.32,-1.16 l 4,4.16 a 52.58,52.58 0 0 1 -5.49,1.83 c -1.67,0.33 -4.49,1.16 -5.16,0.83 -0.67,-0.33 -3,-1.83 -3,-1.83 0,0 -1.2,4.98 0.47,5.64 z"
       style="fill:#263238"
       id="path93" />
    <path
       d="m 403.07,146.37 a 0.55,0.55 0 0 1 -0.25,-0.07 l -10,-5.65 -0.09,-0.07 c -0.11,-0.11 -2.7,-2.53 -3.7,-3.7 -0.84,-1 0.12,-2.75 1,-4.46 a 9,9 0 0 0 1,-2.24 c -0.13,-0.66 -3.69,-2.56 -7.86,-4.19 a 13.56,13.56 0 0 1 -5.3,3.06 36.4,36.4 0 0 0 -7.36,3.6 0.51,0.51 0 0 1 -0.48,0 0.48,0.48 0 0 1 -0.28,-0.38 L 369,127.35 a 92.37,92.37 0 0 1 -10.33,2.52 17.69,17.69 0 0 0 -5.81,1.76 0.5,0.5 0 0 1 -0.55,0 0.51,0.51 0 0 1 -0.19,-0.51 39.82,39.82 0 0 1 1.19,-4.05 3.44,3.44 0 0 1 1.23,-1.72 l -1.9,-0.95 -6.39,-0.49 a 0.5,0.5 0 0 1 -0.39,-0.24 0.51,0.51 0 0 1 0,-0.45 12.07,12.07 0 0 1 4.88,-5.57 c 2.3,-1.21 5.43,-0.87 7.19,-0.52 a 11.87,11.87 0 0 1 0.21,-5 0.55,0.55 0 0 1 0.3,-0.35 0.5,0.5 0 0 1 0.46,0 c 0,0 2.31,1.48 2.95,1.8 a 12.7,12.7 0 0 0 3.36,-0.55 c 0.53,-0.12 1,-0.24 1.47,-0.32 a 42.24,42.24 0 0 0 4.7,-1.54 l -3.47,-3.62 a 0.49,0.49 0 0 1 -0.07,-0.59 0.51,0.51 0 0 1 0.54,-0.24 50.42,50.42 0 0 0 10.19,1.15 c 0.73,0 1.48,-0.08 2.26,-0.13 3.79,-0.26 8.5,-0.59 14.4,1.66 6.9,2.63 15.7,12.45 13.79,21.86 a 46.55,46.55 0 0 1 -5.56,14.81 0.53,0.53 0 0 1 -0.39,0.3 z m -9.68,-6.56 9.5,5.38 a 47.73,47.73 0 0 0 5.17,-14.06 c 1.82,-8.9 -6.58,-18.22 -13.15,-20.72 -5.7,-2.17 -10.1,-1.87 -14,-1.6 -0.79,0 -1.55,0.1 -2.29,0.13 a 44.11,44.11 0 0 1 -8.87,-0.86 l 2.89,3 a 0.53,0.53 0 0 1 0.13,0.45 0.51,0.51 0 0 1 -0.31,0.36 51.26,51.26 0 0 1 -5.57,1.86 c -0.42,0.08 -0.92,0.2 -1.44,0.32 -2.11,0.49 -3.43,0.77 -4,0.46 -0.57,-0.31 -1.68,-1 -2.43,-1.46 -0.32,1.8 -0.41,4.08 0.34,4.38 a 0.5,0.5 0 0 1 -0.33,0.94 c 0,0 -4.83,-1.41 -7.77,0.13 a 10.73,10.73 0 0 0 -4.12,4.44 l 5.76,0.44 a 0.61,0.61 0 0 1 0.18,0 l 3,1.5 a 0.5,0.5 0 0 1 0.27,0.56 0.51,0.51 0 0 1 -0.49,0.39 c 0,0 -1,0 -1.53,1.5 -0.36,1 -0.68,2.12 -0.88,2.91 a 19.78,19.78 0 0 1 5.17,-1.42 98,98 0 0 0 10.73,-2.64 0.52,0.52 0 0 1 0.42,0.06 0.47,0.47 0 0 1 0.22,0.34 l 0.72,4.74 a 34.82,34.82 0 0 1 7,-3.31 12.45,12.45 0 0 0 5.1,-3 0.51,0.51 0 0 1 0.55,-0.13 c 3.36,1.3 9,3.71 8.8,5.35 A 9,9 0 0 1 391,132.9 c -0.58,1.07 -1.55,2.87 -1.16,3.33 0.87,1.05 3.16,3.25 3.55,3.58 z"
       style="fill:#263238"
       id="path94" />
    <path
       d="m 399.24,155 a 12.11,12.11 0 0 0 3.83,-3.32 c 1.33,-2 5.15,-9.65 0.66,-11.81 -3.4,-1.64 -5.65,1.3 -6.55,2.82 -0.2,1.74 -0.44,3.8 -0.6,5.33 -0.33,3.16 1.66,14.47 -0.67,19 -2.33,4.53 -6.65,8 -9.14,10.48 a 27.7,27.7 0 0 1 -3.88,3.17 l 4.21,1.15 a 31.45,31.45 0 0 0 5,8.82 78.66,78.66 0 0 0 6.82,7.65 c 0,0 1,-6 3.66,-19.3 2.66,-13.3 0.66,-21 0.66,-21 z"
       style="fill:#ffffff"
       id="path95" />
    <path
       d="m 398.91,198.76 a 0.52,0.52 0 0 1 -0.35,-0.14 79.83,79.83 0 0 1 -6.86,-7.7 32.69,32.69 0 0 1 -5,-8.72 l -3.95,-1.08 a 0.49,0.49 0 0 1 -0.36,-0.4 0.51,0.51 0 0 1 0.21,-0.5 26.56,26.56 0 0 0 3.8,-3.11 c 0.51,-0.5 1.09,-1.05 1.71,-1.63 2.46,-2.32 5.53,-5.21 7.35,-8.72 1.53,-3 1.1,-9.21 0.78,-13.78 a 36.84,36.84 0 0 1 -0.17,-5 c 0.16,-1.53 0.4,-3.6 0.6,-5.33 a 0.68,0.68 0 0 1 0.07,-0.2 c 0.89,-1.52 3.38,-4.86 7.2,-3 a 4,4 0 0 1 2.21,2.65 c 0.93,3.4 -1.69,8.4 -2.68,9.88 a 11.66,11.66 0 0 1 -3.34,3.1 l 3.39,2.55 a 0.52,0.52 0 0 1 0.19,0.27 c 0.08,0.32 2,7.92 -0.66,21.18 -2.66,13.26 -3.65,19.22 -3.66,19.28 a 0.51,0.51 0 0 1 -0.33,0.39 0.45,0.45 0 0 1 -0.15,0.01 z m -14.86,-18.33 3.18,0.88 a 0.52,0.52 0 0 1 0.35,0.33 31.29,31.29 0 0 0 4.9,8.66 84.32,84.32 0 0 0 6.1,6.93 c 0.38,-2.17 1.45,-8.13 3.5,-18.36 2.39,-12 1,-19.39 0.71,-20.57 l -3.85,-2.89 a 0.48,0.48 0 0 1 -0.2,-0.43 0.52,0.52 0 0 1 0.27,-0.41 11.68,11.68 0 0 0 3.64,-3.16 c 1.16,-1.74 3.31,-6.25 2.54,-9.06 a 3,3 0 0 0 -1.68,-2 c -2.9,-1.4 -4.89,0.94 -5.84,2.54 -0.2,1.71 -0.44,3.72 -0.59,5.21 a 36.12,36.12 0 0 0 0.17,4.84 c 0.32,4.68 0.77,11.09 -0.89,14.3 -1.9,3.66 -5,6.61 -7.56,9 -0.61,0.57 -1.18,1.11 -1.68,1.61 a 26.78,26.78 0 0 1 -3.07,2.58 z"
       style="fill:#263238"
       id="path96" />
    <path
       d="m 387.1,181.79 5.82,1.66 -2.83,4.16 a 41.24,41.24 0 0 1 -2.99,-5.82 z"
       style="fill:#263238"
       id="path97" />
    <path
       d="m 390.09,188.11 v 0 a 0.46,0.46 0 0 1 -0.41,-0.24 40.6,40.6 0 0 1 -3,-5.92 0.48,0.48 0 0 1 0.11,-0.5 0.49,0.49 0 0 1 0.5,-0.14 l 5.82,1.66 a 0.51,0.51 0 0 1 0.33,0.31 0.5,0.5 0 0 1 -0.06,0.46 l -2.82,4.15 a 0.51,0.51 0 0 1 -0.47,0.22 z m -2.15,-5.56 a 46.12,46.12 0 0 0 2.18,4.13 l 2,-2.93 z"
       style="fill:#263238"
       id="path98" />
    <path
       d="M 422.21,177.33 427,298 l 10.81,0.77 c 0,0 9.26,-39 12,-52.3 2.74,-13.3 3.67,-21.8 3.48,-32.42 -0.19,-10.62 -2.71,-32.61 -2.71,-32.61 0,0 -5.59,-9.46 -10.42,-12.74"
       style="fill:#b9ff66"
       id="path99" />
    <path
       d="m 437.85,299.22 v 0 L 427,298.45 a 0.5,0.5 0 0 1 -0.46,-0.48 l -4.83,-120.62 a 0.51,0.51 0 0 1 0.48,-0.52 0.5,0.5 0 0 1 0.52,0.48 l 4.81,120.18 9.94,0.7 c 1,-4.22 9.34,-39.44 11.86,-51.87 2.75,-13.53 3.65,-22 3.47,-32.31 -0.19,-10.09 -2.5,-30.78 -2.69,-32.46 -0.59,-1 -5.79,-9.48 -10.22,-12.49 a 0.5,0.5 0 0 1 0.56,-0.82 c 4.86,3.3 10.34,12.5 10.57,12.89 a 0.48,0.48 0 0 1 0.07,0.2 c 0,0.22 2.51,22.15 2.71,32.66 0.2,10.51 -0.73,18.92 -3.49,32.53 -2.67,13.18 -11.88,51.93 -12,52.32 a 0.48,0.48 0 0 1 -0.45,0.38 z"
       style="fill:#263238"
       id="path100" />
    <path
       d="m 444.16,200.39 h -0.15 a 0.5,0.5 0 0 1 -0.32,-0.63 c 1,-3.15 1.59,-5.18 1.59,-5.18 a 0.51,0.51 0 0 1 0.62,-0.34 0.5,0.5 0 0 1 0.34,0.62 c 0,0 -0.6,2 -1.6,5.2 a 0.5,0.5 0 0 1 -0.48,0.33 z"
       style="fill:#263238"
       id="path101" />
    <path
       d="m 425.11,247.7 a 0.71,0.71 0 0 1 -0.2,0 0.51,0.51 0 0 1 -0.26,-0.66 c 0.05,-0.11 4.69,-10.95 10,-22.78 3,-6.59 5.9,-15 7.83,-20.85 a 0.49,0.49 0 0 1 0.63,-0.32 0.5,0.5 0 0 1 0.32,0.63 c -1.94,5.89 -4.87,14.32 -7.87,20.95 -5.34,11.82 -10,22.65 -10,22.76 a 0.51,0.51 0 0 1 -0.45,0.27 z"
       style="fill:#263238"
       id="path102" />
    <path
       d="m 437.07,233.41 a 0.49,0.49 0 0 1 -0.44,-0.73 18.13,18.13 0 0 0 0.85,-2 0.49,0.49 0 0 1 0.64,-0.29 0.5,0.5 0 0 1 0.3,0.64 21.42,21.42 0 0 1 -0.9,2.12 0.49,0.49 0 0 1 -0.45,0.26 z"
       style="fill:#263238"
       id="path103" />
    <path
       d="m 439,228.1 h -0.14 a 0.5,0.5 0 0 1 -0.34,-0.63 c 2.21,-7.36 4.59,-18.65 4.62,-18.76 a 0.5,0.5 0 0 1 0.59,-0.39 0.51,0.51 0 0 1 0.39,0.59 c 0,0.12 -2.42,11.45 -4.64,18.85 A 0.49,0.49 0 0 1 439,228.1 Z"
       style="fill:#263238"
       id="path104" />
    <path
       d="m 440,288.42 v 0 l -13,-0.58 a 0.5,0.5 0 0 1 -0.48,-0.52 0.46,0.46 0 0 1 0.52,-0.48 l 12.93,0.58 a 0.5,0.5 0 0 1 0,1 z"
       style="fill:#263238"
       id="path105" />
    <path
       d="m 427,298 c 0,0 -1.51,18.62 -1.51,20.23 0,1.61 1.29,13.36 1.61,14.33 0.32,0.97 8.53,7.08 9.33,7.08 0.8,0 5.32,0.48 6.12,-0.81 0.8,-1.29 1.13,-2.09 0,-2.41 a 20.26,20.26 0 0 0 -4.18,-0.16 l -1.77,-0.81 c 0,0 6.59,-0.64 7.08,-0.8 0.49,-0.16 2.89,-1.77 3.38,-2.9 a 3,3 0 0 0 -0.33,-2.41 c 0,0 2.42,-2.26 2.58,-3.06 0.16,-0.8 0.32,-3.06 -0.8,-2.74 a 8.76,8.76 0 0 0 -2.74,2.09 h -4 c 0,0 4.18,-2.73 4.66,-3.54 a 13.78,13.78 0 0 0 1,-5.15 c -0.16,-1 -2.25,0.16 -2.74,1.13 -0.49,0.97 -1.29,3.54 -1.29,3.54 l -4.82,0.64 -1.58,-2.14 c 0,0 3.22,-10 3.22,-12.07 0,-2.07 -2.33,-9.32 -2.33,-9.32 z"
       style="fill:#ffffff"
       id="path106" />
    <path
       d="m 439,340.17 c -0.61,0 -1.26,0 -1.91,-0.06 h -0.58 c -1.09,0 -9.43,-6.32 -9.8,-7.43 -0.37,-1.11 -1.71,-12.88 -1.71,-14.5 0,-1.62 1.45,-19.51 1.51,-20.27 a 0.51,0.51 0 0 1 0.53,-0.46 l 10.81,0.77 a 0.51,0.51 0 0 1 0.44,0.35 c 0.1,0.3 2.36,7.33 2.36,9.47 0,2 -2.66,10.38 -3.17,12 l 1.28,1.65 4.22,-0.56 a 34,34 0 0 1 1.23,-3.31 3.57,3.57 0 0 1 2.88,-1.76 0.89,0.89 0 0 1 0.79,0.77 13.88,13.88 0 0 1 -1,5.49 17.8,17.8 0 0 1 -3.45,2.78 h 2.16 a 8.2,8.2 0 0 1 2.82,-2.07 1.05,1.05 0 0 1 1,0.22 c 0.85,0.79 0.42,3 0.4,3.1 -0.16,0.78 -1.68,2.32 -2.45,3.06 a 3.2,3.2 0 0 1 0.17,2.51 c -0.56,1.3 -3.12,3 -3.68,3.17 -0.36,0.12 -3,0.41 -5.09,0.62 a 17,17 0 0 1 3.94,0.2 1.38,1.38 0 0 1 1,0.8 c 0.27,0.68 -0.19,1.5 -0.73,2.36 -0.54,0.86 -2.11,1.1 -3.97,1.1 z m -2.39,-1.08 h 0.53 c 3,0.16 4.72,0 5.07,-0.59 0.49,-0.8 0.71,-1.29 0.64,-1.47 -0.07,-0.18 -0.13,-0.13 -0.36,-0.2 a 18.71,18.71 0 0 0 -4,-0.14 0.37,0.37 0 0 1 -0.23,0 l -1.77,-0.8 a 0.5,0.5 0 0 1 -0.29,-0.54 0.52,0.52 0 0 1 0.45,-0.42 c 2.48,-0.24 6.57,-0.66 7,-0.78 0.43,-0.12 2.67,-1.66 3.08,-2.62 a 2.47,2.47 0 0 0 -0.29,-1.95 0.5,0.5 0 0 1 0.08,-0.63 12.39,12.39 0 0 0 2.43,-2.79 3.49,3.49 0 0 0 -0.1,-2.17 7.81,7.81 0 0 0 -2.58,2 0.49,0.49 0 0 1 -0.37,0.16 h -4 a 0.49,0.49 0 0 1 -0.48,-0.35 0.49,0.49 0 0 1 0.2,-0.56 28.72,28.72 0 0 0 4.51,-3.38 13.86,13.86 0 0 0 0.9,-4.81 3,3 0 0 0 -1.79,1.26 c -0.46,0.92 -1.25,3.45 -1.26,3.47 a 0.51,0.51 0 0 1 -0.41,0.35 l -4.83,0.64 a 0.48,0.48 0 0 1 -0.46,-0.19 l -1.61,-2.09 a 0.5,0.5 0 0 1 -0.08,-0.46 c 0.89,-2.76 3.2,-10.27 3.2,-11.92 0,-1.65 -1.76,-7.43 -2.21,-8.84 l -10,-0.71 c -0.24,3 -1.47,18.27 -1.47,19.69 0,1.67 1.3,13.32 1.58,14.17 0.44,0.86 7.85,6.49 8.92,6.74 z"
       style="fill:#263238"
       id="path107" />
    <path
       d="m 438.56,326.36 a 4.44,4.44 0 0 1 -1.28,-0.14 c -1,-0.34 -4.07,-3 -4.67,-3.47 a 0.52,0.52 0 0 1 -0.06,-0.71 0.51,0.51 0 0 1 0.71,-0.05 29.43,29.43 0 0 0 4.34,3.28 15.45,15.45 0 0 0 4.11,-0.18 0.51,0.51 0 0 1 0.57,0.42 0.5,0.5 0 0 1 -0.42,0.57 26.79,26.79 0 0 1 -3.3,0.28 z"
       style="fill:#263238"
       id="path108" />
    <path
       d="m 437.76,331.24 c -1.56,0 -6.31,-4.13 -7.25,-5 a 0.48,0.48 0 0 1 0,-0.7 0.49,0.49 0 0 1 0.7,-0.05 c 2.62,2.31 5.8,4.71 6.59,4.71 1.11,0 6.32,-0.95 8.92,-1.45 a 0.51,0.51 0 0 1 0.59,0.4 0.51,0.51 0 0 1 -0.4,0.59 c -0.35,0.1 -7.67,1.5 -9.15,1.5 z"
       style="fill:#263238"
       id="path109" />
    <path
       d="m 436.63,335.9 a 0.51,0.51 0 0 1 -0.2,0 c 0,0 -1.76,-0.8 -2.69,-1.11 -0.93,-0.31 -3.63,-3.41 -4.41,-4.34 a 0.49,0.49 0 0 1 0.06,-0.7 0.51,0.51 0 0 1 0.71,0.06 c 1.5,1.81 3.44,3.86 4,4 1,0.33 2.71,1.11 2.78,1.15 a 0.5,0.5 0 0 1 -0.21,0.95 z"
       style="fill:#263238"
       id="path110" />
  </g>
  <g
     inkscape:groupmode="layer"
     id="layer2"
     inkscape:label="Tower">
    <path
       id="path113"
       style="fill:#296b65;fill-opacity:1;stroke-width:1.51181;stroke-linejoin:round;stroke-dasharray:5.29134, 2.64567, 2.64567, 2.64567, 5.29134, 5.29134, 5.29134, 2.64567, 5.29134, 2.64567, 2.64567, 2.64567, 2.64567, 2.64567, 2.64567, 5.29134, 2.64567, 2.64567, 2.64567, 2.64567, 2.64567, 5.29134, 2.64567, 2.64567, 5.29134, 2.64567, 5.29134, 5.29134, 2.64567, 2.64567, 2.64567, 15.874"
       d="m 413.35156,57.080078 c -3.08449,-0.0277 -3.44922,1.125 -3.44922,1.125 l -2.2539,14.783203 -4.92383,2.960938 -47.73047,376.681641 h 6.05078 l 48.19141,-375.462891 0.0156,0.002 V 452.63086 h 8 V 77.490234 l 0.0703,-0.01563 48.15039,375.156251 h 6.05078 L 423.19922,76.140625 418.85547,72.988281 416.60156,58.205078 c 0,0 -0.16551,-1.097296 -3.25,-1.125 z m -53.875,396.550782 1.41602,0.18164 0.0234,-0.18164 z m 106.125,0 0.0234,0.18164 1.41602,-0.18164 z"
       sodipodi:nodetypes="sccccccccccccccccscccccccc" />
    <path
       id="path113-6"
       style="display:inline;fill:#296b65;fill-opacity:1;stroke-width:1.51181;stroke-linejoin:round;stroke-dasharray:5.29134, 2.64567, 2.64567, 2.64567, 5.29134, 5.29134, 5.29134, 2.64567, 5.29134, 2.64567, 2.64567, 2.64567, 2.64567, 2.64567, 2.64567, 5.29134, 2.64567, 2.64567, 2.64567, 2.64567, 2.64567, 5.29134, 2.64567, 2.64567, 5.29134, 2.64567, 5.29134, 5.29134, 2.64567, 2.64567, 2.64567, 15.874"
       d="M 413.35156 57.080078 C 410.26707 57.052378 409.90234 58.205078 409.90234 58.205078 L 407.64844 72.988281 L 402.72461 75.949219 L 354.99414 452.63086 L 361.04492 452.63086 L 366.82031 407.64062 L 409.25195 439.03516 L 409.25195 452.63086 L 417.25195 452.63086 L 417.25195 438.23828 L 459.39648 407.05664 L 459.62695 407.08984 L 465.47266 452.63086 L 471.52344 452.63086 L 423.19922 76.140625 L 418.85547 72.988281 L 416.60156 58.205078 C 416.60156 58.205078 416.43605 57.107782 413.35156 57.080078 z M 409.23633 77.167969 L 409.25195 77.169922 L 409.25195 111.20312 L 405.93945 102.85742 L 409.23633 77.167969 z M 417.32227 77.474609 L 420.55664 102.67578 L 417.25195 111 L 417.25195 77.490234 L 417.32227 77.474609 z M 422.13477 114.9668 L 427.57422 157.36328 L 417.25195 131.35742 L 417.25195 127.26367 L 422.13477 114.9668 z M 404.36133 115.14453 L 409.25195 127.46289 L 409.25195 131.1543 L 398.98828 157.01172 L 404.36133 115.14453 z M 409.25195 147.41602 L 409.25195 163.88281 L 402.32812 164.85938 L 409.25195 147.41602 z M 417.25195 147.61523 L 424.11523 164.90625 L 417.25195 163.93945 L 417.25195 147.61523 z M 409.25195 171.96094 L 409.25195 186.58008 L 400.13672 173.24609 L 409.25195 171.96094 z M 417.25195 172.01758 L 426.02734 173.25586 L 417.25195 186.09375 L 417.25195 172.01758 z M 430.19727 177.78711 L 436.42969 226.34375 L 417.25195 198.28516 L 417.25195 196.72656 L 430.19727 177.78711 z M 396.26562 178.21484 L 409.25195 197.21484 L 409.25195 197.79688 L 390.16992 225.71484 L 396.26562 178.21484 z M 409.25195 208.43164 L 409.25195 230.22656 L 392.76367 232.55078 L 409.25195 208.43164 z M 417.25195 208.91797 L 433.41406 232.5625 L 417.25195 230.2832 L 417.25195 208.91797 z M 409.25195 238.30273 L 409.25195 258.6543 L 393.74805 240.49023 L 409.25195 238.30273 z M 417.25195 238.35938 L 432.98438 240.57812 L 417.25195 259.00781 L 417.25195 238.35938 z M 387.95703 242.95117 L 409.25195 267.89648 L 409.25195 268.38086 L 380.34766 302.24219 L 387.95703 242.95117 z M 438.59766 243.24219 L 446.12109 301.84766 L 417.34766 268.13867 L 438.59766 243.24219 z M 417.25195 277.26953 L 444.1543 308.78516 L 417.25195 304.99219 L 417.25195 277.26953 z M 409.25195 277.62305 L 409.25195 304.93555 L 382.74805 308.67383 L 409.25195 277.62305 z M 409.25195 313.01367 L 409.25195 347.03711 L 382.96289 316.72266 L 409.25195 313.01367 z M 417.25195 313.07031 L 444.27344 316.88086 L 417.25195 348.03711 L 417.25195 313.07031 z M 378.04102 320.20508 L 406.53516 353.06445 L 368.14062 397.33789 L 378.04102 320.20508 z M 448.58594 321.06445 L 458.22852 396.18359 L 420.83594 353.06445 L 448.58594 321.06445 z M 417.25195 358.08789 L 451.7793 397.9043 L 417.25195 393.03711 L 417.25195 358.08789 z M 409.25195 359.08984 L 409.25195 392.98047 L 375.76953 397.70117 L 409.25195 359.08984 z M 368.05273 398.03125 L 368.80469 398.68359 L 367.95312 398.80273 L 368.05273 398.03125 z M 458.55078 398.69727 L 458.57227 398.86133 L 458.39062 398.83594 L 458.55078 398.69727 z M 409.25195 401.05664 L 409.25195 431.56836 L 374.61328 405.94336 L 409.25195 401.05664 z M 417.25195 401.11328 L 450.92383 405.86133 L 417.25195 430.77344 L 417.25195 401.11328 z M 359.47656 453.63086 L 360.89258 453.8125 L 360.91602 453.63086 L 359.47656 453.63086 z M 465.60156 453.63086 L 465.625 453.8125 L 467.04102 453.63086 L 465.60156 453.63086 z " />
  </g>
</svg>
