<?xml version="1.0" encoding="UTF-8" standalone="no"?>
<!-- Created with Inkscape (http://www.inkscape.org/) -->

<svg
   width="90mm"
   height="90.000015mm"
   viewBox="0 0 90 90.000015"
   version="1.1"
   id="svg1"
   sodipodi:docname="hero_text.svg"
   inkscape:version="1.4.2 (ebf0e940d0, 2025-05-08)"
   xmlns:inkscape="http://www.inkscape.org/namespaces/inkscape"
   xmlns:sodipodi="http://sodipodi.sourceforge.net/DTD/sodipodi-0.dtd"
   xmlns:xlink="http://www.w3.org/1999/xlink"
   xmlns="http://www.w3.org/2000/svg"
   xmlns:svg="http://www.w3.org/2000/svg">
  <sodipodi:namedview
     id="namedview1"
     pagecolor="#505050"
     bordercolor="#eeeeee"
     borderopacity="1"
     inkscape:showpageshadow="0"
     inkscape:pageopacity="0"
     inkscape:pagecheckerboard="0"
     inkscape:deskcolor="#505050"
     inkscape:document-units="mm"
     inkscape:zoom="2"
     inkscape:cx="163.5"
     inkscape:cy="158.75"
     inkscape:window-width="1920"
     inkscape:window-height="1008"
     inkscape:window-x="1920"
     inkscape:window-y="0"
     inkscape:window-maximized="1"
     inkscape:current-layer="layer1"
     showguides="true"
     inkscape:lockguides="false">
    <inkscape:page
       x="0"
       y="0"
       width="90"
       height="90.000015"
       id="page2"
       margin="0"
       bleed="0" />
    <sodipodi:guide
       position="-28.839584,132.06877"
       orientation="0,-1"
       id="guide22"
       inkscape:locked="false" />
    <sodipodi:guide
       position="29.950822,93.175017"
       orientation="1,0"
       id="guide39"
       inkscape:locked="false" />
    <sodipodi:guide
       position="59.954579,91.031892"
       orientation="1,0"
       id="guide40"
       inkscape:locked="false" />
    <sodipodi:guide
       position="28.683032,89.508909"
       orientation="0,-1"
       id="guide41"
       inkscape:locked="false" />
  </sodipodi:namedview>
  <defs
     id="defs1">
    <linearGradient
       id="swatch42"
       inkscape:swatch="solid">
      <stop
         style="stop-color:#b2e1dd;stop-opacity:1;"
         offset="0"
         id="stop42" />
    </linearGradient>
    <linearGradient
       id="swatch41"
       inkscape:swatch="solid">
      <stop
         style="stop-color:#000000;stop-opacity:1;"
         offset="0"
         id="stop41" />
    </linearGradient>
    <linearGradient
       id="swatch39">
      <stop
         style="stop-color:#000000;stop-opacity:1;"
         offset="0"
         id="stop39" />
    </linearGradient>
    <linearGradient
       id="swatch38">
      <stop
         style="stop-color:#000000;stop-opacity:1;"
         offset="0"
         id="stop38" />
    </linearGradient>
    <linearGradient
       id="swatch30">
      <stop
         style="stop-color:#ede0cb;stop-opacity:1;"
         offset="0"
         id="stop30" />
    </linearGradient>
    <inkscape:path-effect
       effect="bend_path"
       id="path-effect29"
       is_visible="true"
       lpeversion="1"
       bendpath="m 15.40617,0.3375 c 15.768924,-29.472353 45.770063,-29.464203 62.893667,0"
       prop_scale="1"
       scale_y_rel="false"
       vertical="false"
       hide_knot="false"
       bendpath-nodetypes="cc" />
    <linearGradient
       id="swatch25">
      <stop
         style="stop-color:#ede0cb;stop-opacity:1;"
         offset="0"
         id="stop25" />
    </linearGradient>
    <linearGradient
       id="swatch22">
      <stop
         style="stop-color:#ede0cb;stop-opacity:1;"
         offset="0"
         id="stop22" />
    </linearGradient>
    <inkscape:path-effect
       effect="bend_path"
       id="path-effect1"
       is_visible="true"
       lpeversion="1"
       bendpath="M 4.5509126,15.484162 C 35.848151,-5.4977114 52.741145,-5.4928142 83.745367,15.607941"
       prop_scale="1"
       scale_y_rel="false"
       vertical="false"
       hide_knot="false"
       bendpath-nodetypes="cc" />
    <inkscape:path-effect
       effect="fillet_chamfer"
       id="path-effect16"
       is_visible="true"
       lpeversion="1"
       nodesatellites_param="F,0,0,1,0,23.812499,0,1 @ F,0,0,1,0,23.812499,0,1 @ F,0,0,1,0,23.812499,0,1 @ F,0,0,1,0,23.812499,0,1"
       radius="90"
       unit="px"
       method="auto"
       mode="F"
       chamfer_steps="1"
       flexible="false"
       use_knot_distance="true"
       apply_no_radius="true"
       apply_with_radius="true"
       only_selected="false"
       hide_knots="false" />
    <linearGradient
       id="swatch13"
       inkscape:swatch="solid">
      <stop
         style="stop-color:#b2e1dd;stop-opacity:1;"
         offset="0"
         id="stop13" />
    </linearGradient>
    <linearGradient
       id="swatch4"
       inkscape:swatch="solid"
       inkscape:label="Light">
      <stop
         style="stop-color:#b2e1dd;stop-opacity:1;"
         offset="0"
         id="stop4" />
    </linearGradient>
    <linearGradient
       id="swatch3"
       inkscape:swatch="solid"
       inkscape:label="Dark">
      <stop
         style="stop-color:#296b65;stop-opacity:1;"
         offset="0"
         id="stop3" />
    </linearGradient>
    <linearGradient
       id="swatch2"
       inkscape:swatch="solid"
       inkscape:label="Turquois">
      <stop
         style="stop-color:#45b5aa;stop-opacity:1;"
         offset="0"
         id="stop2" />
    </linearGradient>
    <inkscape:path-effect
       effect="fillet_chamfer"
       id="path-effect252"
       is_visible="true"
       lpeversion="1"
       nodesatellites_param="F,0,0,1,0,23.812499,0,1 @ F,0,0,1,0,23.812499,0,1 @ F,0,0,1,0,23.812499,0,1 @ F,0,0,1,0,23.812499,0,1"
       radius="90"
       unit="px"
       method="auto"
       mode="F"
       chamfer_steps="1"
       flexible="false"
       use_knot_distance="true"
       apply_no_radius="true"
       apply_with_radius="true"
       only_selected="false"
       hide_knots="false" />
    <linearGradient
       inkscape:collect="always"
       xlink:href="#swatch28"
       id="linearGradient202"
       gradientUnits="userSpaceOnUse"
       x1="122.92429"
       y1="162.52599"
       x2="128.8712"
       y2="162.52599"
       gradientTransform="translate(60.857978,194.64869)" />
    <linearGradient
       id="swatch28"
       inkscape:swatch="solid"
       inkscape:label="Cream"
       gradientTransform="matrix(1.064759,0,0,1.0520446,1.1970655,170.15881)">
      <stop
         style="stop-color:#ede0cb;stop-opacity:1;"
         offset="0"
         id="stop28" />
    </linearGradient>
    <marker
       style="overflow:visible"
       id="Dot"
       refX="-1.5"
       refY="-0.82499999"
       orient="auto"
       inkscape:stockid="Dot"
       markerWidth="0.30000001"
       markerHeight="0.30000001"
       viewBox="0 0 1 1"
       inkscape:isstock="true"
       inkscape:collect="always"
       preserveAspectRatio="xMidYMid">
      <path
         style="fill:context-stroke;fill-rule:evenodd;stroke:none;stroke-width:0.5"
         d="M -2.5,0 C -2.5,1.38 -1.38,2.5 0,2.5 1.38,2.5 2.5,1.38 2.5,0 2.5,-1.38 1.35,-2.5 0,-2.5 -1.38,-2.5 -2.5,-1.38 -2.5,0 Z"
         sodipodi:nodetypes="sssss"
         id="path17" />
    </marker>
    <linearGradient
       inkscape:collect="always"
       xlink:href="#swatch28"
       id="linearGradient203"
       gradientUnits="userSpaceOnUse"
       x1="89.35965"
       y1="162.52599"
       x2="95.306549"
       y2="162.52599"
       gradientTransform="translate(60.857978,194.64869)" />
    <marker
       style="overflow:visible"
       id="marker10"
       refX="1.5"
       refY="-0.82499999"
       orient="auto"
       inkscape:stockid="Dot"
       markerWidth="0.30000001"
       markerHeight="0.30000001"
       viewBox="0 0 1 1"
       inkscape:isstock="true"
       inkscape:collect="always"
       preserveAspectRatio="xMidYMid">
      <path
         transform="scale(0.5)"
         style="fill:context-stroke;fill-rule:evenodd;stroke:none"
         d="M 5,0 C 5,2.76 2.76,5 0,5 -2.76,5 -5,2.76 -5,0 c 0,-2.76 2.3,-5 5,-5 2.76,0 5,2.24 5,5 z"
         sodipodi:nodetypes="sssss"
         id="path10" />
    </marker>
    <linearGradient
       inkscape:collect="always"
       xlink:href="#swatch28"
       id="linearGradient204"
       gradientUnits="userSpaceOnUse"
       gradientTransform="translate(59.692772,93.991518)"
       x1="88.34079"
       y1="150.47701"
       x2="129.88622"
       y2="150.47701" />
    <inkscape:path-effect
       effect="fillet_chamfer"
       id="path-effect256"
       is_visible="true"
       lpeversion="1"
       nodesatellites_param="F,0,0,1,0,2.2684297,0,1 @ F,0,0,1,0,2.2684297,0,1 @ F,0,0,1,0,2.2684297,0,1 @ F,0,0,1,0,2.2684297,0,1"
       radius="9"
       unit="px"
       method="auto"
       mode="F"
       chamfer_steps="1"
       flexible="false"
       use_knot_distance="true"
       apply_no_radius="true"
       apply_with_radius="true"
       only_selected="false"
       hide_knots="false" />
    <linearGradient
       inkscape:collect="always"
       xlink:href="#swatch3"
       id="linearGradient206"
       gradientUnits="userSpaceOnUse"
       gradientTransform="translate(63.83439,102.81361)"
       x1="85.543053"
       y1="150.52751"
       x2="133.11809"
       y2="150.52751" />
    <inkscape:path-effect
       effect="fillet_chamfer"
       id="path-effect258"
       is_visible="true"
       lpeversion="1"
       nodesatellites_param="F,0,0,1,0,3.9687499,0,1 @ F,0,0,1,0,3.9687499,0,1 @ F,0,0,1,0,3.9687499,0,1 @ F,0,0,1,0,3.9687499,0,1"
       radius="15"
       unit="px"
       method="auto"
       mode="F"
       chamfer_steps="1"
       flexible="false"
       use_knot_distance="true"
       apply_no_radius="true"
       apply_with_radius="true"
       only_selected="false"
       hide_knots="false" />
    <linearGradient
       id="swatch12"
       inkscape:label="Dark"
       gradientTransform="matrix(0.06960661,0,0,0.07000434,283.96932,1371.454)">
      <stop
         style="stop-color:#3b5f71;stop-opacity:1;"
         offset="0"
         id="stop12" />
    </linearGradient>
    <linearGradient
       inkscape:collect="always"
       xlink:href="#swatch28"
       id="linearGradient220"
       gradientUnits="userSpaceOnUse"
       gradientTransform="matrix(0.99431848,0,0,1,61.609817,194.64869)" />
    <linearGradient
       inkscape:collect="always"
       xlink:href="#swatch28"
       id="linearGradient1"
       gradientUnits="userSpaceOnUse"
       gradientTransform="matrix(0.99431848,0,0,1,61.609817,194.64869)" />
    <linearGradient
       inkscape:collect="always"
       xlink:href="#swatch3"
       id="linearGradient2"
       x1="106.70987"
       y1="250.74677"
       x2="122.89838"
       y2="250.74677"
       gradientUnits="userSpaceOnUse"
       gradientTransform="translate(59.659102,103.5)" />
    <linearGradient
       inkscape:collect="always"
       xlink:href="#swatch3"
       id="linearGradient3"
       x1="62.736721"
       y1="148.61646"
       x2="147.1669"
       y2="148.61646"
       gradientUnits="userSpaceOnUse"
       gradientTransform="translate(59.999994,103.5)" />
    <linearGradient
       inkscape:collect="always"
       xlink:href="#swatch4"
       id="linearGradient4"
       x1="106.70987"
       y1="250.74677"
       x2="122.89838"
       y2="250.74677"
       gradientUnits="userSpaceOnUse"
       gradientTransform="translate(59.659102,103.5)" />
    <linearGradient
       inkscape:collect="always"
       xlink:href="#swatch2"
       id="linearGradient5"
       x1="110.29986"
       y1="250.74677"
       x2="119.30839"
       y2="250.74677"
       gradientUnits="userSpaceOnUse"
       gradientTransform="translate(59.659102,103.5)" />
    <linearGradient
       inkscape:collect="always"
       xlink:href="#swatch3"
       id="linearGradient6"
       x1="110.29986"
       y1="250.74677"
       x2="119.30839"
       y2="250.74677"
       gradientUnits="userSpaceOnUse"
       gradientTransform="translate(59.659102,103.5)" />
    <linearGradient
       inkscape:collect="always"
       xlink:href="#swatch4"
       id="linearGradient7"
       x1="97.363121"
       y1="258.32849"
       x2="101.92344"
       y2="258.32849"
       gradientUnits="userSpaceOnUse"
       gradientTransform="translate(59.659102,103.5)" />
    <linearGradient
       inkscape:collect="always"
       xlink:href="#swatch4"
       id="linearGradient8"
       x1="88.644966"
       y1="258.32849"
       x2="93.205055"
       y2="258.32849"
       gradientUnits="userSpaceOnUse"
       gradientTransform="translate(59.659102,103.5)" />
    <linearGradient
       inkscape:collect="always"
       xlink:href="#swatch3"
       id="linearGradient9"
       x1="97.363121"
       y1="258.32849"
       x2="101.92344"
       y2="258.32849"
       gradientUnits="userSpaceOnUse"
       gradientTransform="translate(59.659102,103.5)" />
    <linearGradient
       inkscape:collect="always"
       xlink:href="#swatch3"
       id="linearGradient10"
       x1="88.644966"
       y1="258.32849"
       x2="93.205055"
       y2="258.32849"
       gradientUnits="userSpaceOnUse"
       gradientTransform="translate(59.659102,103.5)" />
    <linearGradient
       inkscape:collect="always"
       xlink:href="#swatch3"
       id="linearGradient11"
       x1="122.20873"
       y1="257.75787"
       x2="125.15485"
       y2="257.75787"
       gradientUnits="userSpaceOnUse"
       gradientTransform="translate(59.659102,103.5)" />
    <linearGradient
       inkscape:collect="always"
       xlink:href="#swatch3"
       id="linearGradient12"
       x1="122.20873"
       y1="244.09735"
       x2="125.15485"
       y2="244.09735"
       gradientUnits="userSpaceOnUse"
       gradientTransform="translate(59.659102,103.5)" />
    <linearGradient
       inkscape:collect="always"
       xlink:href="#swatch28"
       id="linearGradient13"
       x1="85.543053"
       y1="150.52751"
       x2="133.11809"
       y2="150.52751"
       gradientUnits="userSpaceOnUse"
       gradientTransform="translate(59.659102,114.81283)" />
    <linearGradient
       inkscape:collect="always"
       xlink:href="#swatch3"
       id="linearGradient14"
       gradientUnits="userSpaceOnUse"
       gradientTransform="matrix(0.99431848,0,0,1,61.609817,194.64869)" />
    <linearGradient
       inkscape:collect="always"
       xlink:href="#swatch3"
       id="linearGradient15"
       gradientUnits="userSpaceOnUse"
       gradientTransform="matrix(0.99431848,0,0,1,61.609817,194.64869)" />
    <linearGradient
       inkscape:collect="always"
       xlink:href="#swatch3"
       id="linearGradient16"
       x1="59.854229"
       y1="233.4948"
       x2="152.85304"
       y2="233.4948"
       gradientUnits="userSpaceOnUse"
       gradientTransform="matrix(0.98837209,0,0,0.98232773,66.119559,93.917902)" />
    <linearGradient
       inkscape:collect="always"
       xlink:href="#swatch12"
       id="linearGradient17"
       gradientTransform="matrix(3.0742566,0,0,0.3252819,59.659102,103.5)"
       x1="28.233162"
       y1="777.33813"
       x2="33.751083"
       y2="777.33813"
       gradientUnits="userSpaceOnUse" />
    <linearGradient
       inkscape:collect="always"
       xlink:href="#swatch12"
       id="linearGradient18"
       gradientTransform="matrix(3.153504,0,0,0.31710757,59.659102,103.5)"
       x1="27.523664"
       y1="788.74622"
       x2="32.869358"
       y2="788.74622"
       gradientUnits="userSpaceOnUse" />
    <linearGradient
       inkscape:collect="always"
       xlink:href="#swatch12"
       id="linearGradient19"
       gradientTransform="matrix(3.47389,0,0,0.28786173,59.659102,103.5)"
       x1="24.985243"
       y1="860.41278"
       x2="29.834862"
       y2="860.41278"
       gradientUnits="userSpaceOnUse" />
    <linearGradient
       inkscape:collect="always"
       xlink:href="#swatch12"
       id="linearGradient20"
       gradientTransform="matrix(3.2526951,0,0,0.30743736,59.659102,103.5)"
       x1="26.684328"
       y1="797.05017"
       x2="31.87384"
       y2="797.05017"
       gradientUnits="userSpaceOnUse" />
    <linearGradient
       inkscape:collect="always"
       xlink:href="#swatch12"
       id="linearGradient21"
       gradientTransform="matrix(3.0690078,0,0,0.32583821,59.659102,103.5)"
       x1="28.298809"
       y1="743.33417"
       x2="33.807312"
       y2="743.33417"
       gradientUnits="userSpaceOnUse" />
    <linearGradient
       inkscape:collect="always"
       xlink:href="#swatch3"
       id="linearGradient29"
       gradientUnits="userSpaceOnUse"
       x1="2.8980393"
       y1="13.008676"
       x2="79.009895"
       y2="13.008676"
       gradientTransform="translate(1.2208366,-29.633333)" />
  </defs>
  <g
     inkscape:groupmode="layer"
     id="g251"
     inkscape:label="Radio"
     transform="matrix(1.005714,0,0,1,-61.961861,-194.6487)"
     style="display:inline;stroke-width:0.997155"
     inkscape:export-filename="hero.svg"
     inkscape:export-xdpi="96"
     inkscape:export-ydpi="96">
    <g
       inkscape:groupmode="layer"
       id="layer2"
       inkscape:label="Background"
       inkscape:export-filename="hero.svg"
       inkscape:export-xdpi="96"
       inkscape:export-ydpi="96"
       transform="matrix(0.99431848,0,0,1,1.95072,91.148699)"
       style="display:inline">
      <path
         style="display:inline;fill:#ede0cb;fill-opacity:1;stroke:none;stroke-width:1.66895;stroke-dasharray:none"
         id="path227"
         width="92.998817"
         height="74.877083"
         x="59.854229"
         y="196.05624"
         inkscape:path-effect="#path-effect252"
         sodipodi:type="rect"
         d="m 83.666728,196.05624 h 45.373822 a 23.812499,23.812499 45 0 1 23.8125,23.8125 v 27.25209 a 23.812499,23.812499 135 0 1 -23.8125,23.8125 H 83.666728 a 23.812499,23.812499 45 0 1 -23.812499,-23.8125 v -27.25209 a 23.812499,23.812499 135 0 1 23.812499,-23.8125 z"
         inkscape:label="Outside"
         transform="matrix(0.96775423,0,0,1.2019699,2.0758172,-132.1537)" />
      <g
         id="g14"
         inkscape:label="Background Color">
        <path
           style="display:inline;fill:url(#linearGradient16);stroke:none;stroke-width:1.74122;stroke-dasharray:none"
           id="path15"
           width="92.998817"
           height="74.877083"
           x="59.854229"
           y="196.05624"
           inkscape:path-effect="#path-effect16"
           sodipodi:type="rect"
           d="m 83.666728,196.05624 h 45.373822 a 23.812499,23.812499 45 0 1 23.8125,23.8125 v 27.25209 a 23.812499,23.812499 135 0 1 -23.8125,23.8125 H 83.666728 a 23.812499,23.812499 45 0 1 -23.812499,-23.8125 v -27.25209 a 23.812499,23.812499 135 0 1 23.812499,-23.8125 z"
           inkscape:label="Outside"
           transform="matrix(0.92474294,0,0,1.1556159,6.6502234,-121.59488)" />
        <path
           id="path228"
           style="display:inline;fill:url(#linearGradient3);fill-opacity:1;stroke:none;stroke-width:1.8;stroke-dasharray:none"
           d="m 81.55501,105.95906 a 21.643063,27.205982 0 0 0 -5.457424,1.83794 21.643063,27.205982 0 0 1 5.457424,-1.83794 z m -12.479225,7.73561 a 21.643063,27.205982 0 0 0 -1.866215,2.67524 21.643063,27.205982 0 0 1 1.866711,-2.67524 21.643063,27.205982 0 0 0 -4.96e-4,0 z m -4.691146,8.82634 a 21.643063,27.205982 0 0 0 -1.462441,6.85981 21.643063,27.205982 0 0 1 1.462441,-6.85981 z m -1.462441,6.85981 a 21.643063,27.205982 0 0 0 -0.185478,3.55103 v 31.13627 a 21.643063,27.205982 0 0 0 0.002,0.0335 21.643063,27.205982 0 0 1 -0.0014,-0.0335 v -31.13627 a 21.643063,27.205982 0 0 1 0.184981,-3.55103 z m -0.05171,37.24637 a 21.643063,27.205982 0 0 0 21.509458,24.64666 h 41.240214 a 21.643063,27.205982 0 0 0 21.54674,-24.64666 z"
           inkscape:label="Dark" />
        <path
           id="path229"
           style="display:inline;fill:#45b5aa;fill-opacity:1;stroke:none;stroke-width:1.8;stroke-dasharray:none"
           d="m 84.379941,105.72613 a 21.643063,27.205982 0 0 0 -2.884603,0.24783 21.643063,27.205982 0 0 1 2.884603,-0.24783 z m 41.240219,0 a 21.643063,27.205982 0 0 1 2.8846,0.24783 21.643063,27.205982 0 0 0 -2.8846,-0.24783 z m 3.81397,0.48014 a 21.643063,27.205982 0 0 1 1.90452,0.49629 21.643063,27.205982 0 0 0 -1.90452,-0.49629 z m -48.888557,0.006 a 21.643063,27.205982 0 0 0 -1.88014,0.49006 21.643063,27.205982 0 0 1 1.88014,-0.49006 z m 51.876107,0.95281 a 21.643063,27.205982 0 0 1 1.64294,0.73294 21.643063,27.205982 0 0 0 -1.64294,-0.73294 z m -54.849719,0.004 a 21.643063,27.205982 0 0 0 -1.639963,0.7317 21.643063,27.205982 0 0 1 1.639963,-0.7317 z m -2.733436,1.40935 a 21.643063,27.205982 0 0 0 -1.48233,0.96401 21.643063,27.205982 0 0 1 1.48233,-0.96401 z m 60.335975,0.01 a 21.643063,27.205982 0 0 1 1.46891,0.95468 21.643063,27.205982 0 0 0 -1.46891,-0.95468 z m -62.878462,1.8454 a 21.643063,27.205982 0 0 0 -1.320225,1.16897 21.643063,27.205982 0 0 1 1.320225,-1.16897 z m 65.408022,0 a 21.643063,27.205982 0 0 1 1.32023,1.16897 21.643063,27.205982 0 0 0 -1.32023,-1.16897 z m -67.708345,2.24975 a 21.643063,27.205982 0 0 0 -1.161102,1.35967 21.643063,27.205982 0 0 1 1.161102,-1.35967 z m 70.012155,0.004 a 21.643063,27.205982 0 0 1 1.15563,1.35346 21.643063,27.205982 0 0 0 -1.15563,-1.35346 z m -72.041471,2.60071 a 21.643063,27.205982 0 0 0 -0.99452,1.5317 21.643063,27.205982 0 0 1 0.99452,-1.5317 z m 74.071271,0.006 a 21.643063,27.205982 0 0 1 0.99006,1.5255 21.643063,27.205982 0 0 0 -0.99006,-1.5255 z m -75.807204,2.92119 a 21.643063,27.205982 0 0 0 -0.809042,1.66588 21.643063,27.205982 0 0 1 0.809042,-1.66588 z m 77.539174,0 a 21.643063,27.205982 0 0 1 0.80953,1.66713 21.643063,27.205982 0 0 0 -0.80953,-1.66713 z m 1.40227,3.17648 a 21.643063,27.205982 0 0 1 0.62257,1.79323 21.643063,27.205982 0 0 0 -0.62257,-1.79323 z m -80.347197,0.0108 a 21.643063,27.205982 0 0 0 -0.616602,1.77459 21.643063,27.205982 0 0 1 0.616602,-1.77459 z m 81.399887,3.37463 a 21.643063,27.205982 0 0 1 0.42169,1.87645 21.643063,27.205982 0 0 0 -0.42169,-1.87645 z m -82.451591,0.0125 a 21.643063,27.205982 0 0 0 -0.417698,1.85844 21.643063,27.205982 0 0 1 0.417698,-1.85844 z m -0.681743,3.52742 a 21.643063,27.205982 0 0 0 -0.213325,1.91744 21.643063,27.205982 0 0 1 0.213325,-1.91744 z m 83.818064,0 a 21.643063,27.205982 0 0 1 0.21283,1.91247 21.643063,27.205982 0 0 0 -0.21283,-1.91247 z m -84.072163,2.69512 a 21.643063,27.205982 0 0 0 -0.09995,1.92302 v 31.13627 a 21.643063,27.205982 0 0 0 0.09597,2.55906 h 84.334223 a 21.643063,27.205982 0 0 0 0.0959,-2.55906 v -31.13627 a 21.643063,27.205982 0 0 0 -0.10047,-1.92302 z"
           inkscape:label="Turqouis" />
        <path
           id="path230"
           style="display:inline;fill:#b2e1dd;fill-opacity:1;stroke:none;stroke-width:1.8;stroke-dasharray:none"
           d="M 147.20907,131.00886 H 62.790994 V 136.2 h 84.417996 v -5.19114 c -0.80304,-14.24345 -10.22949,-25.28278 -21.58895,-25.2827 H 84.379832 c -11.359262,2.6e-4 -20.785498,11.03949 -21.588522,25.2827"
           inkscape:label="Light"
           sodipodi:nodetypes="cccccccc" />
      </g>
    </g>
    <path
       style="display:inline;fill:none;fill-opacity:1;stroke:url(#linearGradient202);stroke-width:1.79488;stroke-linecap:square;stroke-linejoin:round;stroke-dasharray:none;marker-end:url(#Dot)"
       d="m 124.99735,264.93583 h -2.89561"
       id="path231"
       inkscape:label="Foot2"
       sodipodi:nodetypes="cc" />
    <path
       style="display:inline;fill:none;fill-opacity:1;stroke:url(#linearGradient203);stroke-width:1.79488;stroke-linecap:square;stroke-linejoin:round;stroke-dasharray:none;marker-start:url(#marker10)"
       d="M 90.17628,264.93583 H 87.280676"
       id="path232"
       inkscape:label="Foot1"
       sodipodi:nodetypes="cc" />
    <path
       style="display:inline;fill:url(#linearGradient13);stroke:url(#linearGradient206);stroke-width:1.57535;stroke-linejoin:miter;stroke-dasharray:none"
       id="path234"
       width="45.999687"
       height="27.354849"
       x="86.330727"
       y="136.85008"
       inkscape:path-effect="#path-effect258"
       sodipodi:type="rect"
       d="m 90.299477,136.85008 h 38.062183 a 3.9687499,3.9687499 45 0 1 3.96875,3.96875 v 19.41735 a 3.9687499,3.9687499 135 0 1 -3.96875,3.96875 H 90.299477 a 3.9687499,3.9687499 45 0 1 -3.96875,-3.96875 v -19.41735 a 3.9687499,3.9687499 135 0 1 3.96875,-3.96875 z"
       inkscape:label="OuterEdge"
       transform="matrix(1,0,0,0.90146714,-2.9764116,115.45005)" />
    <path
       style="display:inline;fill:url(#linearGradient204);fill-opacity:1;stroke:#45b5aa;stroke-width:0.971049;stroke-linejoin:miter;stroke-dasharray:none;stroke-dashoffset:0;stroke-opacity:1"
       id="path233"
       width="40.574371"
       height="22.604408"
       x="88.826317"
       y="139.1748"
       inkscape:label="InnerEdge"
       inkscape:path-effect="#path-effect256"
       sodipodi:type="rect"
       d="m 91.094747,139.1748 h 36.037513 a 2.2684297,2.2684297 45 0 1 2.26843,2.26843 v 18.06755 a 2.2684297,2.2684297 135 0 1 -2.26843,2.26843 H 91.094747 a 2.2684297,2.2684297 45 0 1 -2.26843,-2.26843 v -18.06755 a 2.2684297,2.2684297 135 0 1 2.26843,-2.26843 z"
       transform="matrix(1.0693822,0,0,0.98607929,-10.330399,102.76533)" />
    <ellipse
       style="display:inline;fill:url(#linearGradient4);fill-opacity:1;stroke:url(#linearGradient2);stroke-width:0.997155;stroke-linejoin:miter;stroke-dasharray:none;stroke-opacity:1"
       id="ellipse234"
       cx="114.80412"
       cy="250.74677"
       inkscape:label="OuterKnob"
       rx="7.5956798"
       ry="7.6423163" />
    <ellipse
       style="fill:url(#linearGradient5);fill-opacity:1;stroke:url(#linearGradient6);stroke-width:1.49573;stroke-linejoin:miter;stroke-dasharray:none;stroke-opacity:1"
       id="ellipse235"
       cx="114.80412"
       cy="250.74677"
       inkscape:label="InnerKnob"
       rx="4.1552577"
       ry="4.1822491" />
    <ellipse
       style="display:inline;fill:url(#linearGradient11);fill-opacity:1;stroke:none;stroke-width:0.498578;stroke-linejoin:miter;stroke-dasharray:none;stroke-opacity:1"
       id="ellipse236"
       cx="123.68179"
       cy="257.75787"
       rx="1.4730586"
       ry="1.483165"
       inkscape:label="Knob4" />
    <ellipse
       style="display:inline;fill:url(#linearGradient12);fill-opacity:1;stroke:none;stroke-width:0.498578;stroke-linejoin:miter;stroke-dasharray:none;stroke-opacity:1"
       id="ellipse237"
       cx="123.68179"
       cy="244.09735"
       rx="1.4730586"
       ry="1.483165"
       inkscape:label="Knob3" />
    <ellipse
       style="display:inline;fill:url(#linearGradient7);fill-opacity:1;stroke:url(#linearGradient9);stroke-width:0.997155;stroke-linejoin:miter;stroke-dasharray:none;stroke-opacity:1"
       id="ellipse238"
       cx="99.64328"
       cy="258.32849"
       rx="1.9311552"
       ry="1.9443722"
       inkscape:label="Knob2" />
    <ellipse
       style="display:inline;fill:url(#linearGradient8);fill-opacity:1;stroke:url(#linearGradient10);stroke-width:0.997155;stroke-linejoin:miter;stroke-dasharray:none;stroke-opacity:1"
       id="ellipse239"
       cx="90.925011"
       cy="258.32849"
       rx="1.9310406"
       ry="1.9446654"
       inkscape:label="Knob1" />
    <path
       style="display:inline;fill:url(#linearGradient17);fill-opacity:1;stroke:#296b65;stroke-width:1.79488;stroke-linecap:square;stroke-linejoin:miter;stroke-dasharray:none;stroke-opacity:1"
       d="M 87.693423,253.75146 H 102.86205"
       id="path239"
       inkscape:label="Line5" />
    <path
       style="display:inline;fill:url(#linearGradient18);fill-opacity:1;stroke:#296b65;stroke-width:1.69516;stroke-linecap:square;stroke-linejoin:miter;stroke-dasharray:none;stroke-opacity:1"
       d="M 87.643563,250.96498 H 102.80607"
       id="path240"
       inkscape:label="Line4" />
    <path
       style="fill:url(#linearGradient19);fill-opacity:1;stroke:#296b65;stroke-width:1.39602;stroke-linecap:square;stroke-linejoin:miter;stroke-dasharray:none;stroke-opacity:1"
       d="M 87.493993,248.37793 H 102.94502"
       id="path241"
       inkscape:label="Line3" />
    <path
       style="fill:url(#linearGradient20);fill-opacity:1;stroke:#296b65;stroke-width:1.59545;stroke-linecap:square;stroke-linejoin:miter;stroke-dasharray:none;stroke-opacity:1"
       d="M 87.593708,245.84073 H 102.87816"
       id="path242"
       inkscape:label="Line2" />
    <path
       style="fill:url(#linearGradient21);fill-opacity:1;stroke:#296b65;stroke-width:1.79488;stroke-linecap:square;stroke-linejoin:miter;stroke-dasharray:none;stroke-opacity:1"
       d="M 87.746708,243.10411 H 102.85746"
       id="path243"
       inkscape:label="Line1" />
    <path
       style="display:inline;fill:url(#linearGradient14);stroke:none;stroke-width:1.79488;stroke-linecap:square;stroke-linejoin:round;stroke-dasharray:none;stroke-opacity:1"
       d="m 106.74534,226.89658 2.95683,9.85043 v 1.82373 h 2.94527 l -0.70457,-2.06766 -3.97322,-10.18731 z"
       id="path13"
       inkscape:label="AntennaBottom" />
    <path
       style="display:inline;fill:url(#linearGradient15);stroke:none;stroke-width:1.79488;stroke-linecap:square;stroke-linejoin:round;stroke-dasharray:none;stroke-opacity:1"
       id="path245"
       sodipodi:type="arc"
       sodipodi:cx="107.2204"
       sodipodi:cy="225.45215"
       sodipodi:rx="2.0805321"
       sodipodi:ry="2.0924201"
       sodipodi:start="0.087266463"
       sodipodi:end="6.2831853"
       sodipodi:open="true"
       sodipodi:arc-type="arc"
       d="m 109.29301,225.63451 a 2.0805321,2.0924201 0 0 1 -2.20869,1.90558 2.0805321,2.0924201 0 0 1 -1.94247,-2.17921 2.0805321,2.0924201 0 0 1 2.12393,-2.00065 2.0805321,2.0924201 0 0 1 2.03515,2.09192"
       inkscape:label="AntennaTop" />
    <path
       style="display:inline;fill:url(#linearGradient1);stroke:none;stroke-width:1.79488;stroke-linecap:square;stroke-linejoin:round;stroke-dasharray:none;stroke-opacity:1"
       d="m 106.21918,226.89658 2.95683,9.85043 v 1.82373 h 2.94527 l -0.70457,-2.06766 -3.97322,-10.18731 z"
       id="path244"
       inkscape:label="AntennaBottom" />
    <path
       style="display:inline;fill:url(#linearGradient220);stroke:none;stroke-width:1.79488;stroke-linecap:square;stroke-linejoin:round;stroke-dasharray:none;stroke-opacity:1"
       id="path14"
       sodipodi:type="arc"
       sodipodi:cx="106.69424"
       sodipodi:cy="225.25922"
       sodipodi:rx="2.0805321"
       sodipodi:ry="2.0924201"
       sodipodi:start="0.087266463"
       sodipodi:end="6.2831853"
       sodipodi:open="true"
       sodipodi:arc-type="arc"
       d="m 108.76685,225.44158 a 2.0805321,2.0924201 0 0 1 -2.20869,1.90558 2.0805321,2.0924201 0 0 1 -1.94248,-2.17921 2.0805321,2.0924201 0 0 1 2.12394,-2.00066 2.0805321,2.0924201 0 0 1 2.03515,2.09193"
       inkscape:label="AntennaTop" />
    <path
       style="fill:none;fill-opacity:1;stroke:#296b65;stroke-width:1.2963;stroke-linecap:round;stroke-linejoin:round;stroke-dasharray:none;stroke-opacity:1"
       d="m 112.70348,221.44802 c 2.8777,2.91378 2.06215,5.43294 0.196,7.62242"
       id="path246"
       sodipodi:nodetypes="cc"
       inkscape:label="SignalRightInner" />
    <path
       style="fill:none;fill-opacity:1;stroke:#296b65;stroke-width:1.2963;stroke-linecap:round;stroke-linejoin:round;stroke-dasharray:none;stroke-opacity:1"
       d="m 114.84709,217.70878 c 5.56862,4.39101 5.8321,10.774 0.69301,15.1009"
       id="path247"
       sodipodi:nodetypes="cc"
       inkscape:label="SignalRightMiddle" />
    <path
       style="fill:none;fill-opacity:1;stroke:#296b65;stroke-width:1.2963;stroke-linecap:round;stroke-linejoin:round;stroke-dasharray:none;stroke-opacity:1"
       d="m 117.75772,214.10779 c 0.01,0.0384 13.31324,10.90301 0.0924,22.30288"
       id="path248"
       sodipodi:nodetypes="cc"
       inkscape:label="SignalRightOuter" />
    <path
       style="fill:none;fill-opacity:1;stroke:#296b65;stroke-width:1.2963;stroke-linecap:round;stroke-linejoin:round;stroke-dasharray:none;stroke-opacity:1"
       d="m 100.85657,221.44802 c -2.877701,2.91378 -2.062151,5.43294 -0.196,7.62242"
       id="path249"
       sodipodi:nodetypes="cc"
       inkscape:label="SignalLeftInner" />
    <path
       style="fill:none;fill-opacity:1;stroke:#296b65;stroke-width:1.2963;stroke-linecap:round;stroke-linejoin:round;stroke-dasharray:none;stroke-opacity:1"
       d="m 98.712959,217.70878 c -5.568623,4.39101 -5.832103,10.774 -0.69301,15.1009"
       id="path250"
       sodipodi:nodetypes="cc"
       inkscape:label="SignalLeftMiddle" />
    <path
       style="fill:none;fill-opacity:1;stroke:#296b65;stroke-width:1.2963;stroke-linecap:round;stroke-linejoin:round;stroke-dasharray:none;stroke-opacity:1"
       d="m 95.802326,214.10779 c -0.01,0.0384 -13.313237,10.90301 -0.0924,22.30288"
       id="path251"
       sodipodi:nodetypes="cc"
       inkscape:label="SignalRightOuter" />
  </g>
  <g
     inkscape:groupmode="layer"
     id="layer1"
     inkscape:label="Text">
    <path
       d="m 11.777889,77.601547 1.038577,-3.951108 h 1.298222 l 1.038577,3.951108 h -0.767644 l -0.214489,-0.869244 h -1.41111 l -0.214489,0.869244 z M 12.935,76.043682 h 1.061154 l -0.479777,-1.924754 h -0.1016 z m 3.50873,1.557865 v -2.799642 h 0.69991 v 0.3048 h 0.1016 q 0.07338,-0.141111 0.242711,-0.242711 0.169333,-0.107245 0.445911,-0.107245 0.299155,0 0.479777,0.118534 0.180622,0.112888 0.276578,0.299155 h 0.1016 q 0.09595,-0.180622 0.270933,-0.299155 0.174977,-0.118534 0.49671,-0.118534 0.259645,0 0.468489,0.112889 0.214489,0.107245 0.338666,0.333022 0.129823,0.220133 0.129823,0.5588 v 1.840087 h -0.7112 V 75.81226 q 0,-0.231422 -0.118533,-0.344311 -0.118533,-0.118533 -0.333022,-0.118533 -0.242711,0 -0.378178,0.158044 -0.129822,0.1524 -0.129822,0.440266 v 1.653821 H 18.114484 V 75.81226 q 0,-0.231422 -0.118533,-0.344311 -0.118534,-0.118533 -0.333022,-0.118533 -0.242711,0 -0.378178,0.158044 -0.129822,0.1524 -0.129822,0.440266 v 1.653821 z m 6.483346,0.07902 q -0.299155,0 -0.536222,-0.1016 -0.237066,-0.107244 -0.378177,-0.304799 -0.135467,-0.2032 -0.135467,-0.491067 0,-0.287866 0.135467,-0.479777 0.141111,-0.197555 0.383822,-0.293511 0.248355,-0.1016 0.564444,-0.1016 h 0.767644 v -0.158044 q 0,-0.197556 -0.124178,-0.321733 -0.124178,-0.129822 -0.395111,-0.129822 -0.265289,0 -0.395111,0.124177 -0.129822,0.118534 -0.169333,0.310445 l -0.654755,-0.220134 q 0.06773,-0.214488 0.214489,-0.389466 0.1524,-0.180622 0.400755,-0.287866 0.254,-0.112889 0.615244,-0.112889 0.553155,0 0.874888,0.276577 0.321733,0.276578 0.321733,0.801511 v 1.044221 q 0,0.169333 0.158045,0.169333 h 0.225777 v 0.587022 h -0.474133 q -0.208844,0 -0.344311,-0.1016 -0.135466,-0.1016 -0.135466,-0.270933 v -0.0056 h -0.107244 q -0.02258,0.06773 -0.1016,0.180622 -0.07902,0.107244 -0.248356,0.191911 -0.169333,0.08467 -0.462844,0.08467 z m 0.124178,-0.575732 q 0.299155,0 0.485422,-0.163689 0.191911,-0.169333 0.191911,-0.445911 v -0.05644 h -0.716844 q -0.197556,0 -0.310444,0.08467 -0.112889,0.08467 -0.112889,0.237067 0,0.1524 0.118533,0.248355 0.118533,0.09596 0.344311,0.09596 z m 3.932046,0.49671 q -0.276577,0 -0.451555,-0.169333 -0.169333,-0.174978 -0.169333,-0.462844 v -1.580443 h -0.699911 v -0.587022 h 0.699911 v -0.869244 h 0.7112 v 0.869244 h 0.767643 v 0.587022 h -0.767643 v 1.456265 q 0,0.169333 0.158044,0.169333 h 0.541866 v 0.587022 z m 3.469214,0.07902 q -0.417688,0 -0.739421,-0.174977 -0.316089,-0.180622 -0.496711,-0.502355 -0.174978,-0.327378 -0.174978,-0.767644 v -0.06773 q 0,-0.440266 0.174978,-0.761999 0.174978,-0.327378 0.491066,-0.502355 0.316089,-0.180622 0.733778,-0.180622 0.412044,0 0.716843,0.186266 0.3048,0.180622 0.474133,0.508 0.169334,0.321733 0.169334,0.75071 v 0.242711 h -2.037643 q 0.01129,0.287867 0.214488,0.468489 0.2032,0.180622 0.496711,0.180622 0.299155,0 0.440267,-0.129822 0.141111,-0.129822 0.214488,-0.287867 l 0.581378,0.3048 q -0.07902,0.146756 -0.231422,0.321733 -0.146756,0.169333 -0.395111,0.293511 -0.248356,0.118533 -0.632178,0.118533 z m -0.682977,-1.800576 h 1.30951 q -0.02258,-0.242711 -0.197555,-0.389466 -0.169333,-0.146756 -0.445911,-0.146756 -0.287866,0 -0.4572,0.146756 -0.169333,0.146755 -0.208844,0.389466 z m 4.524722,1.76671 q -0.327378,0 -0.575733,-0.146756 -0.242711,-0.1524 -0.378178,-0.417688 -0.135466,-0.265289 -0.135466,-0.6096 v -1.670754 h 0.711199 v 1.61431 q 0,0.316088 0.1524,0.474133 0.158044,0.158044 0.445911,0.158044 0.327377,0 0.508,-0.214489 0.180622,-0.220133 0.180622,-0.609599 v -1.422399 h 0.711199 v 2.799642 h -0.699911 v -0.366888 h -0.101599 q -0.06773,0.141111 -0.254,0.276577 -0.186267,0.135467 -0.564444,0.135467 z m 3.203922,-0.04516 v -2.799642 h 0.699911 v 0.316089 h 0.101599 q 0.06209,-0.169334 0.2032,-0.248356 0.146756,-0.07902 0.338667,-0.07902 h 0.338666 v 0.632177 h -0.349955 q -0.270933,0 -0.445911,0.146756 -0.174978,0.141111 -0.174978,0.440266 v 1.591732 z m 5.233806,0 v -3.951108 h 1.71591 q 0.372533,0 0.649111,0.129822 0.276577,0.129822 0.428977,0.366889 0.1524,0.237066 0.1524,0.558799 v 0.06773 q 0,0.355599 -0.169333,0.575733 -0.169334,0.220133 -0.417689,0.321733 v 0.1016 q 0.225778,0.01129 0.349955,0.158044 0.124178,0.141111 0.124178,0.378177 v 1.292577 H 44.82043 v -1.185332 q 0,-0.135467 -0.07338,-0.220133 -0.06773,-0.08467 -0.231422,-0.08467 h -1.038577 v 1.490132 z m 0.745066,-2.167465 h 0.891822 q 0.265288,0 0.412044,-0.141111 0.1524,-0.146755 0.1524,-0.383822 v -0.05644 q 0,-0.237067 -0.146756,-0.378178 -0.146755,-0.146755 -0.417688,-0.146755 h -0.891822 z m 4.507792,2.246487 q -0.299155,0 -0.536222,-0.1016 -0.237066,-0.107244 -0.378177,-0.304799 -0.135467,-0.2032 -0.135467,-0.491067 0,-0.287866 0.135467,-0.479777 0.141111,-0.197555 0.383822,-0.293511 0.248355,-0.1016 0.564444,-0.1016 h 0.767643 v -0.158044 q 0,-0.197556 -0.124177,-0.321733 -0.124178,-0.129822 -0.395111,-0.129822 -0.265289,0 -0.395111,0.124177 -0.129822,0.118534 -0.169333,0.310445 l -0.654755,-0.220134 q 0.06773,-0.214488 0.214489,-0.389466 0.152399,-0.180622 0.400755,-0.287866 0.254,-0.112889 0.615244,-0.112889 0.553155,0 0.874888,0.276577 0.321733,0.276578 0.321733,0.801511 v 1.044221 q 0,0.169333 0.158044,0.169333 h 0.225778 v 0.587022 h -0.474133 q -0.208844,0 -0.344311,-0.1016 -0.135466,-0.1016 -0.135466,-0.270933 v -0.0056 h -0.107245 q -0.02258,0.06773 -0.1016,0.180622 -0.07902,0.107244 -0.248355,0.191911 -0.169333,0.08467 -0.462844,0.08467 z m 0.124178,-0.575732 q 0.299155,0 0.485421,-0.163689 0.191911,-0.169333 0.191911,-0.445911 v -0.05644 h -0.716843 q -0.197556,0 -0.310445,0.08467 -0.112888,0.08467 -0.112888,0.237067 0,0.1524 0.118533,0.248355 0.118533,0.09596 0.344311,0.09596 z m 4.135253,0.575732 q -0.333022,0 -0.626533,-0.163688 -0.287867,-0.169334 -0.462844,-0.491067 -0.174978,-0.321733 -0.174978,-0.778932 v -0.09031 q 0,-0.4572 0.174978,-0.778933 0.174977,-0.321733 0.462844,-0.485422 0.287866,-0.169333 0.626533,-0.169333 0.253999,0 0.423333,0.06209 0.174977,0.05644 0.282222,0.146755 0.107244,0.09031 0.163688,0.191911 h 0.1016 v -1.473199 h 0.7112 v 3.951108 h -0.699911 v -0.338666 h -0.1016 q -0.09596,0.158044 -0.299155,0.287866 -0.197555,0.129822 -0.581377,0.129822 z m 0.214488,-0.620888 q 0.327378,0 0.547511,-0.208844 0.220133,-0.214489 0.220133,-0.620889 v -0.05644 q 0,-0.4064 -0.220133,-0.615244 -0.214489,-0.214489 -0.547511,-0.214489 -0.327377,0 -0.54751,0.214489 -0.220134,0.208844 -0.220134,0.615244 v 0.05644 q 0,0.4064 0.220134,0.620889 0.220133,0.208844 0.54751,0.208844 z m 3.051529,0.541866 v -2.799642 h 0.711199 v 2.799642 z m 0.355599,-3.12702 q -0.191911,0 -0.327377,-0.124177 -0.129822,-0.124178 -0.129822,-0.327378 0,-0.2032 0.129822,-0.327377 0.135466,-0.124178 0.327377,-0.124178 0.197556,0 0.327378,0.124178 0.129822,0.124177 0.129822,0.327377 0,0.2032 -0.129822,0.327378 -0.129822,0.124177 -0.327378,0.124177 z m 3.271662,3.206042 q -0.417688,0 -0.75071,-0.169333 Q 58.053822,77.341903 57.861911,77.02017 57.67,76.698437 57.67,76.246882 v -0.09031 q 0,-0.451556 0.191911,-0.773289 0.191911,-0.321733 0.524933,-0.491066 0.333022,-0.169333 0.75071,-0.169333 0.417689,0 0.750711,0.169333 0.333022,0.169333 0.524933,0.491066 0.191911,0.321733 0.191911,0.773289 v 0.09031 q 0,0.451555 -0.191911,0.773288 -0.191911,0.321733 -0.524933,0.491066 -0.333022,0.169333 -0.750711,0.169333 z m 0,-0.632177 q 0.327378,0 0.541866,-0.208844 0.214489,-0.214489 0.214489,-0.6096 v -0.05644 q 0,-0.395111 -0.214489,-0.603955 -0.208844,-0.214489 -0.541866,-0.214489 -0.327377,0 -0.541866,0.214489 -0.214489,0.208844 -0.214489,0.603955 v 0.05644 q 0,0.395111 0.214489,0.6096 0.214489,0.208844 0.541866,0.208844 z m 6.622338,0.632177 q -0.733777,0 -1.162755,-0.406399 Q 64.16816,76.862126 64.16816,76.100126 V 75.15186 q 0,-0.761999 0.428977,-1.168399 0.428978,-0.412044 1.162755,-0.412044 0.728133,0 1.123243,0.400755 0.400756,0.395111 0.400756,1.089377 v 0.03387 h -0.733778 v -0.05644 q 0,-0.349955 -0.197555,-0.575732 -0.191911,-0.225778 -0.592666,-0.225778 -0.395111,0 -0.620889,0.242711 -0.225777,0.242711 -0.225777,0.660399 v 0.970844 q 0,0.412044 0.225777,0.6604 0.225778,0.24271 0.620889,0.24271 0.400755,0 0.592666,-0.225777 0.197555,-0.231422 0.197555,-0.575733 v -0.1016 h 0.733778 v 0.07902 q 0,0.694266 -0.400756,1.095022 -0.39511,0.39511 -1.123243,0.39511 z m 2.949921,-0.07902 v -3.951108 h 0.711199 v 3.951108 z m 3.361973,0.04516 q -0.327378,0 -0.575733,-0.146756 -0.242711,-0.1524 -0.378178,-0.417688 -0.135466,-0.265289 -0.135466,-0.6096 v -1.670754 h 0.711199 v 1.61431 q 0,0.316088 0.1524,0.474133 0.158044,0.158044 0.445911,0.158044 0.327377,0 0.507999,-0.214489 0.180622,-0.220133 0.180622,-0.609599 v -1.422399 h 0.7112 v 2.799642 h -0.699911 v -0.366888 h -0.1016 q -0.06773,0.141111 -0.253999,0.276577 -0.186267,0.135467 -0.564444,0.135467 z m 4.885965,0.03387 q -0.378177,0 -0.581377,-0.129822 -0.2032,-0.129822 -0.299156,-0.287866 h -0.1016 v 0.338666 h -0.69991 v -3.951108 h 0.711199 v 1.473199 h 0.1016 q 0.06209,-0.1016 0.163689,-0.191911 0.107244,-0.09031 0.276578,-0.146755 0.174977,-0.06209 0.428977,-0.06209 0.338666,0 0.626533,0.169333 0.287866,0.163689 0.462844,0.485422 0.174978,0.321733 0.174978,0.778933 v 0.09031 q 0,0.457199 -0.174978,0.778932 -0.174978,0.321733 -0.462844,0.491067 -0.287867,0.163688 -0.626533,0.163688 z m -0.214489,-0.620888 q 0.327378,0 0.547511,-0.208844 0.220133,-0.214489 0.220133,-0.620889 v -0.05644 q 0,-0.4064 -0.220133,-0.615244 -0.214489,-0.214489 -0.547511,-0.214489 -0.327377,0 -0.54751,0.214489 -0.220134,0.208844 -0.220134,0.615244 v 0.05644 q 0,0.4064 0.220134,0.620889 0.220133,0.208844 0.54751,0.208844 z"
       id="text22"
       style="font-weight:bold;font-size:5.64444px;line-height:1.9;font-family:'Space Grotesk';-inkscape-font-specification:'Space Grotesk Bold';text-align:center;letter-spacing:0.79375px;word-spacing:0px;text-anchor:middle;fill:#ede0cb;stroke-width:0.4;stroke-linejoin:round;stroke-dasharray:1.4, 0.7, 0.7, 0.7, 1.4, 1.4, 1.4, 0.7, 1.4, 0.7, 0.7, 0.7, 0.7, 0.7, 0.7, 1.4, 0.7, 0.7, 0.7, 0.7, 0.7, 1.4, 0.7, 0.7, 1.4, 0.7, 1.4, 1.4, 0.7, 0.7, 0.7, 4.2"
       inkscape:label="ARC"
       aria-label="Amateur Radio Club" />
    <path
       d="M 19.063335,0.1143851 C 18.865315,0.45526367 18.62261,0.71734885 18.331425,0.90272539 18.040423,1.0879845 17.720197,1.1850312 17.369261,1.1926682 17.01856,1.2003001 16.653137,1.1051634 16.274793,0.90342585 L 16.065631,0.79189848 c 0.154896,-0.2897174 0.3121,-0.57839573 0.471635,-0.86591497 l 0.207619,0.11496895 c 0.311342,0.17240499 0.593834,0.21675254 0.846456,0.13618359 0.248047,-0.08344692 0.453465,-0.26822649 0.619816,-0.55510351 0.168846,-0.29117992 0.230606,-0.54450821 0.183297,-0.76362384 -0.04473,-0.2232447 -0.168002,-0.3967059 -0.37172,-0.5191914 -0.140678,-0.084583 -0.276676,-0.1165244 -0.408295,-0.095091 -0.128946,0.017086 -0.261826,0.079506 -0.398009,0.1877621 -0.13841,0.1009613 -0.289919,0.2363073 -0.453383,0.4063969 -0.04151,0.043636 -0.08297,0.087348 -0.12437,0.1311366 -0.260977,0.27324552 -0.513903,0.49386463 -0.761414,0.66128794 -0.249824,0.1601075 -0.507755,0.25065094 -0.775044,0.2704975 -0.264615,0.01529214 -0.556719,-0.06124978 -0.875043,-0.23177319 -0.318489,-0.17061197 -0.552709,-0.38514185 -0.701054,-0.64629995 -0.150707,-0.2683448 -0.21533,-0.5650189 -0.191789,-0.8891537 0.02117,-0.3314168 0.131603,-0.6745321 0.332557,-1.0253662 0.200974,-0.3508698 0.446509,-0.6234744 0.732748,-0.8158975 0.284163,-0.1999653 0.596591,-0.2988884 0.934579,-0.2974703 0.336289,-0.0061 0.686069,0.1063002 1.05162,0.3335439 l 0.216359,0.1344986 c -0.178885,0.2878888 -0.355171,0.577262 -0.52888,0.8679997 l -0.218563,-0.1307122 c -0.194328,-0.1162182 -0.371162,-0.1731413 -0.531101,-0.1699886 -0.162012,-0.00428 -0.309052,0.044069 -0.44046,0.145226 -0.136272,0.098279 -0.257791,0.2396737 -0.363433,0.4238183 -0.158457,0.276207 -0.217347,0.5142407 -0.178695,0.7116377 0.0363,0.1900184 0.151403,0.338175 0.344006,0.445327 0.128387,0.071427 0.25356,0.1021123 0.375311,0.092554 0.124333,-0.014113 0.250256,-0.065693 0.37819,-0.1543656 0.128004,-0.088722 0.267777,-0.2147724 0.420507,-0.3778555 0.04198,-0.04454 0.08402,-0.089004 0.126121,-0.1333914 0.273067,-0.2903265 0.544716,-0.5198824 0.812116,-0.6892648 0.270188,-0.1738738 0.546427,-0.266209 0.82701,-0.2784527 0.280848,-0.012256 0.574099,0.079084 0.881456,0.2711841 0.30718,0.1919888 0.534632,0.4317324 0.684612,0.7159977 0.147859,0.2772684 0.212933,0.5816243 0.197252,0.91414003 -0.01801,0.32550425 -0.126288,0.65635332 -0.324313,0.99724057 z m 2.872348,-4.4529212 c -0.371183,0.5169741 -0.824115,0.8188584 -1.37603,0.9077464 -0.554851,0.085447 -1.155125,-0.074531 -1.792932,-0.4948804 l -1.191307,-0.7851363 c -0.638419,-0.4207531 -1.015624,-0.9133925 -1.119285,-1.4896221 -0.108049,-0.5777236 0.0456,-1.167135 0.466249,-1.7493976 0.420667,-0.5822949 0.933303,-0.9150541 1.516547,-0.99548 0.580703,-0.084153 1.166049,0.1182803 1.765017,0.591303 l 1.117489,0.8825151 c 0.598038,0.4722886 0.938794,0.9908451 1.034231,1.542226 0.0913,0.5499351 -0.04888,1.0738738 -0.419979,1.5907259 z m -0.812596,-0.5853464 c 0.212539,-0.2956918 0.282449,-0.594762 0.208971,-0.903242 -0.07335,-0.3079509 -0.270497,-0.5866705 -0.594971,-0.832237 l -1.19029,-0.9008272 c -0.324714,-0.2457481 -0.648508,-0.3566729 -0.974034,-0.3280831 -0.324988,0.028543 -0.606479,0.2033191 -0.837789,0.523792 -0.22818,0.3161354 -0.305217,0.6378966 -0.232519,0.9593754 0.07583,0.317592 0.283657,0.5899053 0.619783,0.8205682 l 1.232179,0.8455686 c 0.335945,0.2305392 0.662963,0.3293811 0.978566,0.3010411 0.318926,-0.032466 0.580412,-0.1942245 0.790104,-0.485956 z m 4.28778,-3.692477 c -0.27735,0.2999998 -0.576173,0.5035943 -0.903651,0.611384 -0.32838,0.100402 -0.668287,0.1069692 -1.021731,0.017187 -0.354238,-0.09708 -0.705768,-0.2892148 -1.050453,-0.5805694 L 19.4996,-11.049617 c 0.232571,-0.273983 0.468245,-0.545553 0.707042,-0.814584 l 2.902948,2.5661495 c 0.270347,0.2389814 0.543351,0.360221 0.816215,0.3674407 0.276643,0.00357 0.526068,-0.1181903 0.754142,-0.3645147 0.228039,-0.2462862 0.328442,-0.5023051 0.300589,-0.7741355 -0.02441,-0.274817 -0.16361,-0.53966 -0.421318,-0.791398 l -2.767635,-2.703513 c 0.252345,-0.257526 0.507863,-0.512243 0.766576,-0.764025 l 2.676618,2.743996 c 0.31423,0.322141 0.528866,0.659962 0.648235,1.008515 0.118985,0.34149 0.138358,0.6801622 0.06081,1.017559 -0.07833,0.3304346 -0.255646,0.6418114 -0.532956,0.9417675 z m 3.287528,-3.3076725 -3.150451,-3.747316 c -0.418407,0.352143 -0.829328,0.712221 -1.232844,1.079771 l -0.6822,-0.748573 c 1.094143,-0.996372 2.242273,-1.94077 3.445932,-2.824592 l 0.597841,0.820044 c -0.443296,0.324746 -0.878969,0.65819 -1.3071,0.999871 l 3.050781,3.831758 c -0.243194,0.19283 -0.483839,0.389218 -0.721959,0.589037 z m 2.927143,-2.191551 -3.293863,-4.930602 c 0.306231,-0.205471 0.615884,-0.406168 0.928799,-0.601957 l 1.296561,2.078349 c 0.574125,-0.358362 1.159645,-0.699184 1.755337,-1.021436 l -1.166111,-2.155694 c 0.325144,-0.175933 0.653235,-0.346692 0.984112,-0.512143 l 2.657063,5.30817 c -0.274281,0.137467 -0.546563,0.279305 -0.816685,0.425379 L 32.79657,-17.69613 c -0.577112,0.31217 -1.144578,0.642286 -1.70117,0.989319 l 1.305533,2.092732 c -0.260993,0.162239 -0.519512,0.328449 -0.775395,0.498496 z m 7.165519,-3.476566 c -0.802635,-1.815721 -1.649294,-3.615678 -2.538776,-5.398549 0.348059,-0.119612 0.698228,-0.233464 1.050347,-0.341422 0.688125,1.582288 1.347916,3.174477 1.978809,4.775936 0.04092,-0.0119 0.08186,-0.02371 0.122829,-0.03542 -0.268282,-1.705731 -0.498093,-3.419175 -0.68857,-5.139208 0.621394,-0.160247 1.24807,-0.302114 1.879204,-0.424908 0.571996,1.632524 1.104534,3.27534 1.596655,4.927404 0.04176,-0.0071 0.08353,-0.01419 0.12531,-0.02113 -0.121784,-1.714572 -0.211819,-3.43272 -0.269582,-5.153776 0.366257,-0.05359 0.733777,-0.100716 1.102404,-0.141236 -0.04509,1.987304 -0.03881,3.971913 0.01775,5.952416 -0.514671,0.06955 -1.028005,0.156021 -1.539175,0.258725 -0.544728,-1.676748 -1.130989,-3.343042 -1.757757,-4.997762 -0.04845,0.01085 -0.09688,0.02182 -0.145278,0.0329 0.15074,1.762627 0.343293,3.519264 0.576735,5.268707 -0.506791,0.130374 -1.010701,0.276378 -1.510905,0.437317 z m 6.288958,-1.178865 -0.321998,-5.90755 c 0.527457,-0.02998 1.056687,-0.04626 1.587241,-0.04848 0.752218,0.0037 1.501502,0.03521 2.246707,0.09343 l -0.07706,1.010552 c -0.720129,-0.05583 -1.443756,-0.08555 -2.169736,-0.08798 -0.148589,4.19e-4 -0.297089,0.002 -0.445488,0.0047 l 0.02244,1.412884 c 0.140909,-0.0023 0.281887,-0.0036 0.422922,-0.0037 0.616342,6.36e-4 1.23145,0.02243 1.844506,0.06455 l -0.06906,1.011293 c -0.590529,-0.0401 -1.182647,-0.06032 -1.775533,-0.05985 -0.135607,-1.18e-4 -0.27118,8.57e-4 -0.406706,0.0029 l 0.02325,1.463646 c 0.127766,-0.0017 0.255546,-0.0023 0.383329,-0.0018 0.639613,-0.0024 1.279095,0.02148 1.917221,0.07032 l -0.07877,1.010389 c -0.612506,-0.04637 -1.225762,-0.06835 -1.83854,-0.06471 -0.421487,-0.0023 -0.843211,0.0076 -1.264724,0.02936 z m 6.02791,0.559741 c -0.362409,-0.07268 -0.66771,-0.208999 -0.923366,-0.415279 -0.255283,-0.205979 -0.445143,-0.468381 -0.568721,-0.791209 -0.123373,-0.322292 -0.163721,-0.696356 -0.11158,-1.120459 l 0.02884,-0.234587 c 0.319844,0.03928 0.639046,0.08433 0.957468,0.135032 l -0.03713,0.233416 c -0.05567,0.349902 -0.0035,0.629098 0.149615,0.837387 0.154507,0.203413 0.385077,0.332839 0.696077,0.395049 0.315726,0.06315 0.564856,0.04124 0.752641,-0.07213 0.192189,-0.112153 0.317227,-0.281856 0.371554,-0.51209 0.03752,-0.159006 0.02743,-0.297387 -0.03182,-0.415274 -0.05435,-0.116627 -0.152726,-0.223034 -0.295672,-0.317683 -0.136718,-0.09898 -0.310513,-0.199233 -0.521297,-0.298225 -0.05396,-0.02501 -0.108037,-0.04985 -0.162227,-0.07454 -0.33904,-0.156566 -0.628639,-0.319452 -0.869338,-0.494021 -0.234517,-0.179131 -0.409484,-0.388285 -0.523386,-0.630803 -0.108554,-0.241372 -0.142918,-0.541189 -0.09743,-0.898171 0.04554,-0.35744 0.164121,-0.651293 0.362468,-0.880249 0.204277,-0.233452 0.4702,-0.394793 0.796849,-0.47963 0.332759,-0.08943 0.710907,-0.09589 1.126676,-0.015 0.415775,0.0809 0.768016,0.232345 1.051348,0.447888 0.290344,0.211523 0.48688,0.481326 0.5907,0.804449 0.110733,0.319589 0.106863,0.685578 -0.0035,1.099678 l -0.0653,0.245044 c -0.330574,-0.08788 -0.662574,-0.170304 -0.995865,-0.247134 l 0.05705,-0.246927 c 0.05073,-0.219588 0.04982,-0.404578 -0.0046,-0.555572 -0.04788,-0.155127 -0.142561,-0.280131 -0.284287,-0.37377 -0.140483,-0.09911 -0.318761,-0.170553 -0.533671,-0.212442 -0.322442,-0.06285 -0.574628,-0.04097 -0.751845,0.0599 -0.171127,0.09638 -0.273185,0.253917 -0.308602,0.470514 -0.02361,0.14437 -0.0093,0.27218 0.04174,0.383338 0.0563,0.112116 0.148396,0.213281 0.275784,0.304575 0.127528,0.09139 0.293686,0.181892 0.498578,0.273951 0.05603,0.02539 0.11194,0.05094 0.167732,0.07665 0.364087,0.165962 0.667427,0.353302 0.909517,0.555872 0.247356,0.203986 0.416432,0.439654 0.509003,0.702868 0.09275,0.263708 0.08885,0.569015 -0.0057,0.917339 -0.09444,0.34799 -0.255708,0.634187 -0.476647,0.861114 -0.215177,0.22294 -0.475845,0.376578 -0.781515,0.46548 -0.300066,0.08455 -0.627652,0.08834 -0.990134,0.01565 z m 3.993999,1.005521 1.671246,-4.619464 c -0.521523,-0.187917 -1.047823,-0.36296 -1.578373,-0.524596 l 0.29719,-0.970731 c 1.448184,0.440168 2.864162,0.976689 4.238124,1.599645 l -0.421258,0.926592 c -0.504348,-0.228873 -1.014345,-0.445753 -1.529462,-0.650105 l -1.817829,4.567314 c -0.285152,-0.114151 -0.571745,-0.223751 -0.859638,-0.328655 z m 5.286344,2.526828 3.053272,-5.090657 c 0.314713,0.189431 0.626372,0.383475 0.934832,0.581989 l -3.197929,4.995826 c -0.261089,-0.166066 -0.524528,-0.3285 -0.790175,-0.487158 z m 1.998222,1.292268 0.56415,-0.80279 c 0.182938,0.127918 0.364676,0.257552 0.54522,0.388865 l 2.332564,-3.19495 c -0.199167,-0.145907 -0.399743,-0.290172 -0.601732,-0.432757 l 0.564149,-0.802789 c 0.647098,0.457733 1.279818,0.931842 1.898358,1.421158 0.606205,0.479559 0.924885,1.014594 0.960217,1.577318 0.04327,0.564572 -0.205679,1.139462 -0.730026,1.735942 l -0.735799,0.83702 c -0.523445,0.595453 -1.058943,0.92416 -1.591506,0.999915 -0.527874,0.07499 -1.041536,-0.09771 -1.565447,-0.510205 -0.535604,-0.421703 -1.082253,-0.827668 -1.640148,-1.216727 z m 1.89975,0.134768 c 0.127183,0.09769 0.253754,0.196215 0.379718,0.295561 0.30514,0.24066 0.599118,0.329301 0.890002,0.262619 0.290105,-0.0665 0.574683,-0.261793 0.849171,-0.589522 l 0.758914,-0.906118 c 0.27841,-0.332411 0.417785,-0.648484 0.413593,-0.951825 -5.98e-4,-0.306854 -0.167874,-0.597673 -0.503719,-0.863364 -0.138447,-0.109528 -0.27761,-0.218252 -0.417493,-0.326159 z m 2.106822,3.109845 c 1.660703,-1.146861 3.363919,-2.245858 5.105864,-3.297946 0.445814,0.438855 0.882856,0.885798 1.311228,1.340235 -1.096024,1.714895 -2.238741,3.3933958 -3.42426,5.0358471 -0.216614,-0.2454491 -0.435533,-0.4883266 -0.656777,-0.7285094 0.257043,-0.3620457 0.512065,-0.7257473 0.76503,-1.0911083 -0.421347,-0.4510318 -0.85109,-0.8929295 -1.289359,-1.3249284 -0.370851,0.2435337 -0.739878,0.4891931 -1.107045,0.7369872 -0.232511,-0.2265566 -0.467398,-0.4501232 -0.704681,-0.6705772 z m 2.701317,-0.636421 c 0.335834,0.334124 0.666623,0.673751 0.992421,1.0185588 0.551265,-0.8164878 1.092185,-1.6411968 1.622357,-2.4741648 -0.03366,-0.03453 -0.06737,-0.06902 -0.101129,-0.103457 -0.846502,0.509248 -1.684516,1.028903 -2.513649,1.559063 z m 1.129093,4.6898621 4.544,-3.8136087 c 0.230339,0.2734885 0.457874,0.5491363 0.682625,0.826831 l -1.907295,1.5387717 c 0.422694,0.523623 0.83564,1.0553656 1.238984,1.5943676 l 1.964123,-1.4692547 c 0.213856,0.2853208 0.424965,0.5724667 0.633346,0.8613249 l -4.821407,3.4742573 c -0.187701,-0.2608059 -0.377472,-0.5197879 -0.569331,-0.7768333 l 1.977716,-1.4794226 c -0.395916,-0.5294545 -0.800997,-1.0515754 -1.215388,-1.5655024 l -1.920494,1.5494208 C 70.63019,-5.5972301 70.427904,-5.8440515 70.223472,-6.0886019 Z m 4.269949,6.09806255 C 74.149537,-0.53502702 74.039693,-1.072518 74.165984,-1.6182615 c 0.13062,-0.5472695 0.50729,-1.0414504 1.138747,-1.4707349 l 1.179601,-0.8019298 c 0.632242,-0.4298188 1.23093,-0.5907629 1.802017,-0.4694275 0.574266,0.1178759 1.058344,0.479768 1.43543,1.0816732 0.377012,0.6017878 0.49069,1.1937738 0.347397,1.7608082 -0.138536,0.56453358 -0.542095,1.03496683 -1.200474,1.41877319 l -1.228974,0.7164379 C 76.981769,1.0009004 76.374767,1.126965 75.823877,1.0078926 75.276453,0.88562998 74.83731,0.5539561 74.493421,0.00946065 Z m 0.847454,-0.53296789 c 0.195787,0.31043835 0.448671,0.48920563 0.763094,0.53719827 0.314027,0.04793164 0.64598,-0.03129741 0.99423,-0.24144947 l 1.277314,-0.77079615 c 0.348402,-0.21024361 0.571717,-0.46930211 0.667224,-0.78042331 0.09539,-0.3107341 0.03993,-0.6345814 -0.168412,-0.9667348 -0.205543,-0.3276921 -0.473071,-0.5188691 -0.797512,-0.5723284 -0.321988,-0.049098 -0.652511,0.040074 -0.993319,0.2635825 l -1.249296,0.8193095 c -0.340607,0.2233753 -0.555917,0.488621 -0.648508,0.7922757 -0.09,0.3082555 -0.03796,0.61311243 0.155185,0.91936616 z"
       id="text25"
       style="font-weight:bold;font-size:8.46667px;line-height:0.9;font-family:'Space Grotesk';-inkscape-font-specification:'Space Grotesk Bold';text-align:center;letter-spacing:0.79375px;word-spacing:0px;text-anchor:middle;display:inline;fill:url(#linearGradient29);stroke:none;stroke-width:0.2;stroke-linejoin:round;stroke-dasharray:none"
       inkscape:label="SWI"
       aria-label="SOUTH WEST IDAHO"
       inkscape:path-effect="#path-effect29"
       inkscape:original-d="m 2.8518449,15.596658 q -0.6858003,0 -1.2107338,-0.245533 Q 1.1161775,15.105591 0.81984407,14.648391 0.52351062,14.191191 0.52351062,13.547724 V 13.310657 H 1.6241777 v 0.237067 q 0,0.5334 0.3302002,0.804334 0.3302001,0.262466 0.897467,0.262466 0.5757335,0 0.8551336,-0.2286 0.2878668,-0.2286 0.2878668,-0.5842 0,-0.245533 -0.1439334,-0.397934 Q 3.7154452,13.25139 3.4445118,13.158257 3.182045,13.056657 2.8010449,12.97199 L 2.6063114,12.929657 Q 1.9967112,12.79419 1.5564444,12.59099 1.1246442,12.379323 0.88757743,12.040657 0.65897734,11.70199 0.65897734,11.160123 q 0,-0.541867 0.2540001,-0.922867 Q 1.1754442,9.847789 1.6411111,9.644589 2.1152446,9.4329222 2.7502448,9.4329222 q 0.6350003,0 1.1260671,0.2201334 0.4995336,0.2116668 0.7789337,0.6434674 0.2878668,0.423333 0.2878668,1.0668 v 0.254 H 3.8424453 v -0.254 q 0,-0.338667 -0.1354668,-0.541867 -0.127,-0.211667 -0.3725334,-0.3048 -0.2455335,-0.1016 -0.5842003,-0.1016 -0.5080002,0 -0.7535336,0.194733 -0.2370668,0.186267 -0.2370668,0.516467 0,0.220134 0.1100668,0.372534 0.1185333,0.1524 0.3471334,0.254 0.2286001,0.1016 0.5842003,0.1778 l 0.1947334,0.04233 q 0.6350002,0.135467 1.1006671,0.347134 0.4741335,0.211666 0.7366003,0.5588 0.2624667,0.347133 0.2624667,0.889 0,0.541867 -0.2794001,0.956734 -0.2709334,0.4064 -0.7789336,0.643467 -0.4995336,0.2286 -1.1853338,0.2286 z m 6.170093,0 q -1.1176004,0 -1.7780007,-0.6096 Q 6.5835369,14.368991 6.5835369,13.22599 v -1.4224 q 0,-1.143001 0.6604003,-1.752601 0.6604003,-0.6180668 1.7780007,-0.6180668 1.1176001,0 1.7780011,0.6180668 0.6604,0.6096 0.6604,1.752601 v 1.4224 q 0,1.143001 -0.6604,1.761068 -0.660401,0.6096 -1.7780011,0.6096 z m 0,-0.999067 q 0.6265336,0 0.9736671,-0.364067 0.347133,-0.364067 0.347133,-0.973667 v -1.490134 q 0,-0.6096 -0.347133,-0.973667 -0.3471335,-0.364067 -0.9736671,-0.364067 -0.6180669,0 -0.9736671,0.364067 -0.3471334,0.364067 -0.3471334,0.973667 v 1.490134 q 0,0.6096 0.3471334,0.973667 0.3556002,0.364067 0.9736671,0.364067 z m 6.5002911,0.999067 q -0.728134,0 -1.253067,-0.262467 -0.516467,-0.270933 -0.795867,-0.762 -0.270934,-0.499534 -0.270934,-1.176867 V 9.5514556 h 1.117601 V 13.42919 q 0,0.541867 0.3048,0.855134 0.313267,0.313267 0.897467,0.313267 0.5842,0 0.889,-0.313267 0.313267,-0.313267 0.313267,-0.855134 V 9.5514556 h 1.1176 v 3.8438684 q 0,0.677333 -0.2794,1.176867 -0.270933,0.491067 -0.795867,0.762 -0.516467,0.262467 -1.2446,0.262467 z m 5.56896,-0.118533 V 10.567456 H 19.363988 V 9.5514556 h 4.572002 v 1.0160004 h -1.727201 v 4.910669 z m 4.400545,0 V 9.5514556 h 1.117601 v 2.4468674 h 2.201334 V 9.5514556 h 1.117601 v 5.9266694 h -1.117601 v -2.463801 h -2.201334 v 2.463801 z m 9.715515,0 -0.778934,-5.9266694 h 1.109134 l 0.575733,5.1477354 h 0.1524 l 0.745067,-5.1477354 h 1.930401 l 0.745067,5.1477354 h 0.1524 l 0.575734,-5.1477354 h 1.109134 L 40.744451,15.478125 H 38.81405 l -0.762,-5.266269 h -0.1524 l -0.762001,5.266269 z m 7.92269,0 V 9.5514556 h 3.810002 v 1.0160004 h -2.692402 v 1.413934 h 2.455335 v 1.016 h -2.455335 v 1.464734 h 2.743202 v 1.016001 z m 7.541692,0.118533 q -0.6858,0 -1.210734,-0.245533 -0.524933,-0.245534 -0.821267,-0.702734 -0.296333,-0.4572 -0.296333,-1.100667 v -0.237067 h 1.100667 v 0.237067 q 0,0.5334 0.3302,0.804334 0.3302,0.262466 0.897467,0.262466 0.575734,0 0.855134,-0.2286 0.287866,-0.2286 0.287866,-0.5842 0,-0.245533 -0.143933,-0.397934 -0.135467,-0.1524 -0.4064,-0.245533 -0.262467,-0.1016 -0.643467,-0.186267 l -0.194733,-0.04233 q -0.609601,-0.13547 -1.049868,-0.33867 -0.4318,-0.211667 -0.668867,-0.550333 -0.2286,-0.338667 -0.2286,-0.880534 0,-0.541867 0.254001,-0.922867 0.262466,-0.389467 0.728133,-0.592667 0.474134,-0.2116668 1.109134,-0.2116668 0.635,0 1.126067,0.2201334 0.499534,0.2116668 0.778934,0.6434674 0.287866,0.423333 0.287866,1.0668 v 0.254 h -1.100667 v -0.254 q 0,-0.338667 -0.135466,-0.541867 -0.127,-0.211667 -0.372534,-0.3048 -0.245533,-0.1016 -0.5842,-0.1016 -0.508,0 -0.753534,0.194733 -0.237066,0.186267 -0.237066,0.516467 0,0.220134 0.110066,0.372534 0.118534,0.1524 0.347134,0.254 0.2286,0.1016 0.5842,0.1778 l 0.194733,0.04233 q 0.635001,0.135467 1.100667,0.347134 0.474134,0.211666 0.736601,0.5588 0.262467,0.347133 0.262467,0.889 0,0.541867 -0.279401,0.956734 -0.270933,0.4064 -0.778933,0.643467 -0.499534,0.2286 -1.185334,0.2286 z m 5.052485,-0.118533 V 10.567456 H 53.996915 V 9.5514556 h 4.572002 v 1.0160004 h -1.727201 v 4.910669 z m 7.090821,0 V 9.5514556 h 1.1176 v 5.9266694 z m 2.85962,0 V 14.495991 H 66.45349 V 10.533589 H 65.674557 V 9.5514556 h 2.438401 q 1.1938,0 1.811867,0.6096004 0.626534,0.601133 0.626534,1.794934 v 1.1176 q 0,1.193801 -0.626534,1.803401 -0.618067,0.601134 -1.811867,0.601134 z m 1.896534,-1.016001 h 0.5588 q 0.677334,0 0.9906,-0.3556 0.313267,-0.3556 0.313267,-0.999067 v -1.185334 q 0,-0.651933 -0.313267,-0.999067 -0.313266,-0.3556 -0.9906,-0.3556 h -0.5588 z m 4.248143,1.016001 1.557868,-5.9266694 h 1.947334 l 1.557867,5.9266694 h -1.151467 l -0.321734,-1.303868 h -2.116667 l -0.321733,1.303868 z m 1.735668,-2.336801 h 1.591734 l -0.719667,-2.887135 h -0.1524 z m 4.832361,2.336801 V 9.5514556 h 1.117601 v 2.4468674 h 2.201334 V 9.5514556 h 1.1176 v 5.9266694 h -1.1176 v -2.463801 h -2.201334 v 2.463801 z m 8.65082,0.118533 q -1.117601,0 -1.778001,-0.6096 -0.6604,-0.618067 -0.6604,-1.761068 v -1.4224 q 0,-1.143001 0.6604,-1.752601 0.6604,-0.6180668 1.778001,-0.6180668 1.1176,0 1.778,0.6180668 0.660401,0.6096 0.660401,1.752601 v 1.4224 q 0,1.143001 -0.660401,1.761068 -0.6604,0.6096 -1.778,0.6096 z m 0,-0.999067 q 0.626533,0 0.973667,-0.364067 0.347133,-0.364067 0.347133,-0.973667 v -1.490134 q 0,-0.6096 -0.347133,-0.973667 -0.347134,-0.364067 -0.973667,-0.364067 -0.618067,0 -0.973667,0.364067 -0.347134,0.364067 -0.347134,0.973667 v 1.490134 q 0,0.6096 0.347134,0.973667 0.3556,0.364067 0.973667,0.364067 z"
       transform="translate(-1.2208366,29.633333)" />
  </g>
</svg>
