<?xml version="1.0" encoding="UTF-8" standalone="no"?>
<!-- Created with Inkscape (http://www.inkscape.org/) -->

<svg
   version="1.1"
   id="svg1"
   width="465.21683"
   height="267.42902"
   viewBox="0 0 465.21683 267.42901"
   sodipodi:docname="repeater.svg"
   inkscape:export-filename="../../Documents/git/K7SWI/public/repeater.svg"
   inkscape:export-xdpi="96"
   inkscape:export-ydpi="96"
   xmlns:inkscape="http://www.inkscape.org/namespaces/inkscape"
   xmlns:sodipodi="http://sodipodi.sourceforge.net/DTD/sodipodi-0.dtd"
   xmlns:xlink="http://www.w3.org/1999/xlink"
   xmlns="http://www.w3.org/2000/svg"
   xmlns:svg="http://www.w3.org/2000/svg">
  <defs
     id="defs1">
    <linearGradient
       id="swatch19"
       inkscape:swatch="solid"
       inkscape:label="Light">
      <stop
         style="stop-color:#b2e1dd;stop-opacity:1;"
         offset="0"
         id="stop19" />
    </linearGradient>
    <linearGradient
       id="swatch14"
       inkscape:swatch="solid"
       inkscape:label="Dark">
      <stop
         style="stop-color:#296b65;stop-opacity:1;"
         offset="0"
         id="stop14" />
    </linearGradient>
    <clipPath
       clipPathUnits="userSpaceOnUse"
       id="clipPath3">
      <path
         d="M 196.73656,542.47751 562.95371,398.35642 567.83683,-148.1314 115.55549,-38.5471 Z"
         transform="translate(-446.41501,-175.4766)"
         id="path3" />
    </clipPath>
    <linearGradient
       inkscape:collect="always"
       xlink:href="#swatch19"
       id="linearGradient19"
       x1="499.61227"
       y1="259.78537"
       x2="526.71332"
       y2="259.78537"
       gradientUnits="userSpaceOnUse"
       gradientTransform="translate(272.6376,165.36304)" />
    <linearGradient
       inkscape:collect="always"
       xlink:href="#swatch19"
       id="linearGradient20"
       x1="516.66675"
       y1="259.78537"
       x2="537.77698"
       y2="259.78537"
       gradientUnits="userSpaceOnUse"
       gradientTransform="translate(272.6376,165.36304)" />
    <linearGradient
       inkscape:collect="always"
       xlink:href="#swatch19"
       id="linearGradient21"
       x1="534.26318"
       y1="259.78537"
       x2="545.92511"
       y2="259.78537"
       gradientUnits="userSpaceOnUse"
       gradientTransform="translate(272.6376,165.36304)" />
    <linearGradient
       inkscape:collect="always"
       xlink:href="#swatch19"
       id="linearGradient22"
       x1="614.11285"
       y1="259.78537"
       x2="641.21387"
       y2="259.78537"
       gradientUnits="userSpaceOnUse"
       gradientTransform="translate(272.6376,165.36304)" />
    <linearGradient
       inkscape:collect="always"
       xlink:href="#swatch19"
       id="linearGradient23"
       x1="603.04919"
       y1="259.78537"
       x2="624.15936"
       y2="259.78537"
       gradientUnits="userSpaceOnUse"
       gradientTransform="translate(272.6376,165.36304)" />
    <linearGradient
       inkscape:collect="always"
       xlink:href="#swatch19"
       id="linearGradient24"
       x1="594.90106"
       y1="259.78537"
       x2="606.56299"
       y2="259.78537"
       gradientUnits="userSpaceOnUse"
       gradientTransform="translate(272.6376,165.36304)" />
  </defs>
  <sodipodi:namedview
     id="namedview1"
     pagecolor="#505050"
     bordercolor="#eeeeee"
     borderopacity="1"
     inkscape:showpageshadow="0"
     inkscape:pageopacity="0"
     inkscape:pagecheckerboard="0"
     inkscape:deskcolor="#505050"
     showguides="true">
    <sodipodi:guide
       position="241.48739,127.66705"
       orientation="0,-1"
       id="guide9"
       inkscape:locked="false" />
    <sodipodi:guide
       position="270.36239,92.792049"
       orientation="0,-1"
       id="guide10"
       inkscape:locked="false" />
    <sodipodi:guide
       position="211.11239,162.61705"
       orientation="0,-1"
       id="guide11"
       inkscape:locked="false" />
    <sodipodi:guide
       position="212.34925,187.86794"
       orientation="0,-1"
       id="guide12"
       inkscape:locked="false" />
    <inkscape:page
       x="0"
       y="0"
       width="465.21683"
       height="267.42902"
       id="page2"
       margin="0"
       bleed="0" />
  </sodipodi:namedview>
  <g
     id="layer-MC1"
     inkscape:groupmode="layer"
     inkscape:label="Idaho"
     style="display:inline"
     inkscape:export-filename="../../Documents/git/K7SWI/public/repeater.svg"
     inkscape:export-xdpi="96"
     inkscape:export-ydpi="96"
     transform="translate(-272.6376,-165.36304)">
    <path
       id="path24"
       d="m 115.55549,-38.5471 c 1.59141,11.389934 3.16461,22.696288 4.72992,33.9148178 1.50624,10.7956305 3.00151,21.5126252 4.48818,32.1525772 l -0.78992,0.662618 -0.25693,0.509902 -0.37413,1.44874 -0.18495,1.148436 -0.17528,0.640969 -0.16668,0.366014 -0.25644,0.368282 -0.11836,0.241471 -0.082,0.230664 -0.0272,0.233493 -0.0107,0.243656 -0.004,0.26829 0.0664,0.587887 0.0536,0.339823 0.0294,0.330282 -0.0129,0.370163 -0.0816,0.263155 -0.12009,0.21799 -0.16837,0.225333 -0.0606,0.214251 -0.065,0.673899 -0.45616,2.512476 -0.0613,0.900061 -0.15361,0.343152 -0.59867,0.90294 -0.22923,0.187299 -0.16732,0.0295 -0.11394,-0.143123 -0.30825,-0.645544 -0.13221,-0.15552 -0.16559,-0.07333 -0.57798,0.0098 -0.14347,-0.05293 -0.26871,-0.198624 -0.23735,-0.314576 -0.0891,-0.223511 -0.0597,-0.24308 0.003,-0.237316 0.0349,-0.227206 0.0504,-0.203702 0.0349,-0.227251 0.0147,-0.233804 -0.0144,-0.297206 -0.0498,-0.289323 -0.0733,-0.277993 -0.10667,-0.190417 -0.11769,-0.127075 -0.56941,-0.234084 -0.11694,-0.131312 -0.0877,-0.212668 -0.0974,-0.516904 -0.0691,-0.217662 -0.21828,-0.529155 -0.0783,-0.272054 -0.065,-0.299306 -0.0355,-0.288608 -0.0231,-0.277386 -0.008,-0.526691 0.006,-0.217714 0.019,-0.148695 0.0373,-0.16138 0.0649,-0.168591 0.0983,-0.1509 0.40953,-0.404655 0.0849,-0.169837 0.0335,-0.218494 -0.0329,-0.21052 -0.14189,-0.129424 -0.20258,-0.04636 -0.34558,0.0185 -0.17462,0.07969 -0.10954,0.08787 -0.19101,0.382311 -0.52898,0.69584 -0.22495,0.154842 -2.11745,0.582363 -0.29663,-0.0021 -1.02976,-0.872557 -0.13823,-0.08967 -0.35183,-0.04744 -0.41071,0.03922 -0.18363,-0.05414 -0.44194,-0.245042 -0.18479,0.02812 -0.13199,0.118935 -0.0773,0.188073 -0.0385,0.226928 -0.0293,0.225832 -0.0942,0.448966 -0.10487,0.236159 -0.1563,0.244228 -0.31563,0.338521 -0.81424,0.267243 -0.18433,-0.0076 -0.15484,-0.05759 -0.12531,-0.122154 -0.16259,-0.120422 -0.2214,-0.06813 -0.38529,-0.01365 -0.30172,0.153822 -1.95728,-0.142792 -0.17769,0.08985 -0.42652,0.488201 -0.52263,0.395335 -0.35167,0.161576 -0.44462,0.08112 -0.21354,0.09788 -0.13773,0.14572 -0.22709,0.50133 -0.24968,0.313852 -0.1701,0.04424 -0.14817,-0.07666 -0.22329,-0.29554 -0.1094,-0.107992 -0.16567,-0.08676 -0.52845,-0.09984 -0.34629,-0.160512 -0.26497,-0.18834 -0.12663,-0.130193 -0.10668,-0.176505 -0.101591,-0.234896 -0.320282,-1.145597 -0.590665,-1.581566 -0.14994,-0.212384 -0.195509,-0.162096 -0.343157,-0.123949 -0.22197,0.02683 -0.158388,0.107458 -0.09345,0.182413 -0.06399,0.209352 -0.100559,0.246718 -0.1335,0.249912 -0.35168,0.287785 -0.281004,0.08472 -0.567148,0.0046 -0.117603,0.0597 -0.124525,0.363301 -0.08406,0.186614 -0.110419,0.156217 -2.325197,1.180824 -0.619427,0.499617 -0.21444,0.0463 -0.174207,-0.01999 -0.407377,-0.333286 -0.13374,-0.06511 -0.602301,-0.116699 -0.134102,-0.110318 -1.449838,-1.809223 -0.113808,-0.177217 -0.111093,-0.207291 -0.09868,-0.226546 -0.0712,-0.252368 -0.04266,-0.290472 0.0069,-0.252626 0.175036,-1.162327 -0.05978,-0.278344 -0.12789,-0.250165 -0.365788,-0.218331 -0.168178,0.06738 -0.105329,0.163411 -0.27427,1.331449 -0.06698,0.198846 -0.09888,0.167016 -0.800651,0.744597 -0.120984,0.19941 -0.07453,0.187406 -0.184649,0.893621 -0.0889,0.251076 -0.137721,0.25701 -0.295274,0.312417 -0.140092,0.250937 -0.0465,0.284041 0.07412,0.584679 0.0055,0.2318 -0.08046,0.716333 0.01147,0.218141 0.02822,0.136527 0.149544,0.441932 0.304399,0.73295 0.06833,0.260346 -0.01735,0.297176 -0.101444,0.287052 -0.265466,0.389486 -0.133951,0.270184 -0.05905,0.277291 0.08479,0.572159 0.01019,0.261816 -0.02132,0.24207 -0.367225,1.233979 -0.03555,0.220391 0.0092,0.240574 0.04687,0.23868 0.103276,0.206679 0.115924,0.170161 0.250807,0.259657 0.12011,0.159691 0.09478,0.208711 0.0526,0.262109 0.01576,0.259746 -0.0027,0.263193 -0.05121,0.474633 -0.118417,0.682876 -0.02769,0.237744 -0.02334,0.774238 -0.01754,0.256147 -0.03785,0.228335 -0.107339,0.411951 -0.03904,0.229909 -0.01765,0.236189 -0.01125,0.263587 0.01734,0.269283 -0.0041,0.257673 -0.01885,0.237694 -0.0414,0.223748 -0.203919,0.598181 -0.05424,0.211183 -0.134645,0.910133 -0.04557,0.224657 -0.261987,0.8111 -0.348354,0.803239 -0.442797,0.629975 -0.42318,0.337085 -0.337314,0.100686 -0.149112,-0.03993 -0.137226,-0.07608 -0.127357,-0.106415 -0.49428,-0.576462 -0.177049,-0.125168 -0.211681,-0.06588 -0.365388,0.0353 -0.172927,0.151187 -0.08186,0.22502 0.07947,0.858842 -0.0039,0.261173 -0.122105,0.322623 -0.217414,0.371461 -0.798182,1.039233 -0.183856,0.394209 -0.112914,0.483629 -0.05089,0.473759 -0.0379,1.519408 -0.05436,0.474184 -0.0826,0.438081 -0.118644,0.408034 -0.03705,0.229698 -0.0019,0.240102 0.06408,0.237089 0.105413,0.165559 0.122106,0.113732 0.427227,0.227584 0.119892,0.132659 0.118556,0.18954 0.103138,0.235663 0.09606,0.265096 0.311536,1.178895 0.06343,0.294446 0.0054,0.06291 0.03674,0.818719 -7.07e-4,0.261384 -0.0804,1.49465 -0.05699,0.483264 -0.363842,1.792665 -0.02285,0.235301 0.01477,0.912576 -0.06801,0.416045 -0.125693,0.16837 -0.666793,0.151971 -0.146829,0.154407 -0.07662,0.216785 0.01416,0.271017 0.08762,0.604514 -0.0051,0.255082 -0.03173,0.224259 -0.09645,0.446819 -0.0186,0.242896 0.0084,0.270931 0.0271,0.278937 0.01576,0.52622 -0.01442,0.250739 -0.05926,0.465137 -0.188705,0.649891 -0.24714,0.532306 -0.263507,0.935871 -0.260605,0.607435 -0.05331,0.26603 0.01104,0.268254 0.07452,0.56006 0.0072,0.280865 -0.05552,0.288587 -0.105919,0.300817 -0.339531,0.718002 -0.09228,0.257983 -0.0302,0.232117 -0.01449,0.248686 0.05783,0.572775 0.05442,0.293737 0.144744,0.5893 0.231737,1.227174 0.09006,0.60196 -0.02241,0.345104 -0.09633,0.378028 -0.418103,0.977898 -0.03103,0.367956 0.05358,0.562928 -0.01009,0.247926 0.0039,0.258371 0.04827,0.295567 0.07541,0.279076 0.08973,0.259572 0.198703,0.485217 0.08341,0.261109 0.05615,0.281407 0.07593,0.818524 0.04456,0.308925 0.01459,0.06465 -0.0029,0.352798 -0.146809,0.404849 -0.530016,0.657879 -0.115524,0.286286 -0.03238,0.307588 0.05535,0.303029 0.152892,0.625379 0.180618,0.53999 0.0996,0.23507 0.217425,0.37979 0.096,0.212668 0.05548,0.258541 0.0062,0.290031 -0.03647,0.304206 -0.112512,0.399777 -0.113932,0.240142 -0.135941,0.188099 -0.911358,0.913527 -0.19128,0.299958 -0.09323,0.301484 0.06318,0.551266 0.0029,0.26345 -0.02208,0.234157 -0.377294,0.935705 -0.553995,1.09338 -0.31064,0.43546 -0.2413,0.23488 -0.126044,-0.0362 -0.08806,-0.093 -0.06623,-0.12862 -0.06874,-0.23484 -0.04999,-0.27611 -0.03732,-0.26933 -0.01245,-0.24526 0.0091,-0.3595 -0.01146,-0.23918 -0.03279,-0.24111 -0.06387,-0.19525 -0.06583,-0.0942 -0.09163,-0.0561 -0.572567,-0.178595 -0.141636,-0.0825 -0.130918,-0.106092 -0.123489,-0.145583 -0.11555,-0.195533 -0.20721,-0.472616 -0.09573,-0.261789 -0.103714,-0.22997 -0.111437,-0.196891 -0.119455,-0.137898 -0.409189,-0.295288 -0.123608,-0.149786 -0.108053,-0.201896 -0.09234,-0.230811 -0.08161,-0.23636 -0.112854,-0.177451 -0.129975,-0.112008 -0.867609,-0.37026 -0.535572,-0.419789 -0.140419,-0.07181 -0.153717,0.0082 -0.327009,0.134486 -0.156453,0.0051 -0.14459,-0.06553 -0.135084,-0.114771 -0.118997,-0.159351 -0.116055,-0.186107 -0.102558,-0.21056 -0.37473,-1.005406 -0.131019,-0.241997 -0.02492,-0.02821 -0.102235,-0.104552 -0.541305,-0.316189 -0.131458,-0.104477 -0.184179,-0.07849 -0.226846,-0.01753 -0.402709,0.171785 -0.201021,0.177995 -0.110103,0.229898 -0.04839,0.205326 -0.05147,0.374907 -0.552712,0.847337 -0.16134,0.313823 -0.08158,0.319337 0.01396,0.273828 -0.0097,0.303553 -0.05755,0.282835 -0.505771,1.070043 -0.172335,0.174029 -0.869869,0.570378 -0.387974,0.106009 -0.260332,0.14106 -0.05912,0.205398 0.0432,0.187817 0.330841,0.561468 0.09897,0.247584 0.06843,0.26624 0.01838,0.30834 -0.02134,0.32431 -0.04998,0.4434 0.01461,0.32082 0.07604,0.24573 0.10877,0.16946 0.512536,0.5102 0.334177,0.4333 0.07451,0.12562 0.0709,0.15244 0.08076,0.21301 0.06857,0.2499 0.0525,0.29429 0.01262,0.52724 0.03245,0.25186 0.162528,0.44583 0.01965,0.33394 -0.0686,0.39553 -0.350925,1.03783 -0.07028,0.33131 -0.0047,0.25136 0.0076,0.70407 -0.08515,0.52454 0.01773,0.34799 0.06891,0.26043 0.118716,0.15138 0.259115,0.27097 0.124085,0.17556 0.106629,0.22021 0.09842,0.24558 0.205632,0.42041 0.326814,0.57059 0.174536,0.4003 0.06006,0.11832 0.0956,0.15344 0.24547,0.23017 0.143196,0.067 0.14806,0.0169 0.679354,-0.12746 0.154254,0.0152 0.149725,0.0677 0.132091,0.11109 0.606253,0.71888 0.116279,0.18842 0.07441,0.2833 0.02918,0.38421 -0.21718,1.29803 -0.01884,0.25371 -0.0049,0.24597 0.0266,0.28329 0.06524,0.2802 0.07912,0.29421 0.09461,0.25145 0.307273,0.64515 0.08396,0.27976 0.03714,0.30806 -0.0268,0.34238 -0.11447,0.1865 -0.470722,0.4006 -0.407456,0.48654 -0.128004,0.35636 -0.0069,0.33028 0.08203,0.25818 0.07413,0.28971 0.03045,0.35926 -0.07298,0.5284 0.0018,0.37855 0.04327,0.33116 0.08702,0.26659 0.09803,0.22773 0.562223,0.94322 0.108447,0.21691 0.09188,0.24823 0.06392,0.27638 0.03475,0.27047 -0.0069,0.26804 -0.04472,0.24423 -0.5293,1.69434 -0.04014,0.32033 0.02193,0.26219 0.05392,0.25446 0.07488,0.1926 0.06033,0.10384 0.108731,0.10806 0.133853,0.0629 0.668414,-0.0566 0.15061,0.0378 0.138604,0.0882 0.118301,0.15861 0.102392,0.2075 0.06715,0.27449 0.04169,0.28664 0.03998,0.55486 0.09534,0.84986 0.02046,0.26692 0.0072,0.26935 -0.02421,0.57221 -0.04039,0.3447 -0.01294,0.27862 0.02479,0.27554 0.0754,0.23212 0.09585,0.18957 0.229138,0.36596 0.102798,0.22801 0.08241,0.26661 0.113317,0.56655 0.07626,0.26437 0.103002,0.24285 0.564678,0.9239 0.103701,0.22088 0.0712,0.26033 0.06137,0.29716 0.06068,0.58893 0.106542,0.61863 0.145875,0.58198 0.173998,0.53843 0.727941,1.57546 0.09456,0.29427 0.08112,0.28669 0.06403,0.30532 0.03481,0.2846 0.01411,0.27657 -0.03146,0.2744 -0.05362,0.29701 -0.18232,0.66176 -0.02995,0.21724 -0.0049,0.0844 0.0062,0.0511 0.0753,0.21113 0.107162,0.11152 0.128919,0.0777 0.586345,0.21252 0.140759,0.0981 0.128783,0.11278 0.121898,0.1411 0.09944,0.18387 0.07394,0.23003 0.01773,0.24599 -0.01269,0.23957 -0.02306,0.23748 0.0079,0.24742 0.05412,0.25805 0.08513,0.23284 0.209628,0.39913 0.09487,0.23118 0.06099,0.26085 0.02167,0.27454 0.0082,0.26204 0.02909,0.26731 0.072,0.26251 0.08871,0.24639 0.20074,0.46469 0.160791,0.57601 0.149849,0.87902 0.0345,0.32272 0.02162,0.3226 -0.02517,0.34719 -0.087,0.21739 -0.128115,0.15795 -0.160912,0.0749 -0.157891,0.0277 -1.398938,-0.21783 -0.142448,-0.0655 -0.38009,-0.32768 -0.278996,-0.15534 -0.1494,-0.0373 -0.147202,0.007 -0.145174,0.0853 -0.285644,0.29583 -0.118683,0.0765 -0.137165,0.0117 -0.490749,-0.18993 -0.245881,-0.0298 -0.33127,0.0448 -0.222582,0.1827 -0.240364,0.29297 -0.375975,0.65985 -0.156161,0.37271 -0.09213,0.33429 -0.0033,0.25497 0.01427,0.26115 0.06117,0.27144 0.09294,0.21598 0.362492,0.52489 0.07763,0.27145 0.01661,0.36263 -0.08053,0.53038 -0.08396,0.30893 -0.384721,0.76374 -0.116791,0.13973 -0.144798,0.10033 -0.152586,0.0227 -0.144223,-0.0309 -0.13265,-0.0867 -0.391141,-0.38344 -0.585056,-0.83051 -0.14645,-0.0955 -0.158342,-0.0108 -0.175814,0.13548 -0.07487,0.21158 -0.01408,0.2491 0.04287,0.26771 0.33146,1.13546 0.06205,0.31434 0.03828,0.33984 -0.01504,0.3601 -0.06441,0.23947 -0.110757,0.18914 -0.505173,0.43754 -0.271457,0.34525 -0.150207,0.37517 -0.183354,0.63788 -0.154234,0.39368 -0.472662,0.84831 -0.134251,0.31049 -0.08124,0.27523 -0.04613,0.73602 -0.0049,0.52207 0.03084,0.54269 0.101618,0.85552 0.06244,0.30167 0.08284,0.28202 0.09148,0.26078 0.07102,0.25422 0.02731,0.2544 -0.08198,0.24378 -0.39442,0.65745 -0.125781,0.27754 -0.08486,0.25198 -0.3257,1.43707 -0.0928,0.26406 -0.09932,0.1778 -0.351542,0.28584 -0.243745,0.28306 -0.113243,0.24017 -0.05855,0.21558 -0.01,0.13319 -0.0015,0.0897 0.05798,0.91095 -0.0017,0.25963 -1.155259,3.8262 -0.08519,1.2101 -0.307437,1.4461 -0.155896,0.4225 -0.419503,0.80474 -0.114022,0.3644 -0.103575,0.48971 -0.09499,0.28588 -0.120878,0.24281 -0.16151,0.23127 -0.08031,0.22843 -0.02868,0.254 0.01825,0.53137 -0.01424,0.2546 -0.04007,0.25843 -0.0769,0.30744 -0.03562,0.27186 -0.066,0.74789 -0.115766,0.64396 -0.100996,0.34629 -0.125389,0.24873 -1.523847,1.71426 -0.913028,0.58892 -0.244534,0.29362 -0.118319,0.23921 -0.06545,0.2507 -0.08516,0.69334 -0.04417,0.73143 -0.17735,0.89093 -0.400879,1.43454 -0.124741,0.34273 -1.153834,2.08844 -0.686606,0.60949 -0.270073,0.37205 -0.0859,0.28802 -0.0071,0.27937 0.07352,0.21004 0.08228,0.15715 0.06855,0.0815 0.114814,0.0923 0.138663,0.0312 0.839696,-0.10428 0.151721,0.0285 0.139392,0.0567 0.134994,0.0935 0.118034,0.17451 0.08117,0.23075 -0.02117,0.33944 -0.136542,0.27199 -0.252688,0.33338 -0.160282,0.27533 -0.0042,0.0466 0.05996,1.03111 -0.05472,0.568 -0.121346,0.3553 -0.394448,0.71408 -0.0708,0.28269 0.03566,0.24853 0.112262,0.14503 0.130445,0.11758 0.54643,0.36503 0.127106,0.12334 0.121393,0.14457 0.114324,0.18205 0.201508,0.45261 0.09232,0.25803 0.02586,0.42052 -0.03961,0.56312 -0.281236,1.55777 -0.02385,0.42136 0.256526,1.1824 0.03852,0.34385 0.0041,0.34311 -0.05282,0.43917 -0.09612,0.26233 -0.442675,0.80633 -0.05428,0.29347 -0.0033,0.34866 0.0116,0.34409 -0.04159,0.47418 -0.132343,0.29969 -0.415079,0.68694 -0.08869,0.30836 -0.03732,0.29167 0.03779,2.41493 -0.02632,0.31338 -0.05476,0.4249 -0.108834,0.28966 -0.369349,0.60919 -0.123777,0.3595 -0.131225,0.53001 -0.140444,0.42736 -0.181583,0.39976 -0.08246,0.28873 -0.04245,0.26452 -0.05567,0.54915 -0.279478,1.24172 -0.09622,0.80263 -0.348771,1.36906 -0.297321,0.82892 -0.0831,0.50796 -0.01437,0.32171 c 0.626965,7.22185 1.276227,12.93699 2.598601,19.95146 l -17.525618,7.01681 c -1.787755,-9.94824 1.030113,5.99582 -0.783326,-4.09931 -1.810365,-10.08302 -3.636763,-20.23933 -5.474785,-30.47234 -1.833209,-10.20341 -3.68012,-20.48306 -5.539052,-30.83784 -1.856091,-10.33197 -3.725864,-20.74006 -5.608039,-31.22551 -0.08166,-0.45745 -0.163841,-0.91363 -0.245331,-1.37017 l -0.583577,-1.47371 -0.239329,-0.86749 0.007,-0.78942 0.552325,-2.39367 0.310207,-2.13044 0.08617,-1.12162 -0.214142,-2.48594 0.184475,-1.46767 -0.185381,-1.03707 -0.365979,-0.96283 -0.381161,-0.61428 -0.794632,-0.99395 0.01461,-0.55584 0.623606,-2.65767 c 0.02371,-0.86536 0.04908,-1.7303 0.06976,-2.59694 l -0.106017,-1.58102 0.08092,-2.95497 0.803258,-2.4832 0.04407,-0.8287 0.08963,-0.69618 1.327998,-0.9564 0.138626,-0.35783 0.259879,-0.9631 0.930622,-1.58646 0.785758,-0.5246 0.206155,-0.56138 0.15815,-0.60942 0.08168,-1.05194 0.0054,-2.13916 0.271764,-2.60761 -0.02786,-1.06828 -0.16872,-1.05925 -0.325575,-0.89558 -0.410844,-0.69377 -0.805484,-1.04118 -0.174067,-0.3102 -0.675025,-1.57683 -0.280155,-1.02606 -0.166482,-0.47204 -1.337602,-1.89083 -0.598134,-1.59745 -0.954128,-1.25968 -0.422865,-0.837804 -0.270923,-1.043181 -0.433678,-2.069166 -0.342351,-0.764621 -0.420208,-0.786604 -0.912545,-2.988716 -0.76449,-1.826923 -3.195421,-5.247554 -0.258147,-0.499547 -0.159516,-0.493987 -0.0583,-0.58783 0.02834,-0.426771 0.05431,-0.282839 0.01814,-0.155737 -0.22237,-1.048621 L 13.373613,78.789482 13.03954,77.892272 12.250038,76.239167 10.580725,73.308722 10.177462,72.76264 9.6897487,72.259909 8.1929346,71.144994 7.6612197,70.417937 7.3103294,69.742667 6.2789374,67.318066 5.4327089,65.651637 5.009212,64.633355 4.4718105,62.69372 4.0932541,61.794063 3.6629391,61.002118 3.2680111,60.463814 3.0063142,60.323933 2.756584,60.262405 2.5314961,60.042289 2.3410451,59.416248 2.1954739,59.165779 1.9517887,58.920264 1.7506535,58.588827 1.7121293,57.161791 1.387911,56.284189 0.97753895,55.335466 0.69392843,54.177241 0.67715252,53.560746 0.76018068,52.451384 0.69668223,51.780746 0.57915749,51.256267 0.3593062,50.614342 0.24091381,50.093716 0.20482139,49.109833 0.4177683,48.358589 l 0.6083445,-1.243036 0.2830533,0.373846 0.2473387,0.397885 0.2588845,0.318129 0.3174986,0.121031 0.2463332,-0.19315 0.07737,-0.453539 0.029094,-0.532954 0.103716,-0.431746 0.3812721,-0.348192 0.3888214,0.07425 0.426419,0.201414 0.4934019,0.03775 0.2262313,-0.24404 L 4.4852019,45.963894 4.3705405,45.390986 4.3086668,44.81666 4.3429642,44.098339 4.4050807,43.791987 4.7741343,43.23586 5.0406465,42.652422 5.3213881,41.815708 5.3389323,41.32161 5.1863054,40.975042 4.9881126,40.712712 4.8608155,40.455565 4.7522328,39.872307 4.6135788,39.271736 4.4249221,38.709722 4.1641297,38.238644 3.9069858,38.115671 3.6241889,38.195813 3.329809,38.186767 3.0353769,37.795335 2.8883674,36.950664 3.139516,35.065172 3.0920308,33.947138 2.956779,33.366409 2.8143221,32.984524 2.6525731,32.619808 2.4577275,32.081134 1.9348811,30.014089 1.3701901,28.408238 1.0672796,27.198404 0.61918675,26.101526 0.26404279,25.47951 l -0.57814346,-0.544299 -0.47749844,-0.751824 -0.0522891,-1.225614 -0.0705254,-0.388042 -0.0517795,-0.694457 C -3.0556959,10.32962 -5.1604614,-1.3089875 -7.2811858,-13.035852 c -2.1971905,-12.148127 -4.4111622,-24.393416 -6.6438932,-36.738069 -1.314816,-7.271275 -2.636939,-14.578541 -3.964374,-21.91959 6.675206,-1.512941 13.3286577,-3.023888 19.9631904,-4.517344 7.0039334,-1.577216 13.9828806,-3.157569 20.9382076,-4.734031 6.18734,-1.402394 12.355259,-2.80184 18.506414,-4.187318 6.125423,-1.379672 12.230736,-2.772184 18.318578,-4.152036 6.848614,-1.552287 13.674014,-3.102195 20.477159,-4.644171 6.465191,-1.465377 12.908636,-2.930127 19.333103,-4.386266 l 7.333391,-1.662153 c 1.13873,8.150159 2.27023,16.259242 3.39418,24.324841 1.74216,12.468935 3.46721,24.836429 5.18138,37.105042"
       style="fill:#ede0cb;fill-opacity:1;fill-rule:nonzero;stroke:none"
       transform="matrix(0.55032829,-1.2144614,-1.2144614,-0.55032829,557.56197,371.61105)"
       clip-path="url(#clipPath3)"
       inkscape:label="path2"
       sodipodi:nodetypes="cccccccccccccccccccccccccccccccccccccccccccccccccccccccccccccccccccccccccccccccccccccccccccccccccccccccccccccccccccccccccccccccccccccccccccccccccccccccccccccccccccccccccccccccccccccccccccccccccccccccccccccccccccccccccccccccccccccccccccccccccccccccccccccccccccccccccccccccccccccccccccccccccccccccccccccccccccccccccccccccccccccccccccccccccccccccccccccccccccccccccccccccccccccccccccccccccccccccccccccccccccccccccccccccccccccccccccccccccccccccccccccccccccccccccccccccccccccccccccccccccccccccccccccccccccccccccccccccccccccccccccccccccccccccccccccccccccccccccccccccccccccccccccccccccccccccccccccccccccccccccccccccccccccccccccccccccccccccccccccccccccccccccccccccccccccccccccccccccccccccccccccccccccccccccccccccccccccccccccccccccccccccccccccccccccccccccccccccccccccccccccccccccccccccccccccccccccccccccccccccccccccccccccccccccccccccccccccccccccccccccccccccccccccccccccccccccccccccccccccccccccccccccccccccccccccccccccccccsssssccc" />
  </g>
  <g
     inkscape:groupmode="layer"
     id="layer1"
     inkscape:label="Tower"
     style="display:inline"
     transform="translate(-272.6376,-165.36304)">
    <path
       style="fill:none;fill-opacity:1;stroke:#45b5aa;stroke-width:5;stroke-linecap:round;stroke-linejoin:round;stroke-dasharray:none;stroke-opacity:1"
       d="m 540,340 30,-130 30,130"
       id="path6"
       sodipodi:nodetypes="ccc" />
    <path
       style="fill:none;fill-opacity:1;stroke:#45b5aa;stroke-width:5;stroke-linecap:butt;stroke-linejoin:round;stroke-dasharray:none;stroke-opacity:1"
       d="M 547.85996,305.125 600,340"
       id="path7"
       sodipodi:nodetypes="cc" />
    <path
       style="fill:none;fill-opacity:1;stroke:#45b5aa;stroke-width:5;stroke-linejoin:round;stroke-dasharray:none;stroke-opacity:1"
       d="M 592.44435,305.125 540,340"
       id="path8"
       sodipodi:nodetypes="cc" />
    <path
       style="fill:none;fill-opacity:1;stroke:#45b5aa;stroke-width:4.5;stroke-linecap:round;stroke-linejoin:round;stroke-dasharray:none;stroke-opacity:1"
       d="M 547.85996,305.125 584.25,270.175"
       id="path11" />
    <path
       style="fill:none;fill-opacity:1;stroke:#45b5aa;stroke-width:4.5;stroke-linecap:round;stroke-linejoin:round;stroke-dasharray:none;stroke-opacity:1"
       d="M 592.44435,305.125 555.75,270.175"
       id="path12" />
    <path
       style="fill:none;fill-opacity:1;stroke:#45b5aa;stroke-width:4;stroke-linecap:round;stroke-linejoin:round;stroke-dasharray:none;stroke-opacity:1"
       d="m 555.75,270.175 22.86935,-25.25089"
       id="path13"
       sodipodi:nodetypes="cc" />
    <path
       style="fill:none;fill-opacity:1;stroke:#45b5aa;stroke-width:4;stroke-linecap:round;stroke-linejoin:round;stroke-dasharray:none;stroke-opacity:1"
       d="M 584.25,270.175 561.29856,244.92411"
       id="path14"
       sodipodi:nodetypes="cc" />
  </g>
  <g
     inkscape:groupmode="layer"
     id="layer3"
     inkscape:label="Waves"
     transform="translate(-272.6376,-165.36304)">
    <path
       style="display:inline;fill:none;fill-opacity:1;stroke:url(#linearGradient24);stroke-width:4.5;stroke-linecap:round;stroke-linejoin:round;stroke-dasharray:none;stroke-opacity:1"
       d="m 597.15104,245.3808 c 10.93849,11.01272 7.83849,20.53395 0.74502,28.80915"
       id="path246"
       sodipodi:nodetypes="cc"
       inkscape:label="SignalRightInner" />
    <path
       style="display:inline;fill:none;fill-opacity:1;stroke:url(#linearGradient23);stroke-width:4.5;stroke-linecap:round;stroke-linejoin:round;stroke-dasharray:none;stroke-opacity:1"
       d="m 605.29917,231.24824 c 21.16701,16.59595 22.16853,40.72063 2.63421,57.07427"
       id="path247"
       sodipodi:nodetypes="cc"
       inkscape:label="SignalRightMiddle" />
    <path
       style="display:inline;fill:none;fill-opacity:1;stroke:url(#linearGradient22);stroke-width:4.5;stroke-linecap:round;stroke-linejoin:round;stroke-dasharray:none;stroke-opacity:1"
       d="m 616.36283,217.6382 c 0.038,0.14514 50.60528,41.20823 0.35123,84.29435"
       id="path248"
       sodipodi:nodetypes="cc"
       inkscape:label="SignalRightOuter" />
    <path
       style="display:inline;fill:none;fill-opacity:1;stroke:url(#linearGradient21);stroke-width:4.5;stroke-linecap:round;stroke-linejoin:round;stroke-dasharray:none;stroke-opacity:1"
       d="m 543.67512,245.3808 c -10.9385,11.01272 -7.83849,20.53395 -0.74502,28.80915"
       id="path249"
       sodipodi:nodetypes="cc"
       inkscape:label="SignalLeftInner" />
    <path
       style="display:inline;fill:none;fill-opacity:1;stroke:url(#linearGradient20);stroke-width:4.5;stroke-linecap:round;stroke-linejoin:round;stroke-dasharray:none;stroke-opacity:1"
       d="m 535.52699,231.24824 c -21.16703,16.59595 -22.16855,40.72063 -2.63422,57.07427"
       id="path250"
       sodipodi:nodetypes="cc"
       inkscape:label="SignalLeftMiddle" />
    <path
       style="display:inline;fill:none;fill-opacity:1;stroke:url(#linearGradient19);stroke-width:4.5;stroke-linecap:round;stroke-linejoin:round;stroke-dasharray:none;stroke-opacity:1"
       d="m 524.46331,217.6382 c -0.038,0.14514 -50.60526,41.20823 -0.35122,84.29435"
       id="path251"
       sodipodi:nodetypes="cc"
       inkscape:label="SignalRightOuter" />
  </g>
</svg>
