<?xml version="1.0" encoding="UTF-8" standalone="no"?>
<svg
   width="30"
   height="30"
   viewBox="0 0 30 30"
   fill="none"
   version="1.1"
   id="svg3"
   sodipodi:docname="groupsio.svg"
   xml:space="preserve"
   inkscape:version="1.4.2 (ebf0e940d0, 2025-05-08)"
   xmlns:inkscape="http://www.inkscape.org/namespaces/inkscape"
   xmlns:sodipodi="http://sodipodi.sourceforge.net/DTD/sodipodi-0.dtd"
   xmlns:xlink="http://www.w3.org/1999/xlink"
   xmlns="http://www.w3.org/2000/svg"
   xmlns:svg="http://www.w3.org/2000/svg"><defs
     id="defs3"><linearGradient
       id="swatch4"
       inkscape:swatch="solid"
       inkscape:label="Cream"><stop
         style="stop-color:#ede0cb;stop-opacity:1;"
         offset="0"
         id="stop4" /></linearGradient><linearGradient
       inkscape:collect="always"
       xlink:href="#swatch4"
       id="linearGradient4"
       x1="0"
       y1="15"
       x2="30"
       y2="15"
       gradientUnits="userSpaceOnUse" /></defs><sodipodi:namedview
     id="namedview3"
     pagecolor="#505050"
     bordercolor="#eeeeee"
     borderopacity="1"
     inkscape:showpageshadow="0"
     inkscape:pageopacity="0"
     inkscape:pagecheckerboard="0"
     inkscape:deskcolor="#505050"
     inkscape:zoom="16"
     inkscape:cx="18.25"
     inkscape:cy="18.28125"
     inkscape:window-width="1920"
     inkscape:window-height="1008"
     inkscape:window-x="1920"
     inkscape:window-y="0"
     inkscape:window-maximized="1"
     inkscape:current-layer="svg3" /><path
     id="circle1"
     d="M 15,0 A 15,15 0 0 0 0,15 15,15 0 0 0 15,30 15,15 0 0 0 30,15 15,15 0 0 0 15,0 Z M 6.7851562,6.9589844 a 2.056813,2.056813 0 0 1 1.7246094,0.9335937 c 1.7943954,0.00396 9.0127284,0.020125 12.9648434,0.027344 a 2.056813,2.056813 0 0 1 1.740235,-0.9609375 2.056813,2.056813 0 0 1 2.05664,2.0566406 2.056813,2.056813 0 0 1 -1.232422,1.8828128 l 0.01172,8.207031 a 2.056813,2.056813 0 0 1 1.220703,1.878906 2.056813,2.056813 0 0 1 -2.05664,2.056641 2.056813,2.056813 0 0 1 -1.767578,-1.00586 L 8.5625,22.021484 A 2.056813,2.056813 0 0 1 6.7851562,23.041016 2.056813,2.056813 0 0 1 4.7285156,20.984375 2.056813,2.056813 0 0 1 5.9296875,19.115234 V 10.884766 A 2.056813,2.056813 0 0 1 4.7285156,9.015625 2.056813,2.056813 0 0 1 6.7851562,6.9589844 Z m 2.0488282,2.234375 A 2.056813,2.056813 0 0 1 8.6855469,9.8046875 l 4.9589841,4.5195315 a 2.056813,2.056813 0 0 1 1.466797,-0.613281 2.056813,2.056813 0 0 1 1.425781,0.576171 L 21.328125,9.8320312 A 2.056813,2.056813 0 0 1 21.167969,9.2148438 C 16.865729,9.1748638 12.955833,9.2046774 8.8339844,9.1933594 Z M 7.8300781,10.785156 a 2.056813,2.056813 0 0 1 -0.6171875,0.242188 v 7.945312 a 2.056813,2.056813 0 0 1 1.6171875,1.78711 H 21.171875 a 2.056813,2.056813 0 0 1 1.632813,-1.791016 l -0.0293,-7.945312 a 2.056813,2.056813 0 0 1 -0.582032,-0.22461 l -5.048828,4.658203 a 2.056813,2.056813 0 0 1 0.02344,0.310547 2.056813,2.056813 0 0 1 -2.056641,2.056641 2.056813,2.056813 0 0 1 -2.05664,-2.056641 2.056813,2.056813 0 0 1 0.01953,-0.294922 l -5.2421878,-4.6875 z"
     style="display:inline;fill:url(#linearGradient4);fill-opacity:1" /></svg>
