<?xml version="1.0" encoding="UTF-8" standalone="no"?>
<svg
   viewBox="0 0 30 30"
   version="1.1"
   id="svg1"
   sodipodi:docname="youtube.svg"
   inkscape:version="1.4.2 (ebf0e940d0, 2025-05-08)"
   width="30"
   height="30"
   xmlns:inkscape="http://www.inkscape.org/namespaces/inkscape"
   xmlns:sodipodi="http://sodipodi.sourceforge.net/DTD/sodipodi-0.dtd"
   xmlns:xlink="http://www.w3.org/1999/xlink"
   xmlns="http://www.w3.org/2000/svg"
   xmlns:svg="http://www.w3.org/2000/svg">
  <defs
     id="defs1">
    <linearGradient
       id="swatch1"
       inkscape:swatch="solid">
      <stop
         style="stop-color:#ede0cb;stop-opacity:1;"
         offset="0"
         id="stop1" />
    </linearGradient>
    <linearGradient
       inkscape:collect="always"
       xlink:href="#swatch1"
       id="linearGradient1"
       x1="14.9"
       y1="256"
       x2="561.09998"
       y2="256"
       gradientUnits="userSpaceOnUse" />
  </defs>
  <sodipodi:namedview
     id="namedview1"
     pagecolor="#505050"
     bordercolor="#eeeeee"
     borderopacity="1"
     inkscape:showpageshadow="0"
     inkscape:pageopacity="0"
     inkscape:pagecheckerboard="0"
     inkscape:deskcolor="#505050"
     inkscape:zoom="24.96875"
     inkscape:cx="15.279099"
     inkscape:cy="15.559449"
     inkscape:window-width="1920"
     inkscape:window-height="1008"
     inkscape:window-x="1920"
     inkscape:window-y="0"
     inkscape:window-maximized="1"
     inkscape:current-layer="svg1" />
  <!--!Font Awesome Free 6.5.2 by @fontawesome - https://fontawesome.com License - https://fontawesome.com/license/free Copyright 2024 Fonticons, Inc.-->
  <path
     d="M 29.373856,7.7554004 C 29.027829,6.4536793 28.011718,5.4320754 26.720982,5.0860483 24.381179,4.4544114 14.999999,4.4544114 14.999999,4.4544114 c 0,0 -9.3811789,0 -11.7209815,0.6316369 C 1.9882814,5.4320754 0.97217,6.4536793 0.6261429,7.7554004 -1.4e-6,10.11168 -1.4e-6,15.02197 -1.4e-6,15.02197 c 0,0 0,4.91029 0.6261443,7.26657 0.3460271,1.301721 1.3621385,2.279385 2.6528746,2.625412 2.3398026,0.631637 11.7209815,0.631637 11.7209815,0.631637 0,0 9.38118,0 11.720983,-0.631637 1.290736,-0.346027 2.306847,-1.329184 2.652874,-2.625412 0.626145,-2.35628 0.626145,-7.26657 0.626145,-7.26657 0,0 0,-4.91029 -0.626145,-7.2665696 z M 11.935188,19.481875 v -8.91981 l 7.837789,4.459905 z"
     id="path1"
     style="fill:url(#linearGradient1);stroke-width:1" />
</svg>
